<svg width="116" height="116" viewBox="0 0 116 116" fill="none" xmlns="http://www.w3.org/2000/svg">
<g filter="url(#filter0_d_190_77)">
<path d="M111.994 53.2536L108.829 53.2973C109.017 66.8745 103.906 79.712 94.4387 89.445C84.971 99.1779 72.2795 104.642 58.7027 104.829C45.1242 105.022 32.2882 99.9062 22.555 90.4388C12.8221 80.9711 7.3585 68.2798 7.17068 54.7028C6.98285 41.1258 12.0936 28.2884 21.5613 18.5553C31.0289 8.82237 43.7202 3.35876 57.2972 3.17094C69.8167 2.99683 81.6942 7.32863 91.0988 15.4199L88.2538 15.4591L88.2975 18.6245L96.6884 18.5085L96.5723 10.1177L93.4071 10.1614L93.45 13.2671C83.4142 4.5102 70.6776 -0.184589 57.2535 0.00555719C42.8309 0.20499 29.3492 6.009 19.2922 16.348C9.23486 26.6873 3.80607 40.3242 4.00529 54.7467C4.20473 69.1693 10.0085 82.6508 20.3478 92.7079C30.5041 102.587 43.8405 108 57.9797 108C58.2344 108 58.4913 107.998 58.7464 107.995C73.1689 107.795 86.6505 101.991 96.7078 91.6522C106.765 81.3132 112.194 67.6762 111.994 53.2536Z" fill="#4E64EE"/>
<path d="M58 9.1543C46.0211 9.1543 34.7594 13.8191 26.2892 22.2894C17.8189 30.7597 13.1541 42.0216 13.1541 54.0002C13.1541 65.9788 17.8189 77.2407 26.2889 85.7112C34.7592 94.1815 46.0211 98.8463 57.9998 98.8463C69.9784 98.8463 81.2405 94.1813 89.7108 85.7112C98.1811 77.2407 102.846 65.979 102.846 54.0004C102.846 42.0218 98.1808 30.7599 89.7108 22.2896C81.2405 13.8191 69.9786 9.1543 58 9.1543ZM87.4723 83.4727C85.2443 85.7007 82.8083 87.6448 80.2085 89.2879L78.0909 85.62L75.3495 87.2029L77.4694 90.8747C71.9959 93.7734 65.9135 95.4133 59.5828 95.6482V91.4277H56.4172V95.6482C50.0864 95.4133 44.004 93.7734 38.5305 90.8747L40.6506 87.2029L37.9092 85.62L35.7914 89.2879C33.1916 87.6448 30.7556 85.7007 28.5277 83.4727C26.2953 81.2403 24.3482 78.799 22.703 76.1936L26.3672 74.0779L24.7844 71.3365L21.1174 73.4536C18.222 67.9805 16.5847 61.8992 16.3517 55.5697H20.5596V52.4041H16.3526C16.5894 46.0765 18.2298 39.9971 21.1278 34.5263L24.7842 36.6373L26.367 33.8959L22.7148 31.7872C24.3575 29.1889 26.3008 26.7544 28.5274 24.5275C30.7586 22.2964 33.1986 20.3502 35.8024 18.7053L37.909 22.3538L40.6504 20.771L38.5421 17.1194C44.0125 14.2245 50.0908 12.5866 56.417 12.352V16.5462H59.5826V12.3524C65.9089 12.5871 71.987 14.2249 77.4574 17.1198L75.3493 20.7714L78.0907 22.3542L80.1971 18.7057C82.8011 20.3506 85.241 22.2968 87.4721 24.5279C89.6987 26.7548 91.642 29.1893 93.2847 31.7877L89.6325 33.8964L91.2153 36.6378L94.8717 34.5267C97.7697 39.9975 99.4104 46.0769 99.6469 52.4045H95.4399V55.5701H99.6478C99.415 61.8994 97.7775 67.9807 94.8821 73.4538L91.2151 71.3367L89.6323 74.0781L93.2965 76.1936C91.6517 78.7993 89.7047 81.2406 87.4723 83.4727Z" fill="#4E64EE"/>
<path d="M49.9771 69.344H53.1426V72.5096H49.9771V69.344Z" fill="#4E64EE"/>
<path d="M56.3083 69.344H59.4739V72.5096H56.3083V69.344Z" fill="#4E64EE"/>
<path d="M62.6392 69.344H65.8048V72.5096H62.6392V69.344Z" fill="#4E64EE"/>
<path d="M60.2778 63.4895L68.5123 42.8142L71.4532 43.9855L63.2187 64.6608L60.2778 63.4895Z" fill="#4E64EE"/>
<path d="M75.7959 45.6968H85.0827L76.8591 63.2788L79.7267 64.6201L88.7552 45.3168V42.5312H75.7959V45.6968Z" fill="#4E64EE"/>
<path d="M54.6944 42.4778H49.8537L40.0271 59.6032H51.4857L51.473 64.6321L54.6386 64.6401L54.6513 59.6032H56.0499V56.4376H54.6591L54.6944 42.4778ZM51.4935 56.4378H45.493L51.5199 45.9344L51.4935 56.4378Z" fill="#4E64EE"/>
<path d="M37.7253 54.7698C38.9088 53.0787 39.6785 51.4906 40.0126 50.0497L40.1485 49.0497V48.9491C40.1485 45.366 37.2336 42.4512 33.6506 42.4512C30.5525 42.4512 27.8711 44.6548 27.2747 47.6913L30.3809 48.3014C30.6865 46.7458 32.0615 45.6168 33.6506 45.6168C35.4575 45.6168 36.9331 47.0626 36.9816 48.8579L36.9114 49.4072C36.6609 50.4251 36.0718 51.6044 35.1595 52.9147L27.9755 61.9278L27.9652 64.6983L39.3748 64.7334L39.3845 61.5678L32.3278 61.546L37.666 54.8485L37.7253 54.7698Z" fill="#4E64EE"/>
</g>
<defs>
<filter id="filter0_d_190_77" x="0" y="0" width="116" height="116" filterUnits="userSpaceOnUse" color-interpolation-filters="sRGB">
<feFlood flood-opacity="0" result="BackgroundImageFix"/>
<feColorMatrix in="SourceAlpha" type="matrix" values="0 0 0 0 0 0 0 0 0 0 0 0 0 0 0 0 0 0 127 0" result="hardAlpha"/>
<feOffset dy="4"/>
<feGaussianBlur stdDeviation="2"/>
<feComposite in2="hardAlpha" operator="out"/>
<feColorMatrix type="matrix" values="0 0 0 0 0 0 0 0 0 0 0 0 0 0 0 0 0 0 0.25 0"/>
<feBlend mode="normal" in2="BackgroundImageFix" result="effect1_dropShadow_190_77"/>
<feBlend mode="normal" in="SourceGraphic" in2="effect1_dropShadow_190_77" result="shape"/>
</filter>
</defs>
</svg>
