<svg width="75" height="78" viewBox="0 0 75 78" fill="none" xmlns="http://www.w3.org/2000/svg">
<path d="M67.9628 55.8987C67.6033 55.6241 67.2316 55.3399 66.8836 55.0596C65.0376 53.574 63.0736 52.2047 61.1742 50.8803C60.7801 50.6057 60.3859 50.3309 59.9931 50.0553C57.5601 48.3463 55.3728 47.5159 53.3062 47.5159C50.5228 47.5159 48.096 49.0539 46.093 52.0865C45.2056 53.431 44.1291 54.0847 42.8023 54.0847C42.0178 54.0847 41.1263 53.8608 40.1531 53.419C32.2998 49.8578 26.6921 44.3976 23.4853 37.1902C21.9351 33.7067 22.4377 31.4296 25.1658 29.5764C26.7151 28.5249 29.5987 26.5674 29.3944 22.8189C29.1631 18.5621 19.7707 5.75386 15.8134 4.29913C14.1379 3.68298 12.3775 3.67724 10.5716 4.28477C6.02228 5.81413 2.75762 8.49996 1.12971 12.0514C-0.44342 15.483 -0.372382 19.5124 1.33517 23.7039C6.27151 35.8225 13.2118 46.3884 21.9638 55.1074C30.5306 63.6426 41.0598 70.634 53.2588 75.8868C54.3584 76.3599 55.5117 76.618 56.3539 76.8062C56.6409 76.8708 56.8887 76.9258 57.0693 76.9753C57.1686 77.0024 57.2709 77.017 57.3736 77.0179L57.4699 77.0184C57.4699 77.0184 57.4699 77.0184 57.4704 77.0184C63.208 77.0184 70.0973 71.7754 72.2132 65.7981C74.0669 60.5643 70.6824 57.9772 67.9628 55.8987Z" fill="white"/>
<path d="M64.8742 32.3197C64.9668 21.4611 55.7184 11.5066 44.2582 10.1301C44.0303 10.103 43.782 10.0619 43.5191 10.0184C42.9518 9.92436 42.3651 9.82773 41.7731 9.82773C39.4243 9.82773 38.7964 11.4776 38.6311 12.4617C38.4704 13.4184 38.6237 14.2218 39.0861 14.8507C39.8639 15.9083 41.2325 16.0961 42.3318 16.2465C42.654 16.291 42.958 16.3324 43.2125 16.3896C53.509 18.6903 56.976 22.3075 58.6704 32.5165C58.7118 32.766 58.7305 33.0733 58.7503 33.3994C58.8242 34.6197 58.9783 37.1587 61.7079 37.1587H61.7081C61.9353 37.1587 62.1795 37.139 62.4338 37.1003C64.9756 36.714 64.896 34.3932 64.8577 33.2781C64.847 32.964 64.8367 32.667 64.8632 32.4694C64.8704 32.4196 64.874 32.3697 64.8742 32.3197Z" fill="white"/>
<path d="M41.106 6.14423C41.411 6.16624 41.6997 6.18729 41.9401 6.22412C58.848 8.82432 66.6237 16.8352 68.7785 33.8753C68.8151 34.165 68.8209 34.5183 68.8268 34.8923C68.8484 36.2237 68.8926 38.9932 71.8669 39.0506L71.9592 39.0516C72.8921 39.0516 73.634 38.7703 74.1648 38.2149C75.0907 37.2464 75.0261 35.8077 74.9739 34.6515C74.9613 34.3678 74.9491 34.1006 74.9522 33.8667C75.1672 16.4391 60.0817 0.635759 42.6696 0.0480766C42.5974 0.0456847 42.5285 0.0495117 42.4589 0.0593183C42.4247 0.0643413 42.3613 0.0705601 42.2527 0.0705601C42.0791 0.0705601 41.8655 0.0554914 41.6389 0.0401834C41.3651 0.0215268 41.0546 0 40.7398 0C37.967 0 37.4398 1.9709 37.3723 3.14579C37.2169 5.86104 39.8436 6.05215 41.106 6.14423Z" fill="white"/>
<path d="M43.6437 19.9874C42.6613 20.0123 40.617 20.063 39.8997 22.1451C39.5641 23.1182 39.6043 23.963 40.0193 24.6561C40.6282 25.6732 41.795 25.9848 42.8563 26.1558C46.705 26.7734 48.6816 28.9017 49.077 32.8531C49.2607 34.6955 50.5014 35.9821 52.0944 35.9821C52.212 35.9821 52.3326 35.9752 52.4524 35.9606C54.3683 35.7326 55.2971 34.325 55.2131 31.7772C55.2437 29.1182 53.8521 26.0994 51.4854 23.6948C49.1105 21.2829 46.2477 19.9245 43.6437 19.9874Z" fill="white"/>
</svg>
