<svg width="77" height="77" viewBox="0 0 77 77" fill="none" xmlns="http://www.w3.org/2000/svg">
<path d="M0 33.738V73.6407L25.6517 53.6894L0 33.738Z" fill="white"/>
<path d="M66.9238 23.3571V35.6254L74.4995 29.7332L66.9238 23.3571Z" fill="white"/>
<path d="M39.8026 0.529789C38.9631 -0.176596 37.7368 -0.176596 36.8973 0.529789L30.9155 5.56442H45.7842L39.8026 0.529789Z" fill="white"/>
<path d="M9.77534 23.3571L2.19971 29.7332L9.77534 35.6254V23.3571Z" fill="white"/>
<path d="M30.0996 55.9453L3.0293 77H73.669L46.5987 55.9453H30.0996Z" fill="white"/>
<path d="M51.0474 53.6894L76.6992 73.6409V33.7379L51.0474 53.6894Z" fill="white"/>
<path d="M37.7806 26.9746C35.9508 26.9746 34.0581 28.7538 34.0581 31.7309C34.0581 34.7577 35.9043 36.7909 37.6287 36.7909C39.4445 36.7909 40.9335 34.6664 41.0406 31.9951L41.0435 31.428C40.9624 28.7926 39.6436 26.9746 37.7806 26.9746Z" fill="white"/>
<path d="M46.5991 51.4336L62.4121 39.1345V12.332C62.4121 11.0862 61.4021 10.0762 60.1563 10.0762H16.543C15.2971 10.0762 14.2871 11.0862 14.2871 12.332V39.1347L30.1001 51.4336H46.5991ZM22.447 36.0799C21.3698 31.984 21.9115 27.666 23.9726 23.9214C26.0328 20.1782 29.3901 17.4092 33.4261 16.1244C37.6841 14.7687 42.2053 15.1681 46.1562 17.2491C50.1078 19.3302 52.9947 22.8307 54.2849 27.1058C54.2919 27.129 54.2985 27.1524 54.3047 27.1759C55.1622 30.3882 54.9084 33.4207 53.4815 37.0083C52.517 39.4332 50.1524 42.0244 46.4085 42.0244C45.0501 42.0244 43.7476 41.4674 42.7409 40.4557C42.5027 40.2163 42.288 39.9555 42.0958 39.6792C40.8315 40.7076 39.2983 41.3025 37.6292 41.3025C35.4489 41.3025 33.329 40.2441 31.8132 38.3985C30.3517 36.6191 29.547 34.2512 29.547 31.7308C29.547 29.1991 30.4033 26.8565 31.9583 25.1346C33.4917 23.4367 35.6142 22.4628 37.7811 22.4628C38.973 22.4628 40.1056 22.7469 41.1233 23.2821C41.3206 22.2365 42.2372 21.4465 43.3379 21.4465H43.3494C44.5952 21.4526 45.6003 22.4676 45.5941 23.7134L45.532 36.2463C45.53 36.6311 45.6822 37.0149 45.9391 37.273C46.028 37.3625 46.2072 37.5124 46.4085 37.5124C48.2288 37.5124 49.0295 35.9936 49.289 35.3408C50.3428 32.6913 50.5425 30.6053 49.9548 28.3741C49.0114 25.2811 46.9169 22.7487 44.0539 21.2409C41.1809 19.7276 37.8921 19.4375 34.7947 20.4234C28.689 22.367 25.1819 28.74 26.8104 34.9321C28.1628 40.0743 32.8109 43.768 38.1138 43.9148C39.359 43.9493 40.3409 44.9868 40.3063 46.2322C40.2725 47.4564 39.2694 48.4256 38.0526 48.4256C38.0314 48.4256 38.0103 48.4253 37.989 48.4247C34.4931 48.328 31.0423 47.0863 28.2719 44.9279C25.3938 42.6858 23.3797 39.6263 22.447 36.0799Z" fill="white"/>
</svg>
