<svg width="87" height="74" viewBox="0 0 87 74" fill="none" xmlns="http://www.w3.org/2000/svg">
<path d="M29.0635 23.6714H31.7484" stroke="white" stroke-width="3" stroke-linejoin="round"/>
<path d="M78.7342 23.6714H82.7616C83.4737 23.6714 84.1566 23.9543 84.6601 24.4578C85.1636 24.9613 85.4465 25.6442 85.4465 26.3563V69.3151C85.4465 70.0272 85.1636 70.7101 84.6601 71.2136C84.1566 71.7171 83.4737 72 82.7616 72H4.89879C4.1867 72 3.50378 71.7171 3.00026 71.2136C2.49674 70.7101 2.21387 70.0272 2.21387 69.3151V26.3563C2.21387 25.6442 2.49674 24.9613 3.00026 24.4578C3.50378 23.9543 4.1867 23.6714 4.89879 23.6714H26.3782" stroke="white" stroke-width="3" stroke-linejoin="round"/>
<path d="M50.5425 23.6714H55.9123" stroke="white" stroke-width="3" stroke-linejoin="round"/>
<path d="M25.0361 34.411H62.6251V61.2603H25.0361V34.411Z" stroke="white" stroke-width="3" stroke-linejoin="round"/>
<path d="M51.8851 34.411L41.1455 45.1507L30.4058 34.411" stroke="white" stroke-width="3" stroke-linejoin="round"/>
<path d="M25.0361 37.096L37.1183 49.1782L25.0361 61.2603" stroke="white" stroke-width="3" stroke-linejoin="round"/>
<path d="M33.0908 61.2603L47.8579 46.4932L62.625 61.2603" stroke="white" stroke-width="3" stroke-linejoin="round"/>
<path d="M62.6248 50.5206L53.2275 41.1233L59.9398 34.411" stroke="white" stroke-width="3" stroke-linejoin="round"/>
<path d="M69.8737 28.5619C69.8737 22.2336 77.3915 20.1232 77.3915 12.7397C77.3915 9.89135 76.26 7.15967 74.2459 5.14558C72.2318 3.1315 69.5001 2 66.6518 2C63.8035 2 61.0718 3.1315 59.0577 5.14558C57.0436 7.15967 55.9121 9.89135 55.9121 12.7397C55.9121 20.1232 63.4299 22.2336 63.4299 28.5619C63.4299 29.4165 63.7693 30.236 64.3736 30.8402C64.9778 31.4444 65.7973 31.7839 66.6518 31.7839C67.5063 31.7839 68.3258 31.4444 68.93 30.8402C69.5343 30.236 69.8737 29.4165 69.8737 28.5619Z" stroke="white" stroke-width="3" stroke-linejoin="round"/>
<path d="M66.6519 16.9591C68.8762 16.9591 70.6793 15.1559 70.6793 12.9317C70.6793 10.7074 68.8762 8.9043 66.6519 8.9043C64.4276 8.9043 62.6245 10.7074 62.6245 12.9317C62.6245 15.1559 64.4276 16.9591 66.6519 16.9591Z" stroke="white" stroke-width="3" stroke-linejoin="round"/>
<path d="M41.1457 29.0412C44.1114 29.0412 46.5156 26.6371 46.5156 23.6714C46.5156 20.7057 44.1114 18.3015 41.1457 18.3015C38.18 18.3015 35.7759 20.7057 35.7759 23.6714C35.7759 26.6371 38.18 29.0412 41.1457 29.0412Z" stroke="white" stroke-width="3" stroke-linejoin="round"/>
<path d="M41.145 29.0412V38.4385" stroke="white" stroke-width="3" stroke-linejoin="round"/>
<path d="M41.145 14.2742V6.21939" stroke="white" stroke-width="3" stroke-linejoin="round"/>
<path d="M45.1724 15.6166L50.5422 10.2468" stroke="white" stroke-width="3" stroke-linejoin="round"/>
<path d="M37.1174 15.6166L31.7476 10.2468" stroke="white" stroke-width="3" stroke-linejoin="round"/>
<path d="M74.707 66.6302H80.0769V61.2603" stroke="white" stroke-width="3" stroke-linejoin="round"/>
<path d="M80.0767 58.5754V55.8904" stroke="white" stroke-width="3" stroke-linejoin="round"/>
<path d="M2.21387 57.2329L6.24125 54.548V41.1234L2.21387 38.4384" stroke="white" stroke-width="3" stroke-linejoin="round"/>
</svg>
