<svg width="91" height="91" viewBox="0 0 91 91" fill="none" xmlns="http://www.w3.org/2000/svg">
<path d="M85.668 51.9429V8.17578C85.668 6.70322 84.4745 5.50977 83.002 5.50977H69.4941V2.66602C69.4941 1.19346 68.3007 0 66.8281 0C65.3556 0 64.1621 1.19346 64.1621 2.66602V5.50977H53.498V2.66602C53.498 1.19346 52.3046 0 50.832 0C49.3595 0 48.166 1.19346 48.166 2.66602V5.50977H37.502V2.66602C37.502 1.19346 36.3085 0 34.8359 0C33.3634 0 32.1699 1.19346 32.1699 2.66602V5.50977H21.5059V2.66602C21.5059 1.19346 20.3124 0 18.8398 0C17.3673 0 16.1738 1.19346 16.1738 2.66602V5.50977H2.66602C1.19346 5.50977 0 6.70322 0 8.17578V77.6699C0 79.1425 1.19346 80.3359 2.66602 80.3359H47.0649C51.375 86.7615 58.7044 91 67.0059 91C80.236 91 91 80.236 91 67.0059C91 61.3059 89.0005 56.0641 85.668 51.9429ZM16.1738 10.8418V13.5078C16.1738 14.9804 17.3673 16.1738 18.8398 16.1738C20.3124 16.1738 21.5059 14.9804 21.5059 13.5078V10.8418H32.1699V13.5078C32.1699 14.9804 33.3634 16.1738 34.8359 16.1738C36.3085 16.1738 37.502 14.9804 37.502 13.5078V10.8418H48.166V13.5078C48.166 14.9804 49.3595 16.1738 50.832 16.1738C52.3046 16.1738 53.498 14.9804 53.498 13.5078V10.8418H64.1621V13.5078C64.1621 14.9804 65.3556 16.1738 66.8281 16.1738C68.3007 16.1738 69.4941 14.9804 69.4941 13.5078V10.8418H80.3359V21.5059H5.33203V10.8418H16.1738ZM5.33203 75.0039V26.8379H80.3359V47.0649C76.5209 44.5065 71.9345 43.0117 67.0059 43.0117C58.5815 43.0117 51.1583 47.3766 46.8761 53.9625C46.5157 53.7806 46.1096 53.6758 45.6777 53.6758H40.3457C38.8731 53.6758 37.6797 54.8692 37.6797 56.3418C37.6797 57.8144 38.8731 59.0078 40.3457 59.0078H44.3843C43.7824 60.706 43.3658 62.4917 43.161 64.3398H40.3457C38.8731 64.3398 37.6797 65.5333 37.6797 67.0059C37.6797 68.4784 38.8731 69.6719 40.3457 69.6719H43.161C43.3658 71.52 43.7817 73.3057 44.3843 75.0039H5.33203ZM67.0059 85.668C56.7153 85.668 48.3438 77.2964 48.3438 67.0059C48.3438 56.7153 56.7153 48.3438 67.0059 48.3438C77.2964 48.3438 85.668 56.7153 85.668 67.0059C85.668 77.2964 77.2964 85.668 67.0059 85.668Z" fill="white"/>
<path d="M77.6699 64.3398H69.6719V56.3418C69.6719 54.8692 68.4784 53.6758 67.0059 53.6758C65.5333 53.6758 64.3398 54.8692 64.3398 56.3418V67.0059C64.3398 68.4784 65.5333 69.6719 67.0059 69.6719H77.6699C79.1425 69.6719 80.3359 68.4784 80.3359 67.0059C80.3359 65.5333 79.1425 64.3398 77.6699 64.3398Z" fill="white"/>
<path d="M24.1719 32.3477H18.8398C17.3673 32.3477 16.1738 33.5411 16.1738 35.0137C16.1738 36.4862 17.3673 37.6797 18.8398 37.6797H24.1719C25.6444 37.6797 26.8379 36.4862 26.8379 35.0137C26.8379 33.5411 25.6444 32.3477 24.1719 32.3477Z" fill="white"/>
<path d="M24.1719 43.0117H18.8398C17.3673 43.0117 16.1738 44.2052 16.1738 45.6777C16.1738 47.1503 17.3673 48.3438 18.8398 48.3438H24.1719C25.6444 48.3438 26.8379 47.1503 26.8379 45.6777C26.8379 44.2052 25.6444 43.0117 24.1719 43.0117Z" fill="white"/>
<path d="M24.1719 53.6758H18.8398C17.3673 53.6758 16.1738 54.8692 16.1738 56.3418C16.1738 57.8144 17.3673 59.0078 18.8398 59.0078H24.1719C25.6444 59.0078 26.8379 57.8144 26.8379 56.3418C26.8379 54.8692 25.6444 53.6758 24.1719 53.6758Z" fill="white"/>
<path d="M40.3457 37.6797H45.6777C47.1503 37.6797 48.3438 36.4862 48.3438 35.0137C48.3438 33.5411 47.1503 32.3477 45.6777 32.3477H40.3457C38.8731 32.3477 37.6797 33.5411 37.6797 35.0137C37.6797 36.4862 38.8731 37.6797 40.3457 37.6797Z" fill="white"/>
<path d="M40.3457 48.3438H45.6777C47.1503 48.3438 48.3438 47.1503 48.3438 45.6777C48.3438 44.2052 47.1503 43.0117 45.6777 43.0117H40.3457C38.8731 43.0117 37.6797 44.2052 37.6797 45.6777C37.6797 47.1503 38.8731 48.3438 40.3457 48.3438Z" fill="white"/>
<path d="M24.1719 64.3398H18.8398C17.3673 64.3398 16.1738 65.5333 16.1738 67.0059C16.1738 68.4784 17.3673 69.6719 18.8398 69.6719H24.1719C25.6444 69.6719 26.8379 68.4784 26.8379 67.0059C26.8379 65.5333 25.6444 64.3398 24.1719 64.3398Z" fill="white"/>
<path d="M61.6738 37.6797H67.0059C68.4784 37.6797 69.6719 36.4862 69.6719 35.0137C69.6719 33.5411 68.4784 32.3477 67.0059 32.3477H61.6738C60.2013 32.3477 59.0078 33.5411 59.0078 35.0137C59.0078 36.4862 60.2013 37.6797 61.6738 37.6797Z" fill="white"/>
</svg>
