<svg width="116" height="115" viewBox="0 0 116 115" fill="none" xmlns="http://www.w3.org/2000/svg">
<g filter="url(#filter0_d_190_131)">
<path d="M109.253 62.8149C108.776 59.5785 108.367 56.7769 108.233 54.9789C107.789 48.9743 106.167 45.7797 102.797 44.1656C101.349 43.4876 99.7612 43.1637 98.1637 43.2206C97.6787 41.18 96.6919 37.8767 95.1865 36.3881C92.594 33.829 89.0398 33.7538 86.9574 33.9963C86.667 33.0401 86.154 32.1664 85.4606 31.4468C84.7672 30.7273 83.9131 30.1823 82.9683 29.8567C80.6777 29.1902 78.222 29.3897 76.0689 30.417C75.4166 20.4233 74.5803 11.2324 73.6269 9.35076C73.2949 8.58357 72.77 7.91539 72.1032 7.41125C71.4364 6.90712 70.6504 6.58419 69.8218 6.47391C67.2544 6.15612 64.7371 7.97088 63.9677 8.84898C63.4325 9.46784 63.0478 9.91108 63.0813 28.0837C63.0813 36.6055 63.2318 46.2731 63.3572 47.9875C63.466 49.451 63.2652 54.6778 63.0311 59.6956C62.6226 59.0626 62.2674 58.3969 61.969 57.7052C60.079 53.5237 56.115 50.1033 50.9216 48.1046C47.5011 46.7999 44.3149 47.1512 42.383 49.0412C41.6896 49.7093 41.2057 50.5649 40.9903 51.5035C40.775 52.442 40.8376 53.423 41.1704 54.3266C41.8143 56.1162 43.2779 57.8641 44.9672 59.8879C46.5326 61.6481 47.9324 63.549 49.1486 65.5663C50.2447 67.671 51.1758 69.8575 51.9335 72.1061C52.8015 74.7177 53.9219 77.2384 55.2787 79.6328C55.9059 80.6698 56.5916 81.7653 57.2941 82.8943C59.4368 86.1933 61.3913 89.6108 63.1482 93.1305C65.2305 97.6716 72.7906 101.493 73.6436 101.962C73.8421 102.065 74.0592 102.127 74.2821 102.144C74.505 102.162 74.7291 102.134 74.9413 102.064C75.1534 101.993 75.3492 101.881 75.5172 101.733C75.6851 101.586 75.8218 101.406 75.919 101.205C76.0163 101.003 76.0723 100.785 76.0836 100.561C76.0949 100.338 76.0613 100.115 75.9848 99.9046C75.9084 99.6945 75.7906 99.5019 75.6384 99.3381C75.4862 99.1744 75.3027 99.0428 75.0988 98.9511C73.0666 97.9392 67.5053 94.6693 66.1505 91.7172C64.3244 88.0582 62.2859 84.509 60.0455 81.0879C59.3514 79.9757 58.674 78.8885 58.0552 77.8598C56.8289 75.6703 55.8151 73.3683 55.0278 70.9855C54.2136 68.5712 53.2097 66.225 52.0255 63.969C50.7146 61.7689 49.1999 59.697 47.5011 57.7805C46.0711 56.1079 44.7246 54.4353 44.2814 53.231C44.166 52.9309 44.1434 52.6031 44.2165 52.29C44.2895 51.9768 44.4549 51.6929 44.6912 51.4748C45.4439 50.7389 47.1499 50.304 49.7089 51.2741C55.6466 53.5405 58.0133 57.1281 58.9082 59.1269C59.7564 61.1782 61.0877 62.9943 62.7886 64.4206C62.7049 65.9427 62.638 67.2891 62.5795 68.2759C62.5544 68.7183 62.7058 69.1526 63.0006 69.4834C63.2954 69.8143 63.7094 70.0146 64.1517 70.0405H64.227C64.6537 70.0413 65.0646 69.8789 65.3756 69.5866C65.6865 69.2943 65.874 68.8942 65.8996 68.4683C65.8996 67.7491 66.9031 50.9061 66.669 47.7449C66.4013 43.8227 66.2425 14.7699 66.7359 10.8394C67.4821 10.204 68.4238 9.84382 69.4036 9.81908C69.6043 9.81908 70.1396 9.91108 70.6246 10.8812C71.3857 12.4367 72.2972 23.0241 73.0331 36.0369V36.2627C73.0331 36.2627 73.0331 36.3045 73.0331 36.3296C73.4346 43.2373 73.7858 50.8225 74.0618 58.0732C74.0784 58.5168 74.2706 58.9356 74.596 59.2375C74.9215 59.5394 75.3535 59.6997 75.7971 59.683C76.2407 59.6664 76.6595 59.4742 76.9614 59.1488C77.2633 58.8233 77.4236 58.3913 77.407 57.9477C77.2815 54.6025 76.9052 45.1775 76.3365 35.4849C76.3207 35.1364 76.3883 34.7891 76.5338 34.472C76.6792 34.1549 76.8983 33.8771 77.1728 33.6618C78.4105 32.6833 80.7521 32.6833 81.9062 33.0513C83.7461 33.6451 83.9969 35.9783 84.0053 36.0703C84.0053 36.2208 85.4939 51.617 85.6779 55.1127C85.7014 55.5401 85.888 55.9423 86.1991 56.2363C86.5103 56.5304 86.9224 56.6939 87.3505 56.6933H87.4508C87.8932 56.6674 88.3072 56.4671 88.602 56.1362C88.8967 55.8054 89.0482 55.3711 89.0231 54.9287C88.8558 52.0017 87.8522 41.3389 87.4759 37.308C88.9311 37.1658 91.2392 37.2411 92.8031 38.7799C93.7648 39.7249 94.7684 43.2122 95.1782 45.3866V45.4451C95.1782 45.4451 95.1782 45.487 95.1782 45.512C96.0339 49.0485 96.333 52.6967 96.0646 56.3253C96.0427 56.5439 96.064 56.7646 96.1273 56.9749C96.1907 57.1852 96.2948 57.381 96.4338 57.5511C96.5728 57.7212 96.744 57.8622 96.9375 57.9661C97.131 58.07 97.3431 58.1348 97.5616 58.1568H97.7289C98.1449 58.1589 98.5469 58.0058 98.8561 57.7274C99.1654 57.4491 99.3598 57.0655 99.4014 56.6515C99.6746 53.2964 99.486 49.9197 98.8411 46.616C99.7097 46.6572 100.562 46.8674 101.35 47.2348C103.173 48.0711 104.461 49.7437 104.871 55.2632C105.013 57.1783 105.431 60.0301 105.916 63.3334C106.811 69.4551 107.932 77.0737 107.689 81.7319C107.321 88.7902 104.419 99.5783 104.394 99.6871C104.334 99.9123 104.321 100.148 104.357 100.378C104.393 100.609 104.477 100.829 104.603 101.025L107.948 106.277C108.194 106.634 108.569 106.881 108.994 106.967C109.418 107.053 109.86 106.97 110.225 106.738C110.59 106.505 110.851 106.139 110.952 105.718C111.053 105.296 110.986 104.852 110.767 104.479L107.806 99.846C108.475 97.2535 110.691 88.3219 111.026 81.9075C111.319 76.9065 110.173 69.0871 109.253 62.8149Z" fill="#4E64EE"/>
<path d="M5.68626 13.3483H54.3752C54.778 15.6447 55.8823 17.76 57.5364 19.4031C57.8502 19.7169 58.2759 19.8933 58.7197 19.8933C59.1636 19.8933 59.5893 19.7169 59.9031 19.4031C60.2169 19.0892 60.3933 18.6636 60.3933 18.2197C60.3933 17.7759 60.2169 17.3502 59.9031 17.0364C58.5977 15.7257 57.7855 14.0041 57.6041 12.1631C57.4227 10.3222 57.8833 8.47514 58.9078 6.93491C59.9323 5.39467 61.4578 4.25596 63.2258 3.71169C64.9938 3.16741 66.8955 3.25104 68.6089 3.94841C68.8121 4.03187 69.0297 4.0745 69.2494 4.07386C69.469 4.07323 69.6864 4.02933 69.8891 3.94468C70.2984 3.77373 70.6231 3.44718 70.7916 3.03685C70.8751 2.83367 70.9177 2.61605 70.9171 2.3964C70.9164 2.17675 70.8726 1.95938 70.7879 1.7567C70.7033 1.55401 70.5795 1.36998 70.4238 1.21512C70.268 1.06026 70.0832 0.93759 69.8801 0.854125C68.2611 0.188047 66.51 -0.0947254 64.7636 0.0278932C63.0173 0.150512 61.3229 0.675202 59.8129 1.56098C58.3029 2.44676 57.018 3.66964 56.0588 5.13411C55.0996 6.59858 54.4919 8.26499 54.2832 10.0032H5.68626C5.24266 10.0032 4.81723 10.1794 4.50356 10.4931C4.18989 10.8067 4.01367 11.2322 4.01367 11.6757C4.01367 12.1193 4.18989 12.5448 4.50356 12.8584C4.81723 13.1721 5.24266 13.3483 5.68626 13.3483Z" fill="#4E64EE"/>
<path d="M79.28 10.0032C78.8364 10.0032 78.411 10.1794 78.0973 10.4931C77.7836 10.8067 77.6074 11.2322 77.6074 11.6758C77.6074 12.1194 77.7836 12.5448 78.0973 12.8585C78.411 13.1721 78.8364 13.3483 79.28 13.3483H109.387C109.83 13.3483 110.256 13.1721 110.569 12.8585C110.883 12.5448 111.059 12.1194 111.059 11.6758C111.059 11.2322 110.883 10.8067 110.569 10.4931C110.256 10.1794 109.83 10.0032 109.387 10.0032H79.28Z" fill="#4E64EE"/>
<path d="M15.7218 65.1984C18.5349 65.1951 21.2527 64.1791 23.378 62.3363C25.5034 60.4935 26.8942 57.9471 27.2961 55.1629H35.7928C36.2364 55.1629 36.6619 54.9867 36.9755 54.673C37.2892 54.3593 37.4654 53.9339 37.4654 53.4903C37.4654 53.0467 37.2892 52.6213 36.9755 52.3076C36.6619 51.9939 36.2364 51.8177 35.7928 51.8177H27.2961C26.9754 49.5959 26.0228 47.5132 24.5517 45.8176C23.0806 44.122 21.1531 42.8851 18.9987 42.2542C16.8444 41.6232 14.5541 41.625 12.4008 42.2591C10.2474 42.8932 8.3217 44.133 6.85312 45.8308C5.38455 47.5285 4.435 49.6127 4.11762 51.835C3.80024 54.0572 4.12839 56.3239 5.06299 58.3649C5.99759 60.4059 7.49923 62.1352 9.38901 63.3467C11.2788 64.5583 13.477 65.201 15.7218 65.1984ZM15.7218 45.1274C17.3759 45.1274 18.9927 45.6179 20.368 46.5368C21.7433 47.4557 22.8152 48.7618 23.4482 50.29C24.0811 51.8181 24.2467 53.4996 23.9241 55.1218C23.6014 56.7441 22.8049 58.2342 21.6353 59.4038C20.4657 60.5734 18.9756 61.3699 17.3533 61.6925C15.7311 62.0152 14.0496 61.8496 12.5215 61.2166C10.9933 60.5837 9.68723 59.5118 8.7683 58.1365C7.84937 56.7612 7.3589 55.1443 7.3589 53.4903C7.3589 51.2723 8.23999 49.1452 9.80834 47.5768C11.3767 46.0085 13.5038 45.1274 15.7218 45.1274Z" fill="#4E64EE"/>
<path d="M5.68626 96.9777H29.2363C29.6583 99.745 31.0578 102.27 33.1812 104.094C35.3046 105.918 38.0112 106.921 40.8105 106.921C43.6099 106.921 46.3165 105.918 48.4399 104.094C50.5633 102.27 51.9628 99.745 52.3848 96.9777H58.3727C58.8163 96.9777 59.2417 96.8015 59.5554 96.4878C59.8691 96.1741 60.0453 95.7487 60.0453 95.3051C60.0453 94.8615 59.8691 94.4361 59.5554 94.1224C59.2417 93.8087 58.8163 93.6325 58.3727 93.6325H52.3848C51.9628 90.8652 50.5633 88.3407 48.4399 86.5165C46.3165 84.6924 43.6099 83.6895 40.8105 83.6895C38.0112 83.6895 35.3046 84.6924 33.1812 86.5165C31.0578 88.3407 29.6583 90.8652 29.2363 93.6325H5.68626C5.24266 93.6325 4.81723 93.8087 4.50356 94.1224C4.18989 94.4361 4.01367 94.8615 4.01367 95.3051C4.01367 95.7487 4.18989 96.1741 4.50356 96.4878C4.81723 96.8015 5.24266 96.9777 5.68626 96.9777ZM40.8105 86.9422C42.4646 86.9422 44.0815 87.4327 45.4567 88.3516C46.832 89.2705 47.9039 90.5766 48.5369 92.1047C49.1698 93.6329 49.3355 95.3144 49.0128 96.9366C48.6901 98.5589 47.8936 100.049 46.724 101.219C45.5544 102.388 44.0643 103.185 42.4421 103.507C40.8198 103.83 39.1383 103.664 37.6102 103.031C36.0821 102.398 34.776 101.327 33.857 99.9513C32.9381 98.576 32.4476 96.9591 32.4476 95.3051C32.4476 93.0871 33.3287 90.96 34.8971 89.3916C36.4654 87.8233 38.5926 86.9422 40.8105 86.9422Z" fill="#4E64EE"/>
</g>
<defs>
<filter id="filter0_d_190_131" x="0" y="0" width="115.073" height="115" filterUnits="userSpaceOnUse" color-interpolation-filters="sRGB">
<feFlood flood-opacity="0" result="BackgroundImageFix"/>
<feColorMatrix in="SourceAlpha" type="matrix" values="0 0 0 0 0 0 0 0 0 0 0 0 0 0 0 0 0 0 127 0" result="hardAlpha"/>
<feOffset dy="4"/>
<feGaussianBlur stdDeviation="2"/>
<feComposite in2="hardAlpha" operator="out"/>
<feColorMatrix type="matrix" values="0 0 0 0 0 0 0 0 0 0 0 0 0 0 0 0 0 0 0.25 0"/>
<feBlend mode="normal" in2="BackgroundImageFix" result="effect1_dropShadow_190_131"/>
<feBlend mode="normal" in="SourceGraphic" in2="effect1_dropShadow_190_131" result="shape"/>
</filter>
</defs>
</svg>
