<svg width="168" height="209" viewBox="0 0 168 209" fill="none" xmlns="http://www.w3.org/2000/svg">
<path d="M102.301 46.4021C100.702 46.426 99.0739 46.4922 97.4625 46.5984C94.3214 46.8047 91.9401 49.5557 92.1426 52.7439C92.3368 55.8051 94.8446 58.1559 97.8242 58.1559C97.9478 58.1559 98.0722 58.1521 98.1973 58.1436C99.6222 58.0505 101.06 57.992 102.471 57.9704C105.619 57.9227 108.132 55.294 108.085 52.1004C108.038 48.9068 105.433 46.3367 102.301 46.4021Z" fill="white" fill-opacity="0.2"/>
<path d="M130.307 50.48C127.352 49.5063 124.248 48.6935 121.083 48.0638C117.996 47.4473 115 49.4917 114.394 52.6276C113.788 55.7619 115.802 58.8024 118.89 59.4174C121.609 59.9585 124.267 60.6543 126.789 61.4849C129.745 62.4571 133.01 60.7667 133.969 57.7686C134.94 54.7289 133.3 51.466 130.307 50.48Z" fill="white" fill-opacity="0.2"/>
<path d="M70.9708 104.017C70.5256 101.379 70.2678 98.6585 70.2056 95.9314C70.1328 92.737 67.515 90.2123 64.3762 90.2823C61.2298 90.3562 58.7378 93.0056 58.8106 96.1993C58.8857 99.4906 59.1974 102.778 59.7366 105.971C60.2606 109.076 63.2546 111.229 66.316 110.694C69.4192 110.155 71.5024 107.165 70.9708 104.017Z" fill="white" fill-opacity="0.2"/>
<path d="M98.7733 139.741C96.3648 138.874 94.0215 137.752 91.8094 136.408C89.1081 134.767 85.6091 135.659 83.9915 138.4C82.3755 141.141 83.2537 144.693 85.9542 146.335C88.8139 148.071 91.8435 149.522 94.9634 150.645C98.0483 151.755 101.505 149.913 102.366 146.714C103.143 143.832 101.546 140.739 98.7733 139.741Z" fill="white" fill-opacity="0.2"/>
<path d="M106.172 24.0483C104.215 21.5459 100.63 21.1279 98.1652 23.1131C95.7469 25.0605 93.3755 27.1303 91.1186 29.2663C88.8155 31.4439 88.6881 35.104 90.8327 37.4417C92.9478 39.747 96.6144 39.8794 98.8864 37.7311C100.925 35.8037 103.066 33.934 105.25 32.1759C107.716 30.1892 108.128 26.5515 106.172 24.0483Z" fill="white" fill-opacity="0.2"/>
<path d="M80.2743 125.939C78.6909 123.86 77.2606 121.604 76.0238 119.23C74.5518 116.407 71.1021 115.33 68.3212 116.823C65.5396 118.318 64.4779 121.818 65.9498 124.642C67.4908 127.598 69.2775 130.415 71.2583 133.016C73.3074 135.706 77.3236 135.997 79.7336 133.631C81.7925 131.609 82.0261 128.237 80.2743 125.939Z" fill="white" fill-opacity="0.2"/>
<path d="M71.7264 64.4916C68.831 63.2393 65.4836 64.6071 64.2498 67.5459C62.8893 70.785 61.7776 73.9732 61.0321 76.7635C60.2086 79.847 62.0036 83.0237 65.0408 83.8604C65.539 83.9974 66.041 84.0629 66.5347 84.0629C69.0449 84.0629 71.3442 82.3671 72.0312 79.7908C72.4574 78.1967 73.2719 75.565 74.7348 72.0796C75.9693 69.1408 74.6225 65.7432 71.7264 64.4916Z" fill="white" fill-opacity="0.2"/>
<path d="M86.5656 42.1679C84.082 40.2028 80.5019 40.6531 78.5673 43.1732C76.6608 45.6548 74.8355 48.238 73.1443 50.8505C71.4145 53.5199 72.1448 57.1069 74.7748 58.8619C77.3714 60.5953 80.9614 59.8394 82.6677 57.2069C84.192 54.8539 85.8368 52.5254 87.556 50.2878C89.4913 47.7677 89.0477 44.1322 86.5656 42.1679Z" fill="white" fill-opacity="0.2"/>
<path d="M155.217 65.6532C152.979 63.2955 150.438 61.0971 147.664 59.1189C145.089 57.2816 141.535 57.912 139.724 60.5268C137.915 63.1408 138.536 66.7485 141.111 68.5851C143.291 70.1392 145.275 71.8534 147.008 73.68C149.163 75.9499 152.829 76.0192 155.066 73.8324C157.333 71.6155 157.4 67.9539 155.217 65.6532Z" fill="white" fill-opacity="0.2"/>
<path d="M128.596 145.354C127.936 142.229 124.908 140.242 121.829 140.91C119.454 141.427 116.965 141.768 114.426 141.927L113.983 141.952C110.84 142.111 108.417 144.826 108.574 148.017C108.724 151.111 111.243 153.515 114.26 153.515C114.355 153.515 114.452 153.512 114.548 153.508L115.129 153.475C118.229 153.283 121.287 152.861 124.218 152.224C127.296 151.552 129.255 148.478 128.596 145.354Z" fill="white" fill-opacity="0.2"/>
<path d="M167.459 93.2758C167.188 89.7696 166.556 86.3797 165.58 83.2C164.644 80.1495 161.447 78.4469 158.444 79.3983C155.438 80.3481 153.762 83.5917 154.698 86.6422C155.422 88.9968 155.891 91.5323 156.095 94.1771C156.337 97.3199 159.125 99.7392 162.221 99.4937C165.317 99.2474 167.701 96.4186 167.459 93.2758Z" fill="white" fill-opacity="0.2"/>
<path d="M161.459 105.935C158.44 105.031 155.271 106.78 154.379 109.843C153.636 112.396 152.673 114.899 151.517 117.284C150.127 120.15 151.291 123.618 154.115 125.028C156.903 126.421 160.374 125.218 161.745 122.391C163.185 119.418 164.385 116.299 165.31 113.12C166.202 110.057 164.478 106.839 161.459 105.935Z" fill="white" fill-opacity="0.2"/>
<path d="M129.382 11.0498C128.044 8.15718 124.649 6.91483 121.801 8.27341C119.003 9.60659 116.231 11.0598 113.562 12.5924C111.431 13.8155 110.29 16.3656 110.787 18.7995C111.328 21.4566 113.701 23.4133 116.373 23.4133C117.324 23.4133 118.288 23.1716 119.174 22.6628C121.594 21.2734 124.109 19.9549 126.647 18.7449C129.496 17.3863 130.721 13.941 129.382 11.0498Z" fill="white" fill-opacity="0.2"/>
<path d="M150.369 130.271C148.201 127.955 144.595 127.859 142.312 130.059C140.428 131.875 138.374 133.515 136.205 134.937C133.561 136.67 132.802 140.251 134.509 142.935C136.191 145.582 139.778 146.368 142.388 144.656C145.15 142.846 147.765 140.758 150.161 138.449C152.443 136.249 152.536 132.588 150.369 130.271Z" fill="white" fill-opacity="0.2"/>
<path d="M150.682 4.29151C149.87 1.20642 146.745 -0.625548 143.705 0.196527C142.168 0.613722 140.629 1.06017 139.13 1.52278C136.275 2.40644 134.549 5.4869 135.256 8.42959C136.022 11.614 139.364 13.5437 142.454 12.5892C143.827 12.1643 145.236 11.7556 146.647 11.3731C149.686 10.5487 151.493 7.37814 150.682 4.29151Z" fill="white" fill-opacity="0.2"/>
<path d="M22.5838 200.577C21.9225 199.278 21.2809 197.95 20.675 196.632C19.3456 193.737 15.9543 192.484 13.1021 193.833C10.25 195.182 9.01463 198.624 10.3448 201.52C11.0152 202.979 11.725 204.447 12.4553 205.882C13.8794 208.683 17.3701 209.817 20.1328 208.37C22.9296 206.906 24.0269 203.417 22.5838 200.577Z" fill="white" fill-opacity="0.2"/>
<path d="M15.0213 181.28C14.2873 178.656 13.6556 175.981 13.1459 173.329C12.5431 170.194 9.55213 168.149 6.46033 168.761C3.37157 169.373 1.35664 172.411 1.95953 175.547C2.52981 178.515 3.23583 181.507 4.05712 184.442C4.90496 187.473 8.10823 189.289 11.0961 188.425C14.125 187.552 15.8821 184.353 15.0213 181.28Z" fill="white" fill-opacity="0.2"/>
<path d="M6.26622 142.799C3.1312 142.602 0.417064 145.016 0.216101 148.203C0.0735313 150.471 0.000729717 152.77 0.000729717 155.038C0.000729717 157.118 -0.0735885 159.142 1.27779 160.85C2.37512 162.236 4.08824 163.06 5.84533 163.013C7.58802 162.975 9.24426 162.108 10.2877 160.692C11.5519 158.976 11.3987 157.068 11.3987 155.037C11.3987 153.015 11.4632 150.964 11.5906 148.94C11.7916 145.753 9.4073 143.003 6.26622 142.799Z" fill="white" fill-opacity="0.2"/>
<path d="M12.4561 117.608C9.45758 116.625 6.24901 118.296 5.28211 121.336C4.36223 124.229 3.54928 127.189 2.86828 130.132C2.14709 133.241 4.04752 136.355 7.11125 137.086C10.1348 137.808 13.2524 135.847 13.9629 132.779C14.5749 130.141 15.3037 127.486 16.1288 124.89C17.0949 121.849 15.4516 118.589 12.4561 117.608Z" fill="white" fill-opacity="0.2"/>
<path d="M41.5197 75.3656C39.3456 73.0541 35.7404 72.9679 33.4615 75.1732C32.8783 75.7374 32.3005 76.3116 31.7249 76.8943C30.1854 78.4576 28.6642 80.1102 27.2029 81.8075C25.1318 84.2121 25.373 87.8668 27.742 89.9697C30.0793 92.0442 33.7406 91.7948 35.7836 89.4225C37.0781 87.9192 38.4249 86.4567 39.7846 85.0758C40.295 84.5577 40.8107 84.0467 41.3294 83.5448C43.6075 81.338 43.6917 77.6771 41.5197 75.3656Z" fill="white" fill-opacity="0.2"/>
<path d="M24.3838 94.636C21.7031 92.9633 18.1934 93.8131 16.544 96.5334C14.9833 99.1097 13.5038 101.787 12.1448 104.489C10.7146 107.335 11.8286 110.819 14.633 112.27C17.4025 113.704 20.8886 112.552 22.2984 109.744C23.5193 107.315 24.8494 104.908 26.2524 102.593C27.9018 99.8717 27.0646 96.3094 24.3838 94.636Z" fill="white" fill-opacity="0.2"/>
<path d="M59.4729 63.1169C57.8591 60.3752 54.3601 59.4799 51.6581 61.1179C50.284 61.9508 48.9106 62.8291 47.5744 63.7289C44.952 65.4962 44.2361 69.0855 45.9765 71.7472C47.6927 74.3728 51.2865 75.1125 53.8763 73.369C55.0631 72.57 56.2825 71.7895 57.5035 71.0498C60.2055 69.4111 61.0874 65.8595 59.4729 63.1169Z" fill="white" fill-opacity="0.2"/>
</svg>
