<svg width="116" height="115" viewBox="0 0 116 115" fill="none" xmlns="http://www.w3.org/2000/svg">
<g filter="url(#filter0_d_190_133)">
<path d="M110.669 13.0508C110.605 12.9907 97.9716 0.94236 97.9716 0.94236C97.4887 0.478953 96.9891 0 96.0564 0H45.195C43.7094 0 42.5007 1.20852 42.5007 2.69411V10.9672L24.5746 14.04C23.1378 14.2921 22.1715 15.6672 22.4204 17.1026L23.3302 22.4072C17.5036 24.368 11.5215 26.3892 5.74654 28.4636C4.38195 28.9626 3.66583 30.4799 4.15277 31.8527L15.6403 63.7862C15.8714 64.4288 16.477 64.829 17.1229 64.829C17.2998 64.829 17.48 64.7989 17.6561 64.7355C18.4749 64.441 18.8999 63.5385 18.6054 62.7197L7.28781 31.2584C12.7285 29.3104 18.363 27.4039 23.8694 25.5504L29.2831 57.1119L35.5124 93.4602C35.7374 94.7433 36.8652 95.6563 38.1382 95.6563C38.2823 95.6563 38.4285 95.6445 38.5752 95.6204L55.4469 92.725L68.6307 90.4651L48.8023 97.592L33.166 103.214L21.0224 69.4376C20.7281 68.6188 19.8259 68.1938 19.0068 68.4881C18.188 68.7824 17.763 69.6849 18.0573 70.5037L30.3731 104.76C30.767 105.837 31.7875 106.507 32.8662 106.507C33.1643 106.507 33.467 106.456 33.7619 106.348L49.868 100.557L86.4393 87.4126L93.426 86.215H108.86C110.345 86.215 111.554 85.0038 111.554 83.5148V14.8261C111.554 13.8831 111.043 13.4021 110.669 13.0508ZM106.495 13.4239H98.611L98.4157 13.4247C98.0382 13.4273 97.1544 13.4338 96.9303 13.2111C96.8786 13.1596 96.8181 12.9878 96.8181 12.6687L96.7999 4.17886L106.495 13.4239ZM108.403 83.0636H45.6517V52.3588C45.6517 51.4887 44.9463 50.7833 44.0762 50.7833C43.2061 50.7833 42.5007 51.4887 42.5007 52.3588V83.5144C42.5007 85.0032 43.7094 86.2146 45.195 86.2146H74.775L54.9142 89.619L38.5327 92.4303L32.3887 56.5792L25.6101 17.0593L42.5005 14.164V45.0484C42.5005 45.9185 43.2059 46.6239 44.076 46.6239C44.9461 46.6239 45.6515 45.9185 45.6515 45.0484V3.15079H93.6465L93.6671 12.6723C93.6671 13.8264 94.0181 14.7599 94.7103 15.4473C95.7739 16.5033 97.2773 16.5768 98.2107 16.5768C98.2909 16.5768 98.367 16.5762 98.4382 16.5758L108.403 16.5751V83.0636Z" fill="#4E64EE"/>
<path d="M53.2461 24.4637C53.2461 25.3338 53.9515 26.0392 54.8216 26.0392H99.8675C100.738 26.0392 101.443 25.3338 101.443 24.4637C101.443 23.5936 100.738 22.8882 99.8675 22.8882H54.8216C53.9515 22.8882 53.2461 23.5936 53.2461 24.4637Z" fill="#4E64EE"/>
<path d="M99.8675 34.0808H54.8216C53.9515 34.0808 53.2461 34.7862 53.2461 35.6563C53.2461 36.5264 53.9515 37.2318 54.8216 37.2318H99.8675C100.738 37.2318 101.443 36.5264 101.443 35.6563C101.443 34.7862 100.738 34.0808 99.8675 34.0808Z" fill="#4E64EE"/>
<path d="M99.8675 45.2737H54.8216C53.9515 45.2737 53.2461 45.9791 53.2461 46.8492C53.2461 47.7193 53.9515 48.4247 54.8216 48.4247H99.8675C100.738 48.4247 101.443 47.7193 101.443 46.8492C101.443 45.9791 100.738 45.2737 99.8675 45.2737Z" fill="#4E64EE"/>
<path d="M99.8675 56.4663H54.8216C53.9515 56.4663 53.2461 57.1717 53.2461 58.0418C53.2461 58.9119 53.9515 59.6173 54.8216 59.6173H99.8675C100.738 59.6173 101.443 58.9119 101.443 58.0418C101.443 57.1717 100.738 56.4663 99.8675 56.4663Z" fill="#4E64EE"/>
<path d="M99.8675 67.6594H54.8216C53.9515 67.6594 53.2461 68.3648 53.2461 69.2349C53.2461 70.105 53.9515 70.8104 54.8216 70.8104H99.8675C100.738 70.8104 101.443 70.105 101.443 69.2349C101.443 68.3648 100.738 67.6594 99.8675 67.6594Z" fill="#4E64EE"/>
</g>
<defs>
<filter id="filter0_d_190_133" x="0" y="0" width="115.554" height="114.507" filterUnits="userSpaceOnUse" color-interpolation-filters="sRGB">
<feFlood flood-opacity="0" result="BackgroundImageFix"/>
<feColorMatrix in="SourceAlpha" type="matrix" values="0 0 0 0 0 0 0 0 0 0 0 0 0 0 0 0 0 0 127 0" result="hardAlpha"/>
<feOffset dy="4"/>
<feGaussianBlur stdDeviation="2"/>
<feComposite in2="hardAlpha" operator="out"/>
<feColorMatrix type="matrix" values="0 0 0 0 0 0 0 0 0 0 0 0 0 0 0 0 0 0 0.25 0"/>
<feBlend mode="normal" in2="BackgroundImageFix" result="effect1_dropShadow_190_133"/>
<feBlend mode="normal" in="SourceGraphic" in2="effect1_dropShadow_190_133" result="shape"/>
</filter>
</defs>
</svg>
