<svg width="124" height="307" viewBox="0 0 124 307" fill="none" xmlns="http://www.w3.org/2000/svg">
<path fill-rule="evenodd" clip-rule="evenodd" d="M61.6393 198.555C61.6393 198.555 50.7828 203.559 46.8883 205.353C46.5893 205.491 46.2407 205.467 45.9634 205.29C45.6862 205.112 45.5184 204.806 45.5184 204.476C45.5185 201.268 45.5185 193.843 45.5184 191.184C45.5185 190.563 45.7577 189.966 46.1861 189.517C47.8625 187.758 52.1166 183.242 52.1166 182.727L52.1166 153.913C52.1166 153.913 32.4027 161.717 27.0614 163.831C26.764 163.949 26.4277 163.912 26.1632 163.732C25.8987 163.553 25.7403 163.253 25.7403 162.934C25.7403 159.938 25.7403 153.003 25.7403 149.978C25.7403 149.083 26.2353 148.262 27.0265 147.844C32.3161 145.048 52.1166 134.583 52.1166 134.583L52.1166 111.185C52.1166 108.66 53.1199 106.238 54.9056 104.452C56.6913 102.667 59.1133 101.663 61.6386 101.663L61.6399 101.663C64.1653 101.663 66.5873 102.667 68.373 104.452C70.1587 106.238 71.1618 108.66 71.1619 111.185L71.1619 134.584C71.1619 134.584 90.9623 145.048 96.2521 147.844C97.0432 148.262 97.5382 149.083 97.5381 149.978C97.5381 153.003 97.5382 159.938 97.5382 162.934C97.5382 163.253 97.3798 163.552 97.1153 163.732C96.8509 163.912 96.5144 163.949 96.2171 163.831C90.8758 161.717 71.1618 153.913 71.1618 153.913L71.1619 182.727C71.1618 183.242 75.416 187.758 77.0925 189.517C77.5209 189.966 77.7599 190.563 77.76 191.184C77.76 193.843 77.76 201.268 77.76 204.476C77.76 204.806 77.5923 205.112 77.3151 205.29C77.0378 205.467 76.6892 205.491 76.3902 205.353C72.4957 203.558 61.6393 198.555 61.6393 198.555Z" fill="#4E64EE"/>
<path fill-rule="evenodd" clip-rule="evenodd" d="M66.4674 262.633C66.4674 265.298 64.304 267.461 61.6393 267.461C58.9745 267.461 56.811 265.298 56.811 262.633V226.961C56.811 224.296 58.9745 222.132 61.6393 222.132C64.304 222.132 66.4674 224.296 66.4674 226.96L66.4674 262.633Z" fill="#4E64EE"/>
<path fill-rule="evenodd" clip-rule="evenodd" d="M66.4678 80.6879C66.4678 83.3526 64.3043 85.5161 61.6395 85.5161C58.9747 85.5161 56.8113 83.3526 56.8113 80.6879L56.8113 45.0152C56.8113 42.3504 58.9747 40.187 61.6395 40.187C64.3043 40.187 66.4678 42.3505 66.4677 45.0152L66.4678 80.6879Z" fill="#4E64EE"/>
<path fill-rule="evenodd" clip-rule="evenodd" d="M61.6395 4.82145C66.9429 4.82137 71.2486 9.1271 71.2486 14.4306C71.2486 19.7341 66.9429 24.0398 61.6394 24.0398C56.3359 24.0398 52.0302 19.7341 52.0303 14.4307C52.0303 9.12718 56.336 4.82145 61.6395 4.82145Z" fill="#4E64EE"/>
<path fill-rule="evenodd" clip-rule="evenodd" d="M61.6389 283.608C66.9424 283.608 71.2482 287.914 71.2482 293.217C71.2482 298.521 66.9424 302.827 61.639 302.827C56.3355 302.826 52.0298 298.521 52.0297 293.217C52.0297 287.914 56.3355 283.608 61.6389 283.608Z" fill="#4E64EE"/>
</svg>
