<svg width="46" height="46" viewBox="0 0 46 46" fill="none" xmlns="http://www.w3.org/2000/svg">
<path d="M42.1667 3.06667H40.6333V2.3C40.6333 1.69 40.391 1.10499 39.9597 0.673654C39.5283 0.242321 38.9433 9.69377e-08 38.3333 9.69377e-08C37.7233 9.69377e-08 37.1383 0.242321 36.707 0.673654C36.2757 1.10499 36.0333 1.69 36.0333 2.3V3.06667H32.9667V2.3C32.9667 1.69 32.7243 1.10499 32.293 0.673654C31.8617 0.242321 31.2767 0 30.6667 0C30.0567 0 29.4717 0.242321 29.0403 0.673654C28.609 1.10499 28.3667 1.69 28.3667 2.3V3.06667H25.3V2.3C25.3 1.69 25.0577 1.10499 24.6263 0.673654C24.195 0.242321 23.61 0 23 0C22.39 0 21.805 0.242321 21.3737 0.673654C20.9423 1.10499 20.7 1.69 20.7 2.3V3.06667H17.6333V2.3C17.6333 1.69 17.391 1.10499 16.9597 0.673654C16.5283 0.242321 15.9433 0 15.3333 0C14.7233 0 14.1383 0.242321 13.707 0.673654C13.2757 1.10499 13.0333 1.69 13.0333 2.3V3.06667H9.96667V2.3C9.96667 1.69 9.72435 1.10499 9.29301 0.673654C8.86168 0.242321 8.27666 0 7.66667 0C7.05667 0 6.47165 0.242321 6.04032 0.673654C5.60899 1.10499 5.36667 1.69 5.36667 2.3V3.06667H3.83333C2.81704 3.06788 1.84273 3.47214 1.1241 4.19077C0.405476 4.90939 0.00121736 5.88371 0 6.9L0 36.0333C0.00121736 37.0496 0.405476 38.0239 1.1241 38.7426C1.84273 39.4612 2.81704 39.8654 3.83333 39.8667H5.37433C4.56197 41.2217 4.06174 42.7407 3.91 44.3133C3.89072 44.5279 3.9162 44.744 3.98483 44.9482C4.05345 45.1524 4.16373 45.34 4.30867 45.4994C4.4525 45.6572 4.62773 45.7833 4.82313 45.8695C5.01852 45.9557 5.22977 46.0002 5.44333 46H40.6333C40.8464 46 41.0571 45.9557 41.2521 45.8698C41.4471 45.7838 41.622 45.6582 41.7657 45.5009C41.9107 45.3415 42.021 45.1536 42.0896 44.9494C42.1583 44.7451 42.1837 44.5287 42.1644 44.3141C42.0124 42.7416 41.5122 41.2226 40.7 39.8674H42.1667C43.183 39.8662 44.1573 39.462 44.8759 38.7433C45.5945 38.0247 45.9988 37.0504 46 36.0341V6.9C45.9988 5.88371 45.5945 4.90939 44.8759 4.19077C44.1573 3.47214 43.183 3.06788 42.1667 3.06667ZM37.5667 2.3C37.5667 2.09667 37.6474 1.90166 37.7912 1.75788C37.935 1.61411 38.13 1.53333 38.3333 1.53333C38.5367 1.53333 38.7317 1.61411 38.8755 1.75788C39.0192 1.90166 39.1 2.09667 39.1 2.3V5.36667C39.1 5.57 39.0192 5.765 38.8755 5.90878C38.7317 6.05256 38.5367 6.13333 38.3333 6.13333C38.13 6.13333 37.935 6.05256 37.7912 5.90878C37.6474 5.765 37.5667 5.57 37.5667 5.36667V2.3ZM29.9 2.3C29.9 2.09667 29.9808 1.90166 30.1245 1.75788C30.2683 1.61411 30.4633 1.53333 30.6667 1.53333C30.87 1.53333 31.065 1.61411 31.2088 1.75788C31.3526 1.90166 31.4333 2.09667 31.4333 2.3V5.36667C31.4333 5.57 31.3526 5.765 31.2088 5.90878C31.065 6.05256 30.87 6.13333 30.6667 6.13333C30.4633 6.13333 30.2683 6.05256 30.1245 5.90878C29.9808 5.765 29.9 5.57 29.9 5.36667V2.3ZM22.2333 2.3C22.2333 2.09667 22.3141 1.90166 22.4579 1.75788C22.6017 1.61411 22.7967 1.53333 23 1.53333C23.2033 1.53333 23.3983 1.61411 23.5421 1.75788C23.6859 1.90166 23.7667 2.09667 23.7667 2.3V5.36667C23.7667 5.57 23.6859 5.765 23.5421 5.90878C23.3983 6.05256 23.2033 6.13333 23 6.13333C22.7967 6.13333 22.6017 6.05256 22.4579 5.90878C22.3141 5.765 22.2333 5.57 22.2333 5.36667V2.3ZM14.5667 2.3C14.5667 2.09667 14.6474 1.90166 14.7912 1.75788C14.935 1.61411 15.13 1.53333 15.3333 1.53333C15.5367 1.53333 15.7317 1.61411 15.8754 1.75788C16.0192 1.90166 16.1 2.09667 16.1 2.3V5.36667C16.1 5.57 16.0192 5.765 15.8754 5.90878C15.7317 6.05256 15.5367 6.13333 15.3333 6.13333C15.13 6.13333 14.935 6.05256 14.7912 5.90878C14.6474 5.765 14.5667 5.57 14.5667 5.36667V2.3ZM6.9 2.3C6.9 2.09667 6.98077 1.90166 7.12455 1.75788C7.26833 1.61411 7.46333 1.53333 7.66667 1.53333C7.87 1.53333 8.065 1.61411 8.20878 1.75788C8.35256 1.90166 8.43333 2.09667 8.43333 2.3V5.36667C8.43333 5.57 8.35256 5.765 8.20878 5.90878C8.065 6.05256 7.87 6.13333 7.66667 6.13333C7.46333 6.13333 7.26833 6.05256 7.12455 5.90878C6.98077 5.765 6.9 5.57 6.9 5.36667V2.3ZM3.83333 4.6H5.36667V5.36667C5.36667 5.97666 5.60899 6.56168 6.04032 6.99301C6.47165 7.42435 7.05667 7.66667 7.66667 7.66667C8.27666 7.66667 8.86168 7.42435 9.29301 6.99301C9.72435 6.56168 9.96667 5.97666 9.96667 5.36667V4.6H13.0333V5.36667C13.0333 5.97666 13.2757 6.56168 13.707 6.99301C14.1383 7.42435 14.7233 7.66667 15.3333 7.66667C15.9433 7.66667 16.5283 7.42435 16.9597 6.99301C17.391 6.56168 17.6333 5.97666 17.6333 5.36667V4.6H20.7V5.36667C20.7 5.97666 20.9423 6.56168 21.3737 6.99301C21.805 7.42435 22.39 7.66667 23 7.66667C23.61 7.66667 24.195 7.42435 24.6263 6.99301C25.0577 6.56168 25.3 5.97666 25.3 5.36667V4.6H28.3667V5.36667C28.3667 5.97666 28.609 6.56168 29.0403 6.99301C29.4717 7.42435 30.0567 7.66667 30.6667 7.66667C31.2767 7.66667 31.8617 7.42435 32.293 6.99301C32.7243 6.56168 32.9667 5.97666 32.9667 5.36667V4.6H36.0333V5.36667C36.0333 5.97666 36.2757 6.56168 36.707 6.99301C37.1383 7.42435 37.7233 7.66667 38.3333 7.66667C38.9433 7.66667 39.5283 7.42435 39.9597 6.99301C40.391 6.56168 40.6333 5.97666 40.6333 5.36667V4.6H42.1667C42.7767 4.6 43.3617 4.84232 43.793 5.27365C44.2243 5.70499 44.4667 6.29 44.4667 6.9V9.2H1.53333V6.9C1.53333 6.29 1.77565 5.70499 2.20699 5.27365C2.63832 4.84232 3.22334 4.6 3.83333 4.6ZM5.44333 44.4667L5.4395 44.4529C5.96083 38.7082 12.1716 34.0845 20.0943 33.1499L20.9507 35.1225C21.0104 35.2594 21.1089 35.3759 21.2339 35.4576C21.3589 35.5393 21.5051 35.5828 21.6545 35.5825C21.76 35.5829 21.8645 35.5613 21.9612 35.5189C22.1474 35.4378 22.2939 35.286 22.3683 35.097C22.4428 34.908 22.4392 34.6971 22.3583 34.5107L21.7074 33.0111C22.1482 32.9881 22.5898 32.9659 23.0391 32.9659C26.2892 32.9434 29.5084 33.5975 32.4921 34.8864L31.8013 36.0333H24.978C24.7256 36.0334 24.477 36.0958 24.2545 36.2149C24.0319 36.3341 23.8422 36.5064 23.7023 36.7164L22.3989 38.6745C22.3431 38.7583 22.3042 38.8522 22.2847 38.951C22.2651 39.0498 22.2652 39.1514 22.2849 39.2502C22.3046 39.3489 22.3436 39.4428 22.3996 39.5265C22.4556 39.6102 22.5275 39.682 22.6113 39.7379C22.6951 39.7937 22.789 39.8326 22.8878 39.8521C22.9866 39.8717 23.0882 39.8716 23.187 39.8519C23.2857 39.8322 23.3796 39.7932 23.4633 39.7372C23.547 39.6812 23.6188 39.6093 23.6747 39.5255L24.9788 37.5667H31.8251L33.1284 39.5255C33.1843 39.6093 33.2561 39.6812 33.3398 39.7372C33.4235 39.7932 33.5174 39.8322 33.6161 39.8519C33.7149 39.8716 33.8165 39.8717 33.9153 39.8521C34.0141 39.8326 34.108 39.7937 34.1918 39.7379C34.2756 39.682 34.3475 39.6102 34.4035 39.5265C34.4595 39.4428 34.4985 39.3489 34.5182 39.2502C34.5379 39.1514 34.538 39.0498 34.5184 38.951C34.4989 38.8522 34.46 38.7583 34.4042 38.6745L33.1399 36.7785L33.8675 35.5657C37.72 37.6579 40.3029 40.8396 40.6333 44.4667H5.44333ZM42.1667 38.3333H39.6275C38.2472 36.6688 36.5562 35.2887 34.6487 34.27L35.1923 33.3638C35.297 33.1894 35.3282 32.9806 35.2789 32.7833C35.2297 32.586 35.1041 32.4163 34.9297 32.3116C34.7554 32.2068 34.5465 32.1757 34.3492 32.2249C34.1519 32.2742 33.9822 32.3998 33.8775 32.5741L33.2733 33.58C30.0524 32.1437 26.5619 31.4119 23.0353 31.4333C22.3652 31.4333 21.7036 31.4602 21.0504 31.51L18.4 25.3989C19.2858 25.0818 20.2191 24.9177 21.16 24.9136C21.2916 24.9237 21.4234 24.8982 21.5418 24.84C21.6602 24.7817 21.7608 24.6928 21.8331 24.5824C22.4161 23.8637 23.1635 23.2959 24.0122 22.9271C24.8609 22.5582 25.786 22.3992 26.7091 22.4633C26.8627 22.4851 27.0192 22.4602 27.1584 22.3918C27.2976 22.3235 27.413 22.2148 27.4896 22.08C27.5657 21.945 27.5992 21.7901 27.5855 21.6357C27.5718 21.4813 27.5116 21.3347 27.4129 21.2152C24.5096 17.6885 19.2518 16.6313 14.6257 18.6407C9.99963 20.6502 7.18903 25.2157 7.77783 29.7436C7.79785 29.8974 7.86404 30.0415 7.96766 30.1569C8.07127 30.2723 8.20745 30.3535 8.3582 30.3899C8.41728 30.4036 8.47772 30.4105 8.53837 30.4106C8.66276 30.4105 8.78527 30.3802 8.89533 30.3223C9.00539 30.2643 9.09969 30.1804 9.1701 30.0779C9.7536 29.3588 10.5017 28.7908 11.3511 28.422C12.2004 28.0532 13.1262 27.8943 14.0499 27.9588C14.1795 27.9774 14.3116 27.963 14.434 27.9167C14.5564 27.8705 14.6651 27.7939 14.7499 27.6943C15.3963 27.0103 16.1534 26.4401 16.9893 26.0076L19.4511 31.6756C13.9219 32.4369 9.2 34.9186 6.44 38.3333H3.83333C3.22334 38.3333 2.63832 38.091 2.20699 37.6597C1.77565 37.2283 1.53333 36.6433 1.53333 36.0333V10.7333H44.4667V36.0333C44.4667 36.6433 44.2243 37.2283 43.793 37.6597C43.3617 38.091 42.7767 38.3333 42.1667 38.3333ZM14.4731 25.8574C13.6766 23.4424 13.9556 21.4429 15.2651 20.1127C17.1158 20.066 18.7795 21.2252 20.0031 23.4554C17.9717 23.724 16.056 24.5561 14.4731 25.8574ZM21.3954 22.8122C20.6604 21.3312 19.5094 20.0968 18.0834 19.2602C19.3016 19.0762 20.5443 19.1373 21.7385 19.4401C22.9327 19.7429 24.0545 20.2813 25.0378 21.0235C23.6803 21.2665 22.4183 21.8857 21.3954 22.8106V22.8122ZM13.0533 26.4347C11.6796 26.5516 10.3662 27.0512 9.2621 27.8768C9.39008 26.6527 9.76117 25.4666 10.3536 24.3878C10.946 23.3091 11.7479 22.3595 12.7121 21.5947C12.3529 23.2069 12.4715 24.8888 13.0533 26.4347Z" fill="white"/>
<path d="M38.3685 18.4H37.4899C37.4188 18.1255 37.309 17.8625 37.1641 17.6188L37.7843 16.9985C37.8575 16.9278 37.9159 16.8432 37.9561 16.7497C37.9963 16.6561 38.0175 16.5555 38.0183 16.4537C38.0192 16.3519 37.9998 16.251 37.9613 16.1568C37.9227 16.0625 37.8658 15.9769 37.7938 15.9049C37.7218 15.833 37.6362 15.776 37.542 15.7375C37.4478 15.6989 37.3468 15.6795 37.245 15.6804C37.1432 15.6813 37.0426 15.7025 36.9491 15.7426C36.8556 15.7828 36.771 15.8412 36.7002 15.9145L36.08 16.5347C35.8363 16.3897 35.5733 16.28 35.2988 16.2089V15.3333C35.2988 15.13 35.218 14.935 35.0742 14.7912C34.9305 14.6474 34.7354 14.5667 34.5321 14.5667C34.3288 14.5667 34.1338 14.6474 33.99 14.7912C33.8462 14.935 33.7654 15.13 33.7654 15.3333V16.2089C33.491 16.28 33.2279 16.3897 32.9842 16.5347L32.364 15.9145C32.2194 15.7748 32.0257 15.6975 31.8247 15.6993C31.6237 15.701 31.4314 15.7816 31.2893 15.9238C31.1471 16.0659 31.0665 16.2582 31.0647 16.4592C31.063 16.6603 31.1403 16.8539 31.2799 16.9985L31.9001 17.6188C31.7562 17.8626 31.6476 18.1257 31.5774 18.4H30.7018C30.4985 18.4 30.3035 18.4808 30.1597 18.6245C30.016 18.7683 29.9352 18.9633 29.9352 19.1667C29.9352 19.37 30.016 19.565 30.1597 19.7088C30.3035 19.8525 30.4985 19.9333 30.7018 19.9333H31.5774C31.6485 20.2078 31.7582 20.4708 31.9032 20.7146L31.283 21.3348C31.2098 21.4055 31.1513 21.4901 31.1112 21.5836C31.071 21.6772 31.0498 21.7778 31.049 21.8796C31.0481 21.9814 31.0675 22.0823 31.106 22.1765C31.1446 22.2708 31.2015 22.3564 31.2735 22.4284C31.3455 22.5003 31.4311 22.5573 31.5253 22.5958C31.6195 22.6344 31.7205 22.6538 31.8223 22.6529C31.9241 22.652 32.0247 22.6308 32.1182 22.5907C32.2117 22.5505 32.2963 22.4921 32.367 22.4189L32.9873 21.7986C33.231 21.9436 33.494 22.0533 33.7685 22.1245V23C33.7685 23.2033 33.8493 23.3983 33.9931 23.5421C34.1368 23.6859 34.3318 23.7667 34.5352 23.7667C34.7385 23.7667 34.9335 23.6859 35.0773 23.5421C35.2211 23.3983 35.3018 23.2033 35.3018 23V22.1245C35.5763 22.0533 35.8394 21.9436 36.0831 21.7986L36.7033 22.4189C36.774 22.4921 36.8586 22.5505 36.9522 22.5907C37.0457 22.6308 37.1463 22.652 37.2481 22.6529C37.3499 22.6538 37.4509 22.6344 37.5451 22.5958C37.6393 22.5573 37.7249 22.5003 37.7969 22.4284C37.8689 22.3564 37.9258 22.2708 37.9643 22.1765C38.0029 22.0823 38.0223 21.9814 38.0214 21.8796C38.0205 21.7778 37.9994 21.6772 37.9592 21.5836C37.919 21.4901 37.8606 21.4055 37.7874 21.3348L37.1671 20.7146C37.311 20.4707 37.4197 20.2077 37.4899 19.9333H38.3654C38.5688 19.9333 38.7638 19.8525 38.9076 19.7088C39.0513 19.565 39.1321 19.37 39.1321 19.1667C39.1321 18.9633 39.0513 18.7683 38.9076 18.6245C38.7638 18.4808 38.5688 18.4 38.3654 18.4H38.3685ZM34.5352 20.7C34.2319 20.7 33.9355 20.6101 33.6833 20.4416C33.4312 20.2731 33.2346 20.0336 33.1186 19.7534C33.0025 19.4733 32.9721 19.1649 33.0313 18.8675C33.0905 18.5701 33.2365 18.2969 33.4509 18.0824C33.6654 17.868 33.9386 17.7219 34.236 17.6628C34.5335 17.6036 34.8418 17.634 35.122 17.75C35.4021 17.8661 35.6416 18.0626 35.8101 18.3148C35.9786 18.5669 36.0685 18.8634 36.0685 19.1667C36.0685 19.5733 35.907 19.9633 35.6194 20.2509C35.3319 20.5384 34.9418 20.7 34.5352 20.7Z" fill="white"/>
</svg>
