<svg width="45" height="46" viewBox="0 0 45 46" fill="none" xmlns="http://www.w3.org/2000/svg">
<path d="M3.75 3.99388C0.292338 7.58538 1 11.4005 1 22.9909C1 32.6159 -0.679329 42.2647 8.10967 44.5362C10.8542 45.242 35.1715 45.242 37.9123 44.5325C41.5717 43.5884 44.549 40.6202 44.956 35.4447C45.0128 34.7224 45.0128 11.2722 44.9542 10.5352C44.5215 5.02238 41.128 1.84521 36.6565 1.20171C35.6317 1.05321 35.4263 1.00921 30.1683 1.00004C11.5178 1.00921 7.4295 0.178711 3.75 3.99388Z" fill="url(#paint0_linear_113_54)"/>
<path d="M22.9963 6.75494C16.3395 6.75494 10.0182 6.16277 7.60367 12.3594C6.60634 14.9188 6.75117 18.2426 6.75117 23.0019C6.75117 27.1783 6.61734 31.1034 7.60367 33.6426C10.0127 39.8429 16.3853 39.2489 22.9927 39.2489C29.3672 39.2489 35.9397 39.9126 38.3835 33.6426C39.3827 31.0576 39.236 27.7833 39.236 23.0019C39.236 16.6549 39.5862 12.5574 36.508 9.4811C33.3913 6.36444 29.1765 6.75494 22.989 6.75494H22.9963ZM21.5407 9.68277C35.4263 9.66077 37.1937 8.11711 36.2183 29.5616C35.8718 37.1461 30.0968 36.3138 22.9982 36.3138C10.0548 36.3138 9.68267 35.9434 9.68267 22.9946C9.68267 9.89544 10.7093 9.6901 21.5407 9.6791V9.68277ZM31.668 12.3796C30.5918 12.3796 29.7192 13.2523 29.7192 14.3284C29.7192 15.4046 30.5918 16.2773 31.668 16.2773C32.7442 16.2773 33.6168 15.4046 33.6168 14.3284C33.6168 13.2523 32.7442 12.3796 31.668 12.3796ZM22.9963 14.6584C18.3892 14.6584 14.6547 18.3948 14.6547 23.0019C14.6547 27.6091 18.3892 31.3436 22.9963 31.3436C27.6035 31.3436 31.3362 27.6091 31.3362 23.0019C31.3362 18.3948 27.6035 14.6584 22.9963 14.6584ZM22.9963 17.5863C30.1555 17.5863 30.1647 28.4176 22.9963 28.4176C15.839 28.4176 15.828 17.5863 22.9963 17.5863Z" fill="white"/>
<defs>
<linearGradient id="paint0_linear_113_54" x1="3.83437" y1="42.1897" x2="44.7277" y2="6.79699" gradientUnits="userSpaceOnUse">
<stop stop-color="#FFDD55"/>
<stop offset="0.5" stop-color="#FF543E"/>
<stop offset="1" stop-color="#C837AB"/>
</linearGradient>
</defs>
</svg>
