<svg width="44" height="44" viewBox="0 0 44 44" fill="none" xmlns="http://www.w3.org/2000/svg">
<path d="M38 0H6C2.68629 0 0 2.68629 0 6V38C0 41.3137 2.68629 44 6 44H38C41.3137 44 44 41.3137 44 38V6C44 2.68629 41.3137 0 38 0Z" fill="#0077B5"/>
<path d="M15.85 12C15.85 12.7417 15.6301 13.4667 15.218 14.0834C14.806 14.7001 14.2203 15.1807 13.5351 15.4645C12.8498 15.7484 12.0958 15.8226 11.3684 15.6779C10.641 15.5333 9.9728 15.1761 9.44836 14.6516C8.92391 14.1272 8.56676 13.459 8.42206 12.7316C8.27737 12.0042 8.35163 11.2502 8.63546 10.5649C8.91929 9.87971 9.39994 9.29404 10.0166 8.88199C10.6333 8.46993 11.3583 8.25 12.1 8.25C13.0946 8.25 14.0484 8.64509 14.7517 9.34835C15.4549 10.0516 15.85 11.0054 15.85 12Z" fill="white"/>
<path d="M15 18.2498V34.8173C15.0007 34.9395 14.9772 35.0607 14.9308 35.1738C14.8845 35.2869 14.8163 35.3897 14.7301 35.4764C14.6439 35.5631 14.5415 35.6318 14.4286 35.6788C14.3157 35.7257 14.1947 35.7498 14.0725 35.7498H10.12C9.99778 35.7502 9.8767 35.7263 9.76372 35.6797C9.65074 35.6331 9.54809 35.5646 9.46166 35.4782C9.37524 35.3917 9.30675 35.2891 9.26013 35.1761C9.21351 35.0631 9.18968 34.942 9.19001 34.8198V18.2498C9.19001 18.0032 9.28799 17.7666 9.4624 17.5922C9.63681 17.4178 9.87335 17.3198 10.12 17.3198H14.0725C14.3187 17.3205 14.5546 17.4188 14.7285 17.5931C14.9024 17.7674 15 18.0036 15 18.2498Z" fill="white"/>
<path d="M35.66 26.8749V34.8949C35.6603 35.0073 35.6384 35.1186 35.5956 35.2225C35.5527 35.3264 35.4898 35.4208 35.4103 35.5002C35.3308 35.5797 35.2365 35.6427 35.1326 35.6855C35.0287 35.7284 34.9174 35.7503 34.805 35.7499H30.555C30.4426 35.7503 30.3313 35.7284 30.2274 35.6855C30.1235 35.6427 30.0291 35.5797 29.9497 35.5002C29.8702 35.4208 29.8073 35.3264 29.7644 35.2225C29.7216 35.1186 29.6997 35.0073 29.7 34.8949V27.1224C29.7 25.9624 30.04 22.0424 26.6675 22.0424C24.055 22.0424 23.5225 24.7249 23.4175 25.9299V34.8949C23.4175 35.1195 23.3292 35.3351 23.1715 35.4951C23.0139 35.6551 22.7996 35.7466 22.575 35.7499H18.47C18.3578 35.7499 18.2468 35.7278 18.1432 35.6848C18.0396 35.6418 17.9455 35.5788 17.8663 35.4993C17.7871 35.4199 17.7244 35.3256 17.6817 35.2219C17.639 35.1182 17.6172 35.0071 17.6175 34.8949V18.1774C17.6172 18.0653 17.639 17.9541 17.6817 17.8504C17.7244 17.7467 17.7871 17.6524 17.8663 17.573C17.9455 17.4936 18.0396 17.4306 18.1432 17.3876C18.2468 17.3446 18.3578 17.3224 18.47 17.3224H22.575C22.8018 17.3224 23.0192 17.4125 23.1796 17.5728C23.3399 17.7332 23.43 17.9507 23.43 18.1774V19.6224C24.4 18.1674 25.8375 17.0449 28.905 17.0449C35.7 17.0449 35.66 23.3899 35.66 26.8749Z" fill="white"/>
</svg>
