<svg width="149" height="145" viewBox="0 0 149 145" fill="none" xmlns="http://www.w3.org/2000/svg">
<path d="M3.93735 140.578C3.30849 140.802 2.65563 140.952 1.99198 141.025C1.52942 141.075 1.10347 141.3 0.801926 141.654C0.500387 142.008 0.346249 142.465 0.371288 142.929C0.396326 143.394 0.598634 143.831 0.936503 144.151C1.27437 144.471 1.72205 144.649 2.18724 144.648C2.25389 144.648 2.32049 144.644 2.38674 144.637C3.33078 144.533 4.25954 144.32 5.15434 144.001C5.3791 143.921 5.58592 143.798 5.76299 143.638C5.94006 143.478 6.08391 143.285 6.18633 143.07C6.28876 142.854 6.34775 142.621 6.35993 142.383C6.37212 142.144 6.33726 141.906 6.25735 141.681C6.17744 141.457 6.05405 141.25 5.89421 141.073C5.73437 140.896 5.54122 140.752 5.32579 140.649C5.11036 140.547 4.87686 140.488 4.63863 140.476C4.4004 140.464 4.16211 140.498 3.93735 140.578V140.578Z" fill="#4E64EE"/>
<path d="M106.279 39.6425C106.679 39.6428 107.068 39.5104 107.384 39.2662L117.9 31.1832C118.092 31.039 118.254 30.8581 118.376 30.6509C118.498 30.4437 118.578 30.2143 118.61 29.9761C118.643 29.7379 118.628 29.4955 118.566 29.2631C118.505 29.0307 118.397 28.8128 118.251 28.6222C118.104 28.4316 117.921 28.2719 117.713 28.1525C117.504 28.0332 117.274 27.9564 117.035 27.9267C116.796 27.8971 116.554 27.9151 116.323 27.9797C116.091 28.0443 115.875 28.1543 115.686 28.3032L105.171 36.3862C104.87 36.6175 104.649 36.9373 104.539 37.3005C104.429 37.6638 104.436 38.0523 104.558 38.4116C104.68 38.7709 104.912 39.0828 105.221 39.3036C105.529 39.5244 105.899 39.6427 106.279 39.6425Z" fill="#4E64EE"/>
<path d="M99.4848 44.865C99.8848 44.8653 100.274 44.733 100.59 44.4887L103.012 42.6266C103.203 42.4819 103.364 42.3008 103.485 42.0938C103.606 41.8868 103.684 41.658 103.716 41.4204C103.748 41.1829 103.733 40.9413 103.671 40.7097C103.609 40.4782 103.502 40.2611 103.356 40.0711C103.21 39.8811 103.028 39.7218 102.82 39.6026C102.612 39.4833 102.382 39.4064 102.145 39.3763C101.907 39.3461 101.665 39.3633 101.434 39.4269C101.203 39.4904 100.987 39.5991 100.798 39.7466L98.3762 41.6085C98.0753 41.8397 97.8544 42.1595 97.7445 42.5227C97.6347 42.886 97.6413 43.2745 97.7636 43.6338C97.8859 43.9931 98.1176 44.305 98.4263 44.5258C98.7349 44.7466 99.105 44.8652 99.4845 44.865H99.4848Z" fill="#4E64EE"/>
<path d="M62.2124 85.578C61.7312 85.6011 61.2789 85.8143 60.955 86.1709C60.631 86.5274 60.462 86.998 60.485 87.4792C60.5231 88.273 60.5455 89.0646 60.5534 89.8317C60.558 90.3104 60.7514 90.7679 61.0916 91.1048C61.4317 91.4417 61.8911 91.6306 62.3698 91.6306H62.3874C62.8691 91.6259 63.3292 91.4302 63.6665 91.0863C64.0039 90.7424 64.1908 90.2786 64.1862 89.7969C64.1787 88.9838 64.1541 88.1455 64.1139 87.3054C64.1025 87.0671 64.0442 86.8334 63.9425 86.6177C63.8407 86.4019 63.6975 86.2083 63.5209 86.0479C63.3443 85.8875 63.1379 85.7634 62.9134 85.6828C62.6889 85.6022 62.4507 85.5666 62.2124 85.578Z" fill="#4E64EE"/>
<path d="M53.806 111.058C52.7586 112.067 51.5729 112.922 50.2846 113.597C50.0714 113.706 49.8819 113.857 49.7271 114.04C49.5723 114.223 49.4553 114.434 49.3827 114.663C49.3101 114.891 49.2834 115.132 49.3042 115.37C49.3249 115.609 49.3927 115.841 49.5036 116.054C49.6145 116.266 49.7664 116.454 49.9504 116.608C50.1344 116.761 50.347 116.877 50.5759 116.948C50.8048 117.019 51.0454 117.044 51.284 117.021C51.5226 116.999 51.7543 116.929 51.9659 116.817C53.5596 115.982 55.0264 114.925 56.3223 113.678C56.6679 113.344 56.8669 112.886 56.8758 112.405C56.8847 111.925 56.7028 111.46 56.3698 111.114C56.0368 110.767 55.58 110.566 55.0995 110.556C54.6189 110.545 54.1538 110.726 53.806 111.058Z" fill="#4E64EE"/>
<path d="M25.994 125.327C24.5279 125.679 22.9737 125.972 21.3743 126.196C21.136 126.227 20.9061 126.304 20.698 126.424C20.4899 126.545 20.3077 126.705 20.1619 126.896C20.0162 127.087 19.9098 127.305 19.8489 127.537C19.788 127.77 19.7738 128.012 19.8071 128.25C19.8405 128.488 19.9207 128.717 20.0432 128.923C20.1657 129.13 20.328 129.311 20.5206 129.454C20.7133 129.598 20.9325 129.702 21.1656 129.76C21.3988 129.818 21.6411 129.829 21.8787 129.793C23.5934 129.553 25.2632 129.239 26.8435 128.859C27.0777 128.806 27.299 128.707 27.4945 128.567C27.6901 128.428 27.856 128.251 27.9827 128.046C28.1093 127.842 28.1943 127.615 28.2325 127.378C28.2708 127.141 28.2616 126.898 28.2056 126.665C28.1495 126.431 28.0477 126.211 27.9059 126.017C27.7642 125.823 27.5854 125.659 27.3799 125.535C27.1744 125.41 26.9462 125.328 26.7087 125.292C26.4711 125.257 26.2288 125.269 25.9959 125.327H25.994Z" fill="#4E64EE"/>
<path d="M29.2386 102.361C29.6648 102.585 30.1624 102.63 30.6222 102.488C31.082 102.345 31.4664 102.025 31.6907 101.6C32.2953 100.427 33.1975 99.4331 34.307 98.7187C34.5088 98.5905 34.6834 98.4237 34.8207 98.2279C34.9579 98.0321 35.0552 97.8111 35.1068 97.5776C35.1585 97.3441 35.1635 97.1027 35.1216 96.8673C35.0798 96.6319 34.9918 96.407 34.8629 96.2056C34.7339 96.0043 34.5664 95.8304 34.3701 95.6939C34.1737 95.5574 33.9524 95.461 33.7187 95.4103C33.485 95.3595 33.2436 95.3554 33.0083 95.3982C32.773 95.441 32.5485 95.5298 32.3477 95.6596C30.7118 96.7172 29.3779 98.1806 28.476 99.9072C28.3649 100.118 28.2965 100.349 28.2747 100.587C28.2529 100.825 28.2781 101.064 28.3489 101.292C28.4198 101.52 28.5348 101.732 28.6874 101.915C28.8401 102.098 29.0274 102.25 29.2386 102.361Z" fill="#4E64EE"/>
<path d="M12.8466 134.463C12.646 134.334 12.4219 134.246 12.1872 134.204C11.9524 134.161 11.7116 134.165 11.4785 134.216C11.2453 134.266 11.0244 134.363 10.8284 134.499C10.6324 134.634 10.4651 134.808 10.336 135.008C9.55172 136.248 8.60709 137.379 7.52667 138.371C7.34843 138.531 7.20344 138.724 7.10001 138.94C6.99659 139.155 6.93677 139.389 6.92398 139.628C6.9112 139.867 6.94571 140.106 7.02553 140.331C7.10534 140.557 7.2289 140.764 7.3891 140.942C7.5493 141.119 7.743 141.264 7.95907 141.366C8.17514 141.469 8.40933 141.528 8.64821 141.539C8.88708 141.551 9.12593 141.516 9.35105 141.435C9.57617 141.354 9.78313 141.23 9.96005 141.069C11.2789 139.861 12.4324 138.485 13.3903 136.975C13.5196 136.774 13.6081 136.55 13.6508 136.315C13.6934 136.081 13.6894 135.84 13.6389 135.607C13.5884 135.373 13.4924 135.152 13.3565 134.956C13.2205 134.76 13.0473 134.593 12.8466 134.463Z" fill="#4E64EE"/>
<path d="M34.6485 122.082C33.299 122.817 31.8974 123.453 30.4551 123.983C30.2291 124.064 30.0215 124.189 29.8441 124.351C29.6668 124.513 29.5233 124.708 29.422 124.926C29.3207 125.143 29.2634 125.379 29.2537 125.619C29.2439 125.858 29.2818 126.098 29.3652 126.323C29.4485 126.548 29.5757 126.755 29.7393 126.93C29.9029 127.106 30.0997 127.247 30.3183 127.347C30.5369 127.446 30.773 127.501 31.013 127.508C31.2529 127.515 31.492 127.475 31.7163 127.389C33.3258 126.798 34.8898 126.088 36.3956 125.268C36.818 125.036 37.1311 124.646 37.266 124.184C37.4008 123.721 37.3464 123.224 37.1148 122.802C36.8831 122.379 36.4931 122.066 36.0306 121.931C35.5681 121.796 35.0709 121.851 34.6485 122.082Z" fill="#4E64EE"/>
<path d="M60.8466 102.493C60.3947 102.326 59.895 102.346 59.4575 102.548C59.02 102.749 58.6805 103.117 58.5138 103.568C57.9993 104.981 57.3447 106.339 56.5596 107.622C56.4278 107.825 56.3379 108.052 56.2951 108.29C56.2522 108.528 56.2574 108.772 56.3102 109.008C56.363 109.244 56.4624 109.467 56.6026 109.664C56.7427 109.861 56.9209 110.028 57.1265 110.156C57.3321 110.283 57.5611 110.368 57.8 110.406C58.0389 110.443 58.283 110.433 58.5178 110.375C58.7526 110.317 58.9735 110.213 59.1675 110.068C59.3615 109.924 59.5247 109.742 59.6475 109.534C60.5606 108.044 61.3223 106.467 61.921 104.826C62.0879 104.374 62.0684 103.875 61.8669 103.437C61.6654 103 61.2984 102.66 60.8466 102.493Z" fill="#4E64EE"/>
<path d="M17.1959 126.708C17.1356 126.281 16.9254 125.889 16.6029 125.603C16.2804 125.317 15.8667 125.155 15.4358 125.146C15.0048 125.137 14.5846 125.281 14.2504 125.554C13.9161 125.826 13.6896 126.208 13.6112 126.632C13.6025 126.679 13.5934 126.726 13.5846 126.773C13.2645 126.777 12.9437 126.78 12.6222 126.779C12.3876 126.779 12.1487 126.779 11.9153 126.776H11.8966C11.4148 126.773 10.9518 126.962 10.6095 127.301C10.2672 127.64 10.0735 128.101 10.0711 128.583C10.0687 129.065 10.2577 129.528 10.5967 129.87C10.9356 130.212 11.3967 130.406 11.8784 130.408C12.1115 130.411 12.3466 130.412 12.5838 130.412C12.5145 130.605 12.4426 130.797 12.3679 130.987C12.2815 131.21 12.2397 131.447 12.2449 131.685C12.2502 131.924 12.3023 132.159 12.3984 132.377C12.4945 132.596 12.6327 132.793 12.805 132.958C12.9773 133.123 13.1805 133.252 13.4028 133.338C13.6251 133.425 13.8623 133.467 14.1008 133.461C14.3393 133.456 14.5744 133.404 14.7927 133.308C15.0111 133.212 15.2083 133.074 15.3733 132.901C15.5382 132.729 15.6676 132.526 15.754 132.304C16.0089 131.648 16.2389 130.984 16.4439 130.311C16.5898 130.303 16.7354 130.295 16.8805 130.287C17.3156 130.261 17.7271 130.08 18.0398 129.777C18.3525 129.473 18.5456 129.067 18.5838 128.633C18.6221 128.199 18.5029 127.765 18.2481 127.412C17.9933 127.058 17.6199 126.808 17.1959 126.707V126.708Z" fill="#4E64EE"/>
<path d="M30.4522 111.859C30.6717 111.766 30.8706 111.63 31.0376 111.46C31.2045 111.289 31.3363 111.088 31.4254 110.867C31.5144 110.645 31.559 110.409 31.5566 110.17C31.5542 109.932 31.5048 109.696 31.4113 109.476C30.9246 108.32 30.6743 107.078 30.675 105.824C30.675 105.714 30.6769 105.605 30.6805 105.495C30.6914 105.255 30.6546 105.015 30.5723 104.79C30.49 104.564 30.3638 104.357 30.2009 104.181C30.0381 104.004 29.8419 103.862 29.6237 103.762C29.4054 103.661 29.1695 103.605 28.9295 103.597C28.6896 103.589 28.4503 103.628 28.2256 103.713C28.0009 103.797 27.7952 103.926 27.6204 104.09C27.4457 104.255 27.3053 104.453 27.2074 104.672C27.1095 104.891 27.056 105.128 27.0501 105.368C27.0451 105.519 27.0424 105.671 27.0422 105.824C27.0423 107.567 27.3914 109.293 28.0691 110.9C28.1626 111.12 28.2984 111.319 28.4687 111.486C28.6391 111.653 28.8407 111.784 29.062 111.873C29.2833 111.962 29.5199 112.007 29.7585 112.005C29.997 112.002 30.2328 111.953 30.4522 111.859Z" fill="#4E64EE"/>
<path d="M31.2178 112.905C30.908 113.274 30.7575 113.751 30.7994 114.231C30.8412 114.711 31.072 115.154 31.4409 115.464C32.6443 116.466 34.0205 117.24 35.5018 117.748C35.7914 117.848 36.084 117.944 36.3797 118.033C36.6084 118.104 36.8488 118.129 37.0871 118.106C37.3254 118.084 37.557 118.014 37.7685 117.902C37.98 117.79 38.1672 117.637 38.3194 117.452C38.4715 117.268 38.5857 117.055 38.6553 116.826C38.7248 116.596 38.7484 116.356 38.7247 116.118C38.701 115.879 38.6304 115.648 38.517 115.437C38.4037 115.227 38.2497 115.04 38.0641 114.889C37.8784 114.738 37.6648 114.625 37.4353 114.557C37.1868 114.481 36.94 114.401 36.6973 114.316C35.6328 113.954 34.6435 113.4 33.778 112.682C33.5953 112.528 33.3841 112.412 33.1565 112.34C32.9289 112.268 32.6893 112.242 32.4516 112.263C32.2138 112.283 31.9825 112.351 31.7708 112.461C31.559 112.571 31.3711 112.722 31.2178 112.905Z" fill="#4E64EE"/>
<path d="M62.351 92.877C61.871 92.8382 61.3953 92.9915 61.0281 93.303C60.661 93.6146 60.4324 94.0591 60.3926 94.539C60.2691 96.0874 60.055 97.6272 59.7514 99.1506C59.7041 99.3844 59.7033 99.6252 59.749 99.8593C59.7948 100.093 59.8862 100.316 60.0181 100.515C60.1499 100.714 60.3196 100.885 60.5175 101.018C60.7154 101.151 60.9376 101.244 61.1714 101.291C61.4052 101.339 61.6461 101.339 61.8802 101.294C62.1143 101.248 62.3371 101.157 62.5359 101.025C62.7347 100.893 62.9056 100.723 63.0388 100.525C63.172 100.327 63.2649 100.105 63.3122 99.8714C63.6438 98.2081 63.8779 96.5269 64.0133 94.8363C64.0329 94.5985 64.0054 94.3592 63.9325 94.132C63.8595 93.9048 63.7425 93.6942 63.5881 93.5122C63.4337 93.3303 63.245 93.1805 63.0328 93.0715C62.8205 92.9625 62.5888 92.8964 62.351 92.877Z" fill="#4E64EE"/>
<path d="M48.0523 107.254C47.5903 107.118 47.093 107.17 46.6699 107.401C46.2468 107.631 45.9324 108.02 45.796 108.482C45.7763 108.548 45.756 108.615 45.7354 108.683C45.3115 110.055 44.765 111.386 44.1025 112.66C43.9918 112.871 43.9239 113.102 43.9026 113.34C43.8813 113.578 43.907 113.817 43.9783 114.045C44.0496 114.273 44.1651 114.484 44.3181 114.667C44.4711 114.85 44.6588 115.001 44.8702 115.112C44.9514 115.155 45.0358 115.191 45.1227 115.22C44.0215 115.367 42.9088 115.407 41.7999 115.342C41.4734 115.322 41.1479 115.392 40.8576 115.542C40.5673 115.693 40.3231 115.919 40.1506 116.197C39.9782 116.475 39.8839 116.794 39.8779 117.121C39.8718 117.448 39.9541 117.771 40.1161 118.055C39.5831 118.581 39.0208 119.084 38.4292 119.563C38.2417 119.712 38.0855 119.897 37.9697 120.107C37.8539 120.317 37.7809 120.547 37.7547 120.786C37.7286 121.024 37.7499 121.265 37.8174 121.495C37.8849 121.725 37.9972 121.94 38.148 122.126C38.2988 122.313 38.4849 122.467 38.6958 122.581C38.9066 122.695 39.138 122.767 39.3765 122.791C39.615 122.815 39.856 122.792 40.0855 122.723C40.315 122.653 40.5285 122.539 40.7137 122.387C41.9897 121.358 43.1655 120.21 44.2254 118.959C45.1255 118.9 46.0207 118.781 46.9049 118.603C47.3318 118.517 47.7136 118.28 47.9806 117.936C48.2477 117.592 48.3823 117.164 48.3599 116.729C48.3374 116.294 48.1595 115.882 47.8585 115.567C47.5575 115.252 47.1534 115.056 46.7199 115.014C46.9741 114.845 47.1813 114.615 47.3224 114.344C48.0859 112.877 48.7159 111.343 49.2048 109.763C49.2311 109.679 49.2568 109.594 49.2814 109.511C49.349 109.282 49.3708 109.042 49.3456 108.805C49.3204 108.567 49.2487 108.337 49.1345 108.128C49.0204 107.918 48.866 107.733 48.6803 107.583C48.4946 107.433 48.2812 107.321 48.0523 107.254Z" fill="#4E64EE"/>
<path d="M7.30209 114.715C8.15944 114.589 9.03424 114.663 9.85838 114.931C10.1925 115.026 10.515 115.158 10.8202 115.324C11.0293 115.439 11.259 115.511 11.4962 115.537C11.7333 115.563 11.9732 115.542 12.2022 115.475C12.4312 115.409 12.6448 115.297 12.8309 115.148C13.0169 114.999 13.1717 114.814 13.2864 114.605C13.4011 114.396 13.4735 114.166 13.4994 113.929C13.5254 113.692 13.5044 113.452 13.4376 113.223C13.3708 112.994 13.2596 112.78 13.1102 112.594C12.9609 112.408 12.7764 112.254 12.5672 112.139C12.0276 111.844 11.4571 111.61 10.8662 111.44C9.50016 111.013 8.0533 110.911 6.64092 111.142C6.16721 111.23 5.74773 111.502 5.47476 111.899C5.20179 112.296 5.0977 112.785 5.18537 113.259C5.27305 113.733 5.54532 114.152 5.94228 114.425C6.33924 114.698 6.82838 114.802 7.30209 114.714V114.715Z" fill="#4E64EE"/>
<path d="M41.9128 98.3253C42.1302 98.4234 42.3648 98.4778 42.6032 98.4853C42.8417 98.4928 43.0793 98.4532 43.3024 98.3689C43.5256 98.2845 43.7299 98.1571 43.9038 97.9938C44.0777 97.8305 44.2177 97.6345 44.3159 97.4171C44.414 97.1996 44.4684 96.965 44.4759 96.7266C44.4834 96.4881 44.4438 96.2506 44.3595 96.0274C44.2751 95.8043 44.1477 95.5999 43.9844 95.426C43.821 95.2521 43.6251 95.1121 43.4077 95.014C41.6629 94.2267 39.7607 93.8506 37.8476 93.9144C37.3663 93.9334 36.9121 94.1429 36.5852 94.4967C36.2582 94.8505 36.0852 95.3197 36.1042 95.8011C36.1232 96.2825 36.3326 96.7366 36.6864 97.0635C37.0403 97.3905 37.5095 97.5635 37.9908 97.5445C39.3408 97.5001 40.6828 97.7673 41.9128 98.3253Z" fill="#4E64EE"/>
<path d="M8.78645 128.608C8.87782 128.388 8.92488 128.151 8.92494 127.913C8.925 127.674 8.87807 127.438 8.78681 127.218C8.69556 126.997 8.56178 126.797 8.39311 126.628C8.22443 126.459 8.02418 126.326 7.80377 126.234C6.61546 125.738 5.59514 124.911 4.86483 123.85C4.72886 123.654 4.55563 123.487 4.35501 123.358C4.15439 123.229 3.93032 123.141 3.69559 123.098C3.46086 123.056 3.22006 123.06 2.98695 123.11C2.75385 123.161 2.53299 123.257 2.337 123.393C2.141 123.529 1.9737 123.702 1.84466 123.903C1.71561 124.103 1.62735 124.328 1.5849 124.562C1.54245 124.797 1.54665 125.038 1.59726 125.271C1.64787 125.504 1.7439 125.725 1.87987 125.921C3.00695 127.554 4.58078 128.828 6.41301 129.59C6.63333 129.682 6.86954 129.729 7.10813 129.729C7.34673 129.729 7.58301 129.683 7.80347 129.591C8.02392 129.5 8.22422 129.366 8.39289 129.198C8.56156 129.029 8.6953 128.828 8.78645 128.608Z" fill="#4E64EE"/>
<path d="M1.84678 122.142H1.9046C2.14304 122.134 2.37768 122.08 2.59512 121.982C2.81256 121.884 3.00854 121.744 3.17187 121.57C3.3352 121.396 3.46268 121.192 3.54704 120.968C3.63139 120.745 3.67096 120.508 3.66349 120.269C3.66147 120.203 3.66036 120.137 3.66016 120.071C3.65926 118.867 4.00914 117.689 4.66705 116.68C4.79568 116.479 4.88348 116.255 4.92543 116.02C4.96739 115.785 4.96268 115.545 4.91157 115.312C4.86047 115.079 4.76396 114.858 4.62757 114.662C4.49119 114.467 4.31758 114.3 4.11668 114.171C3.91577 114.042 3.6915 113.955 3.45666 113.913C3.22183 113.871 2.98103 113.875 2.74801 113.926C2.515 113.978 2.29433 114.074 2.09861 114.21C1.90288 114.347 1.73594 114.52 1.60731 114.721C0.579572 116.316 0.0312038 118.173 0.0273438 120.07C0.0273438 120.174 0.0290593 120.278 0.0324903 120.382C0.0471923 120.853 0.244745 121.301 0.58335 121.629C0.921956 121.958 1.37505 122.141 1.84678 122.142Z" fill="#4E64EE"/>
<path d="M48.0968 105.999C48.1507 105.999 48.2051 105.997 48.2599 105.992C48.4975 105.971 48.7286 105.903 48.9401 105.793C49.1515 105.682 49.3391 105.531 49.4921 105.348C49.6451 105.165 49.7606 104.954 49.832 104.726C49.9034 104.499 49.9292 104.259 49.908 104.022C49.753 102.062 49.0572 100.183 47.8982 98.5951C47.757 98.4028 47.5794 98.2401 47.3754 98.1164C47.1714 97.9928 46.9451 97.9105 46.7093 97.8743C46.4735 97.8381 46.2329 97.8487 46.0012 97.9055C45.7695 97.9623 45.5513 98.0642 45.359 98.2053C45.1667 98.3464 45.004 98.5241 44.8804 98.7281C44.7567 98.932 44.6744 99.1584 44.6382 99.3942C44.602 99.6299 44.6126 99.8706 44.6694 100.102C44.7262 100.334 44.8281 100.552 44.9692 100.744C45.7338 101.799 46.1909 103.045 46.2894 104.344C46.3297 104.796 46.5375 105.216 46.8719 105.522C47.2064 105.828 47.6433 105.999 48.0968 105.999Z" fill="#4E64EE"/>
<path d="M13.1331 118.069C13.6528 119.38 13.9332 120.773 13.9607 122.184C13.9793 122.652 14.1785 123.096 14.5166 123.421C14.8546 123.746 15.3054 123.928 15.7744 123.928H15.848C16.3293 123.909 16.7833 123.699 17.1102 123.345C17.437 122.992 17.6099 122.522 17.5908 122.041C17.5471 120.192 17.1701 118.367 16.478 116.652C16.3872 116.43 16.253 116.227 16.0832 116.056C15.9135 115.886 15.7116 115.751 15.4892 115.659C15.2668 115.567 15.0284 115.52 14.7877 115.522C14.5471 115.523 14.3091 115.571 14.0876 115.665C13.866 115.759 13.6653 115.896 13.4971 116.068C13.3289 116.24 13.1965 116.444 13.1077 116.667C13.0189 116.891 12.9754 117.13 12.9798 117.371C12.9841 117.611 13.0362 117.848 13.1331 118.069Z" fill="#4E64EE"/>
<path d="M145.115 0.400591L41.283 18.1935C39.9844 18.3914 38.7732 18.9684 37.8012 19.852C36.8293 20.7356 36.1399 21.8866 35.8195 23.1605C35.4942 24.4786 35.5648 25.8633 36.0225 27.1415C36.4802 28.4197 37.3047 29.5345 38.3928 30.3465L51.5717 40.3697C51.8435 40.5759 52.1355 40.7539 52.4433 40.901L53.6515 47.0768C53.7002 47.3257 53.8005 47.5617 53.9459 47.7695C54.0914 47.9773 54.2787 48.1524 54.4959 48.2834C54.7131 48.4144 54.9554 48.4985 55.207 48.5302C55.4587 48.5619 55.7142 48.5406 55.9571 48.4675C56.3889 48.3378 56.7569 48.0521 56.9898 47.666C57.2226 47.2799 57.3035 46.8211 57.2168 46.3787L56.1966 41.1653C56.3128 41.1284 56.4282 41.0881 56.542 41.0424L131.323 11.0559L76.8222 47.3795C76.7777 47.4119 76.7314 47.4449 76.6887 47.4776C76.0758 47.9784 75.5894 48.6165 75.2691 49.3403C75.2558 49.3706 75.2471 49.4009 75.2346 49.4311H75.2322L63.7226 79.6204L60.2541 61.9044C60.1554 61.438 59.8772 61.0291 59.4796 60.7659C59.082 60.5028 58.5969 60.4066 58.1289 60.4979C57.661 60.5893 57.2478 60.8611 56.9784 61.2545C56.709 61.6478 56.6051 62.1314 56.6891 62.6007L60.2868 80.9873C60.405 81.5982 60.6859 82.1658 61.0998 82.6304C61.5137 83.0949 62.0453 83.4392 62.6386 83.6269C63.2318 83.8145 63.8647 83.8386 64.4705 83.6966C65.0763 83.5546 65.6325 83.2518 66.0806 82.82L99.6487 63.8365L106.945 66.4914C107.997 66.8968 109.114 67.1088 110.242 67.1172C111.587 67.1296 112.911 66.781 114.075 66.1076C115.24 65.4342 116.202 64.4608 116.862 63.2888C116.872 63.2722 116.882 63.2549 116.892 63.2377L148.673 4.98793C148.726 4.89262 148.769 4.79282 148.803 4.68973C148.982 4.1491 149.018 3.57138 148.907 3.01276C148.797 2.45414 148.543 1.93364 148.172 1.50187C147.801 1.0701 147.324 0.741756 146.788 0.548776C146.253 0.355797 145.676 0.304747 145.115 0.400591ZM55.1897 37.6699C54.9566 37.7628 54.7035 37.7939 54.4549 37.7603C54.2063 37.7266 53.9705 37.6294 53.7705 37.478L40.4677 27.3624C39.9787 26.9909 39.6099 26.4837 39.407 25.9041C39.2041 25.3244 39.1762 24.6979 39.3268 24.1025C39.4774 23.5072 39.7998 22.9692 40.2538 22.5557C40.7078 22.1422 41.2735 21.8714 41.8803 21.777L134.338 5.93306L55.1897 37.6699ZM68.5024 77.2773L76.8794 55.3066C77.2846 55.6144 77.7336 55.8599 78.2114 56.035L95.1579 62.2026L68.5024 77.2773ZM113.717 61.47C112.593 63.3575 110.542 63.9639 108.205 63.0845L79.4545 52.6214C79.2633 52.5516 79.0885 52.4434 78.9408 52.3035C78.7931 52.1636 78.6756 51.995 78.5956 51.8079C78.4806 51.543 78.4593 51.2468 78.5351 50.9681L78.5998 50.7986C78.6788 50.6246 78.792 50.4684 78.9328 50.3394L143.139 7.54694L113.717 61.47Z" fill="#4E64EE"/>
</svg>
