<svg width="1093" height="747" viewBox="0 0 1093 747" fill="none" xmlns="http://www.w3.org/2000/svg">
<path d="M33.9563 354.581C46.706 367.306 64.9486 371.285 81.1359 366.523C84.0306 371.871 86.9989 377.203 90.0674 382.424C93.2298 387.805 100.159 389.605 105.549 386.451C110.938 383.297 112.745 376.38 109.583 371C106.52 365.789 103.561 360.463 100.681 355.124C100.871 354.941 101.066 354.768 101.254 354.58C119.808 336.063 119.808 305.935 101.254 287.418C82.6995 268.9 52.5103 268.901 33.9563 287.419C15.4022 305.936 15.4022 336.064 33.9563 354.581ZM85.255 303.384C94.9875 313.097 94.9875 328.9 85.255 338.613C75.5226 348.327 59.6872 348.328 49.9548 338.614C40.2224 328.901 40.2224 313.098 49.9548 303.385C59.6872 293.672 75.5226 293.671 85.255 303.384Z" fill="#4E64EE"/>
<path d="M165.22 481.199C170.899 487.072 176.795 492.896 182.744 498.507C187.285 502.79 194.445 502.587 198.736 498.056C202.953 493.602 202.83 486.627 198.517 482.322C198.441 482.246 198.363 482.17 198.284 482.095C192.586 476.722 186.938 471.145 181.5 465.52C181.452 465.472 181.405 465.423 181.356 465.374C177.004 461.031 169.95 460.954 165.504 465.236C161.008 469.563 160.881 476.711 165.22 481.199Z" fill="#4E64EE"/>
<path d="M220.588 530.962C227.033 535.981 233.689 540.919 240.371 545.636C245.473 549.237 252.532 548.028 256.141 542.937C259.37 538.381 258.74 532.26 254.915 528.443C254.466 527.994 253.972 527.578 253.438 527.2C247.044 522.686 240.674 517.964 234.507 513.161C229.582 509.325 222.473 510.201 218.629 515.117C214.786 520.032 215.659 527.131 220.588 530.962Z" fill="#4E64EE"/>
<path d="M117.361 424.155C122.155 430.771 127.175 437.367 132.284 443.76C136.169 448.625 143.298 449.436 148.182 445.547C153.066 441.66 153.868 434.556 149.972 429.682C145.085 423.565 140.281 417.255 135.696 410.925C135.335 410.428 134.941 409.967 134.52 409.546C130.661 405.695 124.463 405.098 119.9 408.392C114.836 412.045 113.699 419.102 117.361 424.155Z" fill="#4E64EE"/>
<path d="M420.727 627.025C428.68 628.92 436.792 630.652 444.838 632.177C450.976 633.338 456.897 629.315 458.062 623.19C458.787 619.376 457.498 615.646 454.941 613.093C453.39 611.546 451.374 610.43 449.057 609.991C441.357 608.533 433.594 606.875 425.983 605.061C419.906 603.613 413.803 607.356 412.352 613.421C410.9 619.486 414.649 625.576 420.727 627.025Z" fill="#4E64EE"/>
<path d="M282.46 572.423C289.562 576.479 296.857 580.42 304.146 584.137C309.709 586.975 316.524 584.773 319.367 579.22C321.656 574.749 320.671 569.469 317.296 566.1C316.48 565.285 315.524 564.583 314.44 564.029C307.469 560.474 300.491 556.705 293.699 552.826C288.276 549.728 281.365 551.606 278.261 557.018C275.158 562.429 277.039 569.325 282.46 572.423Z" fill="#4E64EE"/>
<path d="M349.637 604.657C357.241 607.66 365.026 610.522 372.775 613.167C378.687 615.184 385.118 612.036 387.14 606.137C388.584 601.922 387.387 597.445 384.431 594.494C383.249 593.315 381.785 592.379 380.095 591.802C372.681 589.272 365.235 586.534 357.96 583.661C352.15 581.367 345.577 584.208 343.278 590.006C340.983 595.803 343.828 602.363 349.637 604.657Z" fill="#4E64EE"/>
<path d="M680.134 600.198C674.116 601.876 670.6 608.104 672.28 614.108C673.962 620.115 680.2 623.625 686.218 621.947C773.492 597.63 853.729 550.739 918.25 486.346C954.285 450.383 984.765 409.808 1008.96 365.633C1025.78 371.695 1045.36 368.016 1058.83 354.581C1077.38 336.064 1077.38 305.935 1058.83 287.418C1040.27 268.901 1010.08 268.901 991.53 287.418C973.484 305.429 972.995 334.42 990.054 353.031C966.744 396.004 937.241 435.459 902.251 470.38C840.475 532.033 763.667 576.923 680.134 600.198ZM1007.53 303.384C1017.26 293.671 1033.09 293.671 1042.83 303.384C1052.56 313.097 1052.56 328.901 1042.83 338.614C1033.1 348.327 1017.26 348.327 1007.53 338.614C997.796 328.901 997.795 313.097 1007.53 303.384Z" fill="#4E64EE"/>
<path d="M484.511 628.435C484.842 634.662 490.167 639.442 496.406 639.114L526.233 637.54L562.067 690.581C564.289 693.866 568.075 695.753 572.043 695.543L596.192 694.269C599.576 694.089 602.702 692.406 604.709 689.681C606.718 686.955 607.394 683.477 606.554 680.199L594.705 633.928L622.24 632.475L632.139 649.871C635.223 655.29 642.131 657.192 647.563 654.113C652.995 651.033 654.899 644.141 651.813 638.72L641.255 620.165L649.794 600.603C651.707 596.223 650.614 591.292 647.422 588.106C646.448 587.134 645.279 586.325 643.941 585.743C638.212 583.253 631.547 585.869 629.052 591.585L621.046 609.925L593.51 611.378L600.406 564.118C600.893 560.77 599.852 557.381 597.569 554.882C597.451 554.755 597.332 554.629 597.209 554.507C594.947 552.249 591.824 551.046 588.614 551.216L564.465 552.491C560.497 552.7 556.93 554.972 555.068 558.476L525.038 614.992L495.211 616.566C488.972 616.894 484.182 622.209 484.511 628.435ZM577.244 672.658L552.58 636.15L571.663 635.143L581.217 672.448L577.244 672.658ZM572.056 574.702L576.028 574.494L570.47 612.596L551.387 613.603L572.056 574.702Z" fill="#4E64EE"/>
</svg>
