<svg width="97" height="110" viewBox="0 0 97 110" fill="none" xmlns="http://www.w3.org/2000/svg">
<path d="M89.0466 72.1184C102.637 51.8195 96.5973 23.5931 75.3851 8.89848C53.975 -5.9333 25.0921 -1.45113 11.0028 18.8874C10.9705 18.934 10.985 18.9958 10.9528 19.0424C10.7501 19.3847 10.6122 19.7661 10.6046 20.1919C10.6028 20.2194 10.5867 20.2427 10.5888 20.2727C10.5899 20.2792 10.5845 20.287 10.5859 20.2936L12.0983 79.9819L11.8808 79.8312C10.8091 79.0888 9.33674 79.3561 8.59435 80.4277L0.524828 92.0764C-0.217569 93.148 0.049698 94.6204 1.12137 95.3628L20.536 108.812C21.6077 109.555 23.08 109.287 23.8224 108.216L31.892 96.567C32.6343 95.4954 32.3671 94.023 31.2954 93.2806L31.0779 93.1299L87.0721 73.7159C87.7183 73.6292 88.3451 73.3049 88.7378 72.7379C88.8725 72.5438 88.977 72.3347 89.0466 72.1184ZM15.3537 22.1541C20.1423 21.1561 24.6936 21.8438 28.2971 24.3401C32.2227 27.0595 34.6047 31.5425 35.1054 36.9747L17.2164 83.5271L16.9057 83.3119L15.3537 22.1541ZM39.2589 39.3236C44.2979 38.0966 49.1093 38.7577 52.8873 41.3748C56.6653 43.992 58.9752 48.2642 59.5974 53.413L21.9689 86.8197L21.2079 86.2925L39.2589 39.3236ZM21.2844 103.584L5.75297 92.8249L11.1327 85.0591L26.6641 95.8184L21.2844 103.584ZM26.2749 89.8026L25.9604 89.5847L63.256 56.4762C68.5175 55.0357 73.5518 55.6903 77.4812 58.4124C81.0807 60.9059 83.327 64.9215 84.0726 69.7591L26.2749 89.8026ZM64.1459 51.3923C63.1096 45.5143 60.1277 40.6444 55.5769 37.4919C51.0261 34.3394 45.4191 33.2594 39.5543 34.351C38.5153 28.4768 35.5373 23.6096 30.9867 20.4571C27.4106 17.9798 23.1841 16.7815 18.6993 16.9099C32.2151 2.79935 55.2029 0.663523 72.6953 12.7813C90.1877 24.8991 96.267 47.171 87.8041 64.7875C84.4884 55.124 74.6134 49.4381 64.1459 51.3923Z" fill="white"/>
</svg>
