<svg width="158" height="161" viewBox="0 0 158 161" fill="none" xmlns="http://www.w3.org/2000/svg">
<path d="M155.177 0H19.8591C19.1408 0 18.4343 0.284395 17.9732 0.834725C16.9651 2.03769 17.4138 3.75439 18.6527 4.42142L50.2146 21.4163C50.2177 21.4178 50.2199 21.421 50.2205 21.4247L57.5691 70.4135C57.8322 72.1108 59.8477 72.9809 61.2559 71.9813L92.0798 50.0801C92.0832 50.0776 92.0879 50.0773 92.092 50.0795L113.935 62.0932C114.977 62.6657 116.32 62.351 116.998 61.3755L139.966 28.36C140.707 27.2941 140.444 25.8286 139.378 25.0871C138.312 24.3453 136.847 24.6088 136.105 25.6747L114.353 56.9447C114.349 56.9494 114.343 56.9509 114.338 56.9481L70.7764 32.9895C70.7677 32.9848 70.7689 32.972 70.7783 32.9685L149.189 6.83173C149.199 6.82829 149.208 6.84018 149.201 6.84894L142.701 16.1933C141.961 17.2558 142.134 18.7557 143.177 19.5209C144.248 20.3056 145.746 20.0503 146.499 18.9684L157.125 3.69369C157.191 3.59764 157.252 3.49346 157.303 3.38802C158.067 1.83871 156.89 0 155.177 0ZM87.4935 47.5502C87.5007 47.5543 87.5013 47.5649 87.4944 47.5696L62.9601 65.0016C62.952 65.0072 62.941 65.0006 62.9423 64.9906L66.784 36.1779C66.7849 36.1701 66.7936 36.1657 66.8008 36.1694L87.4935 47.5502ZM125.142 9.89062L64.1662 30.2156C63.3255 30.4972 62.6964 31.2556 62.579 32.1354L59.7673 53.2222C59.7654 53.2353 59.7467 53.2353 59.7448 53.2225L55.0387 21.8474C55.0377 21.8411 55.0418 21.8355 55.048 21.8346L125.136 9.86841C125.15 9.8659 125.155 9.88593 125.142 9.89062ZM127.32 4.7249L52.776 17.452C52.7735 17.4523 52.771 17.452 52.7688 17.4507L29.1328 4.72396C29.1224 4.71833 29.1262 4.70237 29.1381 4.70237H127.318C127.332 4.70237 127.334 4.72271 127.32 4.7249Z" fill="white"/>
<path d="M42.2053 94.0974C41.5458 94.1071 40.8741 94.134 40.2092 94.1772C38.9133 94.2611 37.9309 95.3792 38.0145 96.6751C38.0946 97.9194 39.1292 98.8749 40.3585 98.8749C40.4095 98.8749 40.4608 98.8733 40.5124 98.8699C41.1003 98.832 41.6935 98.8082 42.2757 98.7995C43.5741 98.7801 44.6109 97.7116 44.5915 96.4136C44.5721 95.1155 43.4974 94.0708 42.2053 94.0974Z" fill="white"/>
<path d="M53.7597 95.755C52.5405 95.3592 51.2599 95.0288 49.954 94.7729C48.6807 94.5223 47.4445 95.3532 47.1946 96.6278C46.9446 97.9018 47.7752 99.1377 49.0495 99.3876C50.1712 99.6076 51.2678 99.8904 52.3083 100.228C53.5279 100.623 54.8748 99.9361 55.2706 98.7175C55.671 97.482 54.9943 96.1557 53.7597 95.755Z" fill="white"/>
<path d="M29.2798 117.515C29.0961 116.443 28.9897 115.338 28.9641 114.229C28.9341 112.931 27.854 111.904 26.5591 111.933C25.261 111.963 24.2329 113.04 24.263 114.338C24.2939 115.676 24.4225 117.012 24.645 118.31C24.8612 119.572 26.0964 120.447 27.3594 120.23C28.6396 120.011 29.4991 118.795 29.2798 117.515Z" fill="white"/>
<path d="M40.7501 132.036C39.7564 131.683 38.7897 131.228 37.877 130.681C36.7626 130.014 35.3191 130.377 34.6517 131.491C33.985 132.605 34.3473 134.049 35.4614 134.716C36.6412 135.422 37.8911 136.011 39.1783 136.468C40.451 136.919 41.877 136.171 42.2324 134.87C42.5528 133.699 41.8939 132.441 40.7501 132.036Z" fill="white"/>
<path d="M43.8025 85.0116C42.9953 83.9945 41.516 83.8246 40.4992 84.6315C39.5015 85.4231 38.5232 86.2643 37.5921 87.1325C36.6419 88.0176 36.5893 89.5053 37.4741 90.4555C38.3467 91.3925 39.8594 91.4463 40.7968 90.5731C41.6377 89.7897 42.5213 89.0298 43.4223 88.3152C44.4395 87.5077 44.6096 86.0291 43.8025 85.0116Z" fill="white"/>
<path d="M33.1181 126.426C32.4649 125.581 31.8748 124.664 31.3645 123.699C30.7572 122.552 29.334 122.114 28.1867 122.721C27.0391 123.329 26.6011 124.751 27.2084 125.899C27.8441 127.101 28.5813 128.246 29.3985 129.303C30.2438 130.396 31.9008 130.514 32.895 129.553C33.7445 128.731 33.8408 127.36 33.1181 126.426Z" fill="white"/>
<path d="M29.5915 101.45C28.3969 100.941 27.0159 101.497 26.5069 102.691C25.9456 104.008 25.487 105.304 25.1794 106.438C24.8397 107.691 25.5802 108.983 26.8332 109.323C27.0388 109.378 27.2459 109.405 27.4496 109.405C28.4852 109.405 29.4338 108.716 29.7172 107.669C29.8931 107.021 30.2291 105.951 30.8326 104.534C31.3419 103.34 30.7863 101.959 29.5915 101.45Z" fill="white"/>
<path d="M35.7136 92.3762C34.6889 91.5774 33.2119 91.7605 32.4138 92.7848C31.6272 93.7935 30.8742 94.8434 30.1765 95.9053C29.4628 96.9903 29.7641 98.4483 30.8491 99.1616C31.9204 99.8662 33.4015 99.5589 34.1054 98.4889C34.7343 97.5325 35.4129 96.5861 36.1222 95.6766C36.9206 94.6523 36.7376 93.1746 35.7136 92.3762Z" fill="white"/>
<path d="M64.0364 101.922C63.1131 100.964 62.0647 100.07 60.9202 99.2664C59.858 98.5196 58.3916 98.7758 57.6448 99.8386C56.8983 100.901 57.1546 102.368 58.2171 103.114C59.1162 103.746 59.9347 104.442 60.6496 105.185C61.5387 106.107 63.0511 106.136 63.9741 105.247C64.9092 104.346 64.9371 102.857 64.0364 101.922Z" fill="white"/>
<path d="M53.0536 134.317C52.7814 133.047 51.5325 132.239 50.2619 132.511C49.282 132.721 48.2555 132.86 47.2077 132.924L47.025 132.935C45.7282 132.999 44.7289 134.103 44.7934 135.4C44.8556 136.657 45.8946 137.634 47.1395 137.634C47.1786 137.634 47.2187 137.633 47.2581 137.631L47.4978 137.618C48.7768 137.54 50.0382 137.369 51.2478 137.11C52.5174 136.837 53.3258 135.587 53.0536 134.317Z" fill="white"/>
<path d="M69.0869 113.15C68.9752 111.725 68.7146 110.347 68.312 109.054C67.9256 107.814 66.6068 107.122 65.3676 107.509C64.1277 107.895 63.4363 109.214 63.8223 110.453C64.1208 111.411 64.3145 112.441 64.3986 113.516C64.4984 114.794 65.6485 115.777 66.926 115.677C68.2031 115.577 69.1867 114.427 69.0869 113.15Z" fill="white"/>
<path d="M66.6119 118.295C65.3661 117.928 64.0589 118.639 63.6907 119.884C63.3844 120.921 62.987 121.939 62.5102 122.908C61.9367 124.073 62.4167 125.483 63.5821 126.056C64.7322 126.622 66.1642 126.133 66.7295 124.984C67.324 123.776 67.8189 122.508 68.2006 121.216C68.5686 119.971 67.8571 118.663 66.6119 118.295Z" fill="white"/>
<path d="M53.3781 79.7282C52.8258 78.5525 51.4255 78.0475 50.2503 78.5997C49.0962 79.1416 47.9523 79.7323 46.8514 80.3552C45.9722 80.8524 45.5013 81.8889 45.7063 82.8782C45.9297 83.9582 46.9086 84.7535 48.0112 84.7535C48.4035 84.7535 48.8008 84.6553 49.1666 84.4484C50.1649 83.8837 51.2024 83.3478 52.2495 82.856C53.425 82.3038 53.9303 80.9034 53.3781 79.7282Z" fill="white"/>
<path d="M62.0362 128.187C61.1417 127.245 59.654 127.206 58.7123 128.1C57.9351 128.839 57.0876 129.505 56.1928 130.083C55.1018 130.788 54.7886 132.243 55.4929 133.334C56.1872 134.41 57.6667 134.729 58.7436 134.034C59.883 133.298 60.9621 132.449 61.9505 131.51C62.8919 130.616 62.9303 129.128 62.0362 128.187Z" fill="white"/>
<path d="M62.1654 76.9811C61.8303 75.7272 60.5413 74.9826 59.287 75.3167C58.6528 75.4863 58.0177 75.6677 57.3995 75.8558C56.2215 76.2149 55.5095 77.467 55.8014 78.6631C56.1174 79.9574 57.4959 80.7418 58.7708 80.3538C59.3371 80.1811 59.9187 80.015 60.5006 79.8595C61.7546 79.5244 62.5001 78.2357 62.1654 76.9811Z" fill="white"/>
<path d="M9.31709 156.763C9.04427 156.235 8.77958 155.696 8.5296 155.16C7.98115 153.983 6.58202 153.474 5.40533 154.022C4.22864 154.571 3.71898 155.969 4.26775 157.146C4.54432 157.74 4.83717 158.336 5.13845 158.92C5.72602 160.058 7.16614 160.519 8.30591 159.931C9.45975 159.336 9.91247 157.918 9.31709 156.763Z" fill="white"/>
<path d="M6.19719 148.92C5.89433 147.853 5.63372 146.766 5.42347 145.688C5.17474 144.414 3.9408 143.583 2.66525 143.831C1.39095 144.08 0.559664 145.315 0.808392 146.589C1.04367 147.796 1.33494 149.012 1.67378 150.205C2.02356 151.437 3.34511 152.175 4.5778 151.824C5.82738 151.469 6.55229 150.169 6.19719 148.92Z" fill="white"/>
<path d="M2.5852 133.279C1.29181 133.199 0.172064 134.18 0.0891548 135.476C0.0303361 136.397 0.000301053 137.332 0.000301053 138.254C0.000301053 139.099 -0.0303597 139.922 0.527167 140.616C0.979883 141.179 1.68665 141.514 2.41156 141.495C3.13052 141.48 3.81382 141.127 4.24432 140.552C4.76587 139.854 4.70267 139.079 4.70267 138.253C4.70267 137.431 4.72926 136.598 4.78183 135.775C4.86473 134.479 3.88108 133.362 2.5852 133.279Z" fill="white"/>
<path d="M5.13885 123.04C3.90178 122.64 2.57804 123.32 2.17914 124.555C1.79964 125.731 1.46424 126.934 1.18329 128.13C0.885755 129.394 1.6698 130.66 2.93377 130.957C4.18117 131.25 5.46736 130.453 5.76051 129.206C6.013 128.134 6.31366 127.055 6.65406 126C7.05265 124.764 6.37467 123.438 5.13885 123.04Z" fill="white"/>
<path d="M17.1294 105.87C16.2325 104.931 14.7451 104.895 13.8049 105.792C13.5643 106.021 13.3259 106.255 13.0885 106.491C12.4534 107.127 11.8257 107.799 11.2229 108.488C10.3684 109.466 10.4679 110.951 11.4453 111.806C12.4096 112.649 13.9201 112.548 14.7629 111.584C15.297 110.973 15.8526 110.378 16.4136 109.817C16.6242 109.606 16.8369 109.399 17.0509 109.195C17.9908 108.298 18.0255 106.81 17.1294 105.87Z" fill="white"/>
<path d="M10.0598 113.702C8.95386 113.023 7.50592 113.368 6.82544 114.474C6.18156 115.521 5.57116 116.609 5.01051 117.707C4.42044 118.864 4.88004 120.28 6.03702 120.87C7.1796 121.453 8.61785 120.984 9.19946 119.843C9.70318 118.856 10.2519 117.878 10.8307 116.937C11.5112 115.831 11.1658 114.383 10.0598 113.702Z" fill="white"/>
<path d="M24.5362 100.891C23.8704 99.7769 22.4268 99.4131 21.3121 100.079C20.7452 100.417 20.1786 100.774 19.6273 101.14C18.5454 101.858 18.2501 103.317 18.9681 104.399C19.6761 105.466 21.1588 105.767 22.2272 105.058C22.7169 104.734 23.22 104.416 23.7237 104.116C24.8384 103.45 25.2023 102.006 24.5362 100.891Z" fill="white"/>
</svg>
