<svg width="154" height="106" viewBox="0 0 154 106" fill="none" xmlns="http://www.w3.org/2000/svg">
<path d="M45.3275 28.992L38.665 4.50471C38.3626 3.38746 37.3479 2.61615 36.1922 2.61615H23.0056C21.5885 2.61615 20.4431 3.76159 20.4431 5.17865V29.1047C13.901 29.6454 8.694 34.7397 7.96881 41.2305H7.69975C5.68562 41.2305 3.78169 42.0248 2.33131 43.4675C0.927063 44.8743 0.125 46.8295 0.125 48.8308C0.125 53.0077 3.52287 56.4056 7.69975 56.4056H18.4571L39.4978 65.6075C39.8207 65.751 40.1717 65.8228 40.5228 65.8228H73.7533V69.8536C73.7533 71.2707 74.8988 72.4161 76.3158 72.4161H91.3782C94.179 72.4161 96.8312 71.3245 98.8761 69.3103C99.8882 68.2777 100.639 67.081 101.144 65.8228H139.264C145.603 65.8228 150.756 60.6568 150.756 54.3069C150.756 51.255 149.57 48.3696 147.389 46.1556C145.201 43.998 142.318 42.8115 139.264 42.8115H138.118L135.802 39.9825H139.979C144.458 39.9825 148.704 37.7942 151.341 34.1272C153.872 30.6012 154.549 26.2757 153.173 22.186C152.84 21.2865 152.509 20.5485 152.102 19.8208C149.898 16.0513 145.906 13.494 141.339 12.8149C140.891 9.97309 139.305 7.42853 136.878 5.83978C133.882 3.91278 130.059 3.79234 126.851 5.35803C124.004 2.06009 119.727 0.299651 115.345 0.804463C110.469 1.3349 106.374 4.5329 104.532 9.04034C99.4885 8.43559 94.63 10.647 92.3904 14.8393C90.6914 18.0193 91.0861 21.2814 91.6959 23.4185C90.6094 24.628 89.2641 26.5294 88.6312 28.992H45.3326H45.3275ZM34.2319 7.74115L40.0154 28.992H25.5655V7.74115H34.2319ZM5.25 48.8308C5.25 48.1748 5.51138 47.5393 5.95469 47.0909C6.29294 46.7552 6.86694 46.3555 7.69975 46.3555H28.9172C30.2805 46.3555 31.3926 47.4676 31.3926 48.8308C31.3926 49.492 31.1389 50.1018 30.6572 50.5733C30.2062 51.0243 29.5732 51.2806 28.9172 51.2806H7.69975C6.34931 51.2806 5.25 50.1813 5.25 48.8308ZM91.3782 51.2806H58.0913C56.7409 51.2806 55.6416 50.1813 55.6416 48.8308C55.6416 48.1748 55.9029 47.5419 56.3514 47.0883C56.6871 46.7527 57.2585 46.3555 58.0913 46.3555H100.478C101.841 46.3555 102.953 47.4676 102.953 48.8308C102.953 49.492 102.699 50.1018 102.223 50.5708C101.769 51.0218 101.134 51.2806 100.478 51.2806H91.3782ZM95.2501 65.6895C94.2021 66.7222 92.826 67.2911 91.3782 67.2911H78.8783V56.4056H91.3782C94.3789 56.4056 96.8209 58.8477 96.8209 61.8483C96.8209 62.1277 96.7902 62.4018 96.7338 62.6786C96.7236 62.7375 96.7184 62.7837 96.7056 62.8503C96.5365 63.9112 96.0189 64.9054 95.2501 65.6895ZM139.264 47.9365C140.963 47.9365 142.569 48.6002 143.766 49.779C144.97 51.0013 145.634 52.608 145.634 54.3069C145.634 57.8303 142.777 60.6978 139.266 60.6978H101.887C101.867 60.5184 101.808 60.3544 101.779 60.1776C101.731 59.8701 101.669 59.5728 101.595 59.2756C101.505 58.9168 101.395 58.5709 101.269 58.2275C101.164 57.9431 101.057 57.6638 100.929 57.3896C100.775 57.0616 100.598 56.749 100.411 56.4389C100.406 56.4287 100.401 56.4158 100.393 56.4056H100.48C102.481 56.4056 104.437 55.6035 105.823 54.2172C107.258 52.8181 108.081 50.8552 108.081 48.8283C108.081 44.636 104.672 41.2279 100.48 41.2279H58.0939C56.0772 41.2279 54.1732 42.0223 52.7306 43.4624C51.3237 44.8692 50.5191 46.8244 50.5191 48.8283C50.5191 53.0052 53.917 56.403 58.0939 56.403H73.7559V60.6952H41.0609L30.7392 56.1801C30.8391 56.157 30.9237 56.0981 31.0211 56.0699C31.4849 55.9367 31.9282 55.7624 32.3561 55.5472C32.5124 55.4677 32.6636 55.396 32.8122 55.3063C33.335 54.9962 33.8296 54.6452 34.2575 54.2198C35.6976 52.8207 36.5202 50.8578 36.5202 48.8283C36.5202 44.636 33.1121 41.2279 28.9198 41.2279H13.0733C13.7908 37.1894 17.3271 34.1144 21.568 34.1144H121.477C123.304 34.1144 125.067 34.9498 126.21 36.3643L134.92 46.9961C135.404 47.588 136.135 47.934 136.901 47.934H139.261L139.264 47.9365ZM96.3059 26.0528C97.1618 25.325 97.4359 24.1104 96.9952 23.0777C96.6595 22.2987 95.6653 19.5748 96.9055 17.2557C98.3379 14.5805 102.036 13.3915 105.515 14.4805C106.205 14.6932 106.956 14.6087 107.583 14.2448C108.209 13.8758 108.649 13.2608 108.796 12.551C109.534 8.95834 112.388 6.28565 115.904 5.90128C119.125 5.54253 122.331 7.23378 123.948 10.1063C124.324 10.7777 124.983 11.2441 125.741 11.3748C126.51 11.5003 127.279 11.2877 127.86 10.7854C129.667 9.21203 132.235 8.95578 134.085 10.1397C135.612 11.1416 136.488 13.0404 136.322 14.9777C136.26 15.69 136.499 16.4024 136.986 16.9303C137.47 17.4607 138.157 17.7605 138.874 17.7605C142.626 17.7605 145.995 19.5415 147.651 22.3679C147.935 22.8778 148.158 23.4108 148.34 23.8952C149.157 26.3321 148.735 28.9715 147.177 31.1419C145.506 33.4712 142.813 34.8627 139.979 34.8627H131.604L130.19 33.1355C128.068 30.5038 124.893 28.9945 121.482 28.9945H94.0739C94.8324 27.4032 95.9932 26.327 96.311 26.0579L96.3059 26.0528Z" fill="white"/>
<path d="M65.9044 89.9743H60.946C61.2227 89.1722 61.3688 88.3189 61.3688 87.44C61.3688 83.2272 57.9427 79.8037 53.7326 79.8037H28.0819C26.0422 79.8037 24.1229 80.5981 22.6802 82.0433C21.2401 83.486 20.4457 85.4053 20.4457 87.44C20.4457 91.663 23.8717 95.0993 28.0819 95.0993H33.0481C32.7662 95.9013 32.6176 96.7547 32.6176 97.6105C32.6176 101.834 36.0436 105.272 40.2538 105.272H65.9044C67.9416 105.272 69.8584 104.478 71.3062 103.033C72.7463 101.59 73.5407 99.6631 73.5407 97.6105C73.5407 93.3978 70.1146 89.9743 65.9044 89.9743ZM67.6828 99.412C67.3446 99.7502 66.7629 100.15 65.9044 100.15H40.2538C38.8675 100.15 37.7426 99.0122 37.7426 97.6131C37.7426 96.952 38.0116 96.3036 38.4754 95.8398C38.9469 95.3709 39.5952 95.1018 40.2538 95.1018C41.6709 95.1018 42.8163 93.9564 42.8163 92.5393C42.8163 91.1223 41.6709 89.9768 40.2538 89.9768H28.0819C26.6956 89.9768 25.5707 88.8417 25.5707 87.4425C25.5707 86.5841 25.9704 86.0024 26.3061 85.6667C26.6418 85.331 27.2209 84.9313 28.0819 84.9313H53.7326C55.1189 84.9313 56.2438 86.0562 56.2438 87.4425C56.2438 88.1293 55.9824 88.7673 55.5084 89.2414C55.1727 89.5771 54.5936 89.9768 53.7326 89.9768C52.3155 89.9768 51.1701 91.1223 51.1701 92.5393C51.1701 93.9564 52.3155 95.1018 53.7326 95.1018H65.9044C67.2907 95.1018 68.4157 96.2268 68.4157 97.6131C68.4157 98.2998 68.1517 98.9405 67.6828 99.412Z" fill="white"/>
</svg>
