<svg width="45" height="45" viewBox="0 0 45 45" fill="none" xmlns="http://www.w3.org/2000/svg">
<path d="M42.0457 27.4197L43.3061 26.1596C44.0993 25.366 44.0993 24.0751 43.3061 23.2815C42.9216 22.8973 42.4107 22.6856 41.8669 22.6856C41.4589 22.6856 41.069 22.8049 40.7376 23.0271L40.4721 22.1357L41.8363 20.7711C42.6299 19.9776 42.6299 18.6866 41.8363 17.8934C41.106 17.1627 39.9545 17.1065 39.1569 17.7213L37.5402 12.2938C38.1859 11.672 38.8043 11.067 39.3871 10.4842C41.0666 8.80437 42.4322 7.02671 43.2325 5.47793C44.5847 2.86033 44.0187 1.46111 43.3058 0.74823C42.5932 0.0353476 41.194 -0.53032 38.5761 0.821838C37.0276 1.62177 35.2496 2.98737 33.5701 4.66724C32.9873 5.25004 32.382 5.86815 31.7605 6.51381L26.3327 4.89713C26.9475 4.09989 26.8913 2.94839 26.161 2.21769C25.3674 1.42448 24.0764 1.42414 23.2832 2.21769L21.9186 3.58228L21.0269 3.31676C21.2491 2.98502 21.3684 2.59514 21.3684 2.1871C21.3684 1.64362 21.1567 1.1324 20.7725 0.74823C19.9793 -0.045318 18.688 -0.045318 17.8948 0.74823L16.6347 2.00829L10.212 0.0951747C9.98314 0.0272811 9.73577 0.089797 9.56738 0.258523L7.91407 1.91183C7.63645 2.18912 7.67308 2.66337 7.98969 2.89494L24.1947 14.7565C20.5409 18.8762 17.0212 23.0009 14.5364 25.9478L9.76972 24.1144C9.53007 24.0223 9.25883 24.0798 9.07734 24.2613L7.11783 26.2208C6.86441 26.4745 6.86441 26.8856 7.11783 27.139L16.915 36.9362C17.1651 37.1866 17.5832 37.1866 17.8336 36.9362L19.7928 34.977C19.9743 34.7955 20.0321 34.5239 19.9396 34.2843L18.1065 29.518C21.0535 27.0331 25.1779 23.5134 29.2979 19.8593L30.5851 21.6184C30.8137 21.9307 31.2772 21.971 31.5575 21.7048C31.7911 21.483 31.8234 21.1109 31.6335 20.8514L30.2726 18.9921C32.427 17.0692 34.5546 15.1292 36.4848 13.3011L42.6037 33.8423L41.7597 34.6859L33.35 23.1965C33.1382 22.9071 32.7319 22.8442 32.4425 23.056C32.1528 23.2681 32.0899 23.6744 32.302 23.9638L41.1594 36.0647C41.391 36.3813 41.8652 36.4179 42.1425 36.1403L43.7958 34.487C43.9646 34.3186 44.0271 34.0709 43.9592 33.8423L42.0457 27.4197ZM24.2018 3.13627C24.4855 2.85259 24.9591 2.85259 25.2427 3.13627C25.5298 3.4233 25.5298 3.89016 25.2427 4.17719L24.9382 4.4817L23.334 4.00376L24.2018 3.13627ZM18.8133 1.66681C19.1 1.37977 19.5672 1.37977 19.8543 1.66681C20.1413 1.95385 20.1413 2.4207 19.8543 2.70773L19.6539 2.90772L18.05 2.43011L18.8133 1.66681ZM9.36807 2.29432L10.212 1.45069L30.7532 7.56918C28.9251 9.49978 26.9851 11.6273 25.0619 13.7818L9.36807 2.29432ZM9.69745 25.4783L13.6518 26.9992C12.6599 28.1803 11.8993 29.0941 11.4506 29.6349L8.49554 26.6799L9.69745 25.4783ZM12.3732 30.5575C14.6372 27.826 26.6043 13.4699 34.4887 5.58548C36.0529 4.0209 37.7604 2.70538 39.1723 1.97603C40.2324 1.42817 41.6508 0.930064 42.3875 1.66681C43.1243 2.40356 42.6258 3.82193 42.0783 4.88201C41.349 6.29399 40.0331 8.00108 38.4685 9.56566C30.5848 17.4494 16.2283 29.4168 13.4968 31.6811L12.3732 30.5575ZM18.5761 34.3569L17.3745 35.5585L14.4194 32.6034C14.9599 32.1551 15.8741 31.3945 17.0552 30.4026L18.5761 34.3569ZM41.3466 24.2001C41.6337 23.913 42.1005 23.913 42.3875 24.2001C42.6746 24.4871 42.6746 24.954 42.3875 25.241L41.6242 26.0043L41.1463 24.4004L41.3466 24.2001ZM39.8772 18.8116C40.1639 18.5246 40.631 18.5249 40.9181 18.8116C41.2018 19.0953 41.2018 19.5689 40.9181 19.8525L40.0503 20.7204L39.5723 19.1161L39.8772 18.8116Z" fill="white"/>
<path d="M38.9848 37.4033L33.4427 42.9454C33.2064 43.182 33.1906 43.5726 33.4081 43.8267C33.6511 44.1103 34.0971 44.1282 34.3613 43.864L39.9034 38.3219C40.1571 38.0681 40.1571 37.6571 39.9034 37.4033C39.6499 37.1499 39.2385 37.1499 38.9848 37.4033Z" fill="white"/>
<path d="M37.1322 35.5508C37.3859 35.2974 37.3859 34.886 37.1322 34.6326C36.8787 34.3788 36.4673 34.3788 36.2139 34.6326L32.75 38.0962C32.5137 38.3328 32.4979 38.7233 32.7154 38.9774C32.9584 39.2611 33.4044 39.2789 33.6686 39.0147L37.1322 35.5508Z" fill="white"/>
<path d="M35.054 32.0872C35.3078 31.8334 35.3078 31.422 35.054 31.1686C34.8003 30.9148 34.3892 30.9148 34.1354 31.1686L31.7108 33.5933C31.4745 33.8295 31.4587 34.2204 31.6765 34.4745C31.9192 34.7582 32.3652 34.776 32.6293 34.5118L35.054 32.0872Z" fill="white"/>
<path d="M6.65097 4.4972C6.39721 4.24377 5.98581 4.24377 5.73239 4.4972L0.190321 10.0396C-0.0634402 10.293 -0.0634402 10.7044 0.190321 10.9578C0.440384 11.2079 0.858501 11.2079 1.1089 10.9578L6.65097 5.41578C6.90439 5.16202 6.90439 4.75096 6.65097 4.4972Z" fill="white"/>
<path d="M9.42183 7.26832C9.16807 7.01456 8.75701 7.01456 8.50359 7.26832L5.03967 10.7322C4.80305 10.9685 4.78759 11.3591 5.00505 11.6132C5.24806 11.8969 5.69373 11.9147 5.95791 11.6505L9.42183 8.1869C9.67559 7.93314 9.67559 7.52175 9.42183 7.26832Z" fill="white"/>
<path d="M9.54249 12.6898C9.79289 12.9399 10.2107 12.9399 10.4611 12.6898L12.8857 10.2651C13.1392 10.0114 13.1392 9.60032 12.8857 9.34656C12.632 9.09314 12.2209 9.09314 11.9672 9.34656L9.54249 11.7712C9.28906 12.025 9.28906 12.4361 9.54249 12.6898Z" fill="white"/>
</svg>
