<svg width="413" height="432" viewBox="0 0 413 432" fill="none" xmlns="http://www.w3.org/2000/svg">
<path d="M158.049 65.225C156.474 62.89 154.11 61.2009 151.39 60.4675C148.671 59.7342 145.778 60.0056 143.243 61.2322L121.891 71.4094C112.127 76.0681 104.612 84.4129 100.998 94.6098C97.3844 104.807 97.9669 116.021 102.618 125.789L207.603 346.045C212.262 355.816 220.608 363.338 230.808 366.962C241.008 370.585 252.229 370.014 262.009 365.372L283.36 355.195C285.909 353.998 287.942 351.922 289.085 349.347C290.228 346.773 290.404 343.873 289.583 341.179C287.806 335.244 288.21 328.869 290.723 323.205C293.235 317.542 297.69 312.964 303.283 310.299C308.875 307.633 315.237 307.055 321.219 308.67C327.2 310.284 332.407 313.985 335.898 319.102C337.474 321.437 339.837 323.126 342.557 323.86C345.276 324.593 348.169 324.322 350.704 323.095L372.056 312.918C381.819 308.244 389.33 299.888 392.938 289.682C396.547 279.477 395.959 268.257 391.303 258.484L286.318 38.2283C281.659 28.4644 273.314 20.9497 263.117 17.3358C252.92 13.7218 241.706 14.3044 231.938 18.9554L210.587 29.1326C208.037 30.3299 206.005 32.406 204.862 34.9803C203.719 37.5547 203.543 40.4547 204.365 43.1487C206.141 49.0839 205.737 55.4589 203.224 61.122C200.712 66.7851 196.257 71.363 190.664 74.0287C185.072 76.6944 178.71 77.2722 172.729 75.6578C166.747 74.0433 161.541 70.3428 158.049 65.225ZM227.18 143.767C231.355 142.671 235.782 143.08 239.685 144.922C243.587 146.764 246.717 149.922 248.524 153.841L257.751 173.198L313.367 190.624C315.14 191.167 316.782 192.071 318.189 193.279C319.596 194.488 320.738 195.973 321.544 197.644C322.245 199.12 322.668 200.713 322.791 202.343C323.035 205.091 322.437 207.849 321.074 210.248C319.711 212.647 317.65 214.574 315.164 215.771C313.281 216.676 311.216 217.14 309.127 217.127L278.619 216.979L290.21 241.297C290.838 242.605 291.92 243.641 293.254 244.212L307.727 250.283C309.756 251.139 311.4 252.71 312.346 254.698C312.85 255.753 313.142 256.897 313.203 258.064C313.265 259.232 313.095 260.4 312.705 261.502C312.314 262.604 311.71 263.618 310.927 264.486C310.144 265.354 309.198 266.059 308.142 266.561L266.247 286.53C264.692 287.27 262.956 287.543 261.249 287.318C259.542 287.092 257.937 286.377 256.627 285.259C255.317 284.141 254.359 282.668 253.869 281.017C253.378 279.367 253.376 277.609 253.862 275.958L258.261 260.892C258.657 259.496 258.534 258.003 257.913 256.691L246.322 232.374L227.117 256.217C225.854 257.834 224.228 259.13 222.37 260.001C219.906 261.176 217.145 261.579 214.448 261.157C211.751 260.735 209.244 259.507 207.257 257.635C205.27 255.763 203.896 253.334 203.313 250.667C202.731 248 202.969 245.219 203.995 242.69L225.453 188.592L215.944 168.642C214.819 166.303 214.223 163.745 214.198 161.15C214.173 158.554 214.72 155.985 215.8 153.625C216.868 151.254 218.439 149.145 220.405 147.442C222.37 145.74 224.682 144.486 227.18 143.767ZM278.273 82.2932C278.775 83.3327 278.957 84.4979 278.795 85.6409C278.634 86.7839 278.136 87.8531 277.366 88.7127C276.595 89.5723 275.587 90.1835 274.468 90.4688C273.349 90.754 272.171 90.7004 271.083 90.3148C269.995 89.9291 269.046 89.2288 268.357 88.3028C267.668 87.3768 267.269 86.2668 267.212 85.1139C267.155 83.9609 267.442 82.817 268.036 81.8274C268.631 80.8377 269.506 80.047 270.55 79.5557C271.94 78.9099 273.527 78.8348 274.971 79.3467C276.415 79.8586 277.601 80.9165 278.273 82.2932ZM245.868 97.7391C246.361 98.7736 246.536 99.931 246.371 101.065C246.207 102.199 245.709 103.259 244.942 104.11C244.175 104.961 243.173 105.566 242.062 105.848C240.951 106.129 239.782 106.075 238.702 105.693C237.622 105.31 236.68 104.615 235.994 103.697C235.309 102.778 234.911 101.677 234.852 100.533C234.792 99.3887 235.073 98.2524 235.66 97.2678C236.246 96.2832 237.111 95.4945 238.145 95.0015C239.533 94.3454 241.124 94.265 242.571 94.7779C244.018 95.2908 245.203 96.3554 245.868 97.7391ZM213.517 113.159C214.018 114.196 214.2 115.359 214.04 116.499C213.88 117.64 213.386 118.708 212.619 119.567C211.853 120.427 210.848 121.04 209.734 121.329C208.619 121.618 207.443 121.57 206.355 121.19C205.268 120.811 204.317 120.118 203.624 119.198C202.93 118.279 202.525 117.174 202.459 116.024C202.393 114.875 202.669 113.731 203.254 112.738C203.838 111.746 204.703 110.948 205.74 110.447C207.133 109.786 208.729 109.7 210.185 110.208C211.641 110.715 212.838 111.776 213.517 113.159ZM181.112 128.605C181.614 129.645 181.796 130.81 181.634 131.953C181.473 133.096 180.975 134.165 180.205 135.025C179.434 135.884 178.426 136.495 177.307 136.781C176.189 137.066 175.01 137.012 173.922 136.627C172.834 136.241 171.885 135.541 171.196 134.615C170.507 133.689 170.109 132.579 170.051 131.426C169.994 130.273 170.281 129.129 170.875 128.139C171.47 127.15 172.345 126.359 173.389 125.868C174.779 125.222 176.366 125.146 177.81 125.658C179.254 126.17 180.44 127.228 181.112 128.605ZM148.708 144.051C149.201 145.085 149.376 146.243 149.211 147.377C149.046 148.511 148.549 149.57 147.782 150.422C147.015 151.273 146.013 151.878 144.902 152.16C143.791 152.441 142.622 152.388 141.542 152.005C140.462 151.622 139.519 150.927 138.834 150.009C138.149 149.091 137.751 147.99 137.691 146.845C137.631 145.701 137.912 144.565 138.499 143.58C139.085 142.595 139.95 141.807 140.984 141.313C142.372 140.657 143.963 140.577 145.41 141.089C146.858 141.602 148.043 142.667 148.708 144.051Z" fill="#4E64EE"/>
<path d="M309.246 205.16C309.516 205.174 309.785 205.114 310.024 204.987C310.32 204.843 310.564 204.61 310.722 204.321C310.88 204.033 310.946 203.702 310.909 203.375C310.884 203.057 310.763 202.755 310.563 202.508C310.362 202.261 310.092 202.081 309.786 201.991L264.741 187.863L272.914 205.009L309.246 205.16Z" fill="#4E64EE"/>
<path d="M232.444 203.258L215.052 247.146C214.943 247.431 214.917 247.742 214.978 248.041C215.039 248.34 215.183 248.616 215.394 248.836C215.619 249.087 215.919 249.26 216.249 249.329C216.58 249.397 216.924 249.358 217.23 249.218C217.44 249.133 217.626 248.999 217.772 248.827L240.616 220.404L232.444 203.258Z" fill="#4E64EE"/>
<path d="M247.982 378.145C242.216 378.565 236.421 377.968 230.863 376.38C224.058 374.443 217.743 371.08 212.338 366.515C206.933 361.949 202.562 356.285 199.515 349.9L94.5302 129.644C90.5496 121.279 88.9768 111.97 89.9879 102.761C90.9019 95.1031 93.524 87.7477 97.6606 81.2382L36.1909 130.521C32.0017 133.865 28.5136 138.003 25.9266 142.697C23.3396 147.392 21.7046 152.551 21.1152 157.878C20.5258 163.206 20.9937 168.598 22.492 173.744C23.9903 178.891 26.4896 183.691 29.8467 187.869L182.416 378.298C189.189 386.755 199.042 392.176 209.811 393.371C220.579 394.566 231.381 391.437 239.844 384.671L247.982 378.145Z" fill="#4E64EE"/>
<path d="M226.728 163.502L268.696 251.551C270.577 255.511 270.939 260.024 269.713 264.234L267.2 272.842L296.908 258.682L288.638 255.213C284.596 253.515 281.318 250.392 279.426 246.437L237.741 158.981C237.152 157.619 236.113 156.501 234.798 155.814C233.483 155.128 231.972 154.915 230.518 155.211C229.678 155.439 228.899 155.849 228.235 156.412C227.572 156.975 227.04 157.677 226.679 158.468C226.317 159.26 226.134 160.121 226.142 160.991C226.151 161.861 226.351 162.718 226.728 163.502Z" fill="#4E64EE"/>
</svg>
