<svg width="1257" height="787" viewBox="0 0 1257 787" fill="none" xmlns="http://www.w3.org/2000/svg">
<path d="M1188.49 276.455C1183.5 276.534 1178.94 279.306 1176.51 283.645L1151.71 328.043C1149.96 331.171 1146.78 333.022 1143.29 333.177L1123.89 333.684C1119.09 333.76 1114.31 335.036 1110.05 337.204L1107.27 338.648C1105.09 339.782 1105.14 342.982 1107.35 344.047L1110.18 345.403C1114.51 347.434 1119.33 348.558 1124.13 348.482L1143.53 348.375C1147.03 348.32 1150.36 350.167 1152.11 353.24L1178.3 396.831C1180.87 401.091 1185.51 403.718 1190.51 403.639C1179.81 384.706 1173.53 360.802 1171.17 350.938C1170.85 349.543 1171.93 348.326 1173.23 348.305L1174.39 352.387C1174.93 354.379 1176.95 355.547 1178.94 355.216L1184.32 354.131C1185.02 354.019 1185.72 353.608 1186.21 353C1186.7 352.393 1187.39 351.982 1188.19 351.869L1190.18 351.537L1187.98 351.172C1187.28 351.083 1186.67 350.793 1186.16 350.301L1185.35 349.514L1184.03 348.234L1188.13 348.17C1190.73 348.128 1193.43 347.886 1195.91 347.146L1208.76 343.743L1214.18 357.558C1215.33 360.541 1218.36 362.293 1221.55 361.842L1226.34 361.166L1218.52 341.188L1222.11 340.231C1222.71 340.121 1222.69 339.221 1222.09 339.131L1218.48 338.288L1225.66 318.072L1220.85 317.548C1217.74 317.197 1214.77 319.044 1213.62 322.063L1208.54 336.045L1195.69 333.048C1193.08 332.489 1190.48 332.23 1187.88 332.271L1183.78 332.336L1185.06 331.016L1185.85 330.203C1186.34 329.696 1186.93 329.386 1187.63 329.275L1189.82 328.84L1187.82 328.572C1187.02 328.485 1186.31 328.096 1185.8 327.504C1185.29 326.912 1184.59 326.623 1183.89 326.434L1178.47 325.519C1176.46 325.151 1174.48 326.483 1174.02 328.49L1172.98 332.607C1171.58 332.629 1170.56 331.345 1170.84 330.041C1172.88 320.007 1178.4 296.017 1188.5 276.755L1188.49 276.455Z" fill="#4E64EE"/>
<path d="M1059.36 338.206C1059.36 338.206 1059.46 338.205 1059.56 338.203C1062.86 338.351 1066.26 338.597 1069.57 338.845C1071.27 338.918 1072.49 340.399 1072.32 342.002C1072.24 343.703 1070.76 344.927 1069.16 344.752C1065.86 344.504 1062.55 344.356 1059.25 344.209C1057.55 344.136 1056.33 342.755 1056.4 341.053C1056.47 339.452 1057.76 338.232 1059.36 338.206Z" fill="#4E64EE"/>
<path d="M349.546 280.031C351.346 280.002 353.246 279.972 355.149 280.142C356.85 280.215 358.073 281.696 357.899 283.299C357.826 285 356.345 286.224 354.742 286.049C348.335 285.651 341.943 286.252 336.066 287.745C334.473 288.17 332.857 287.196 332.432 285.602C332.007 284.009 332.981 282.393 334.575 281.968C339.355 280.692 344.445 280.012 349.644 279.929L349.546 280.031ZM374.219 284.441C374.619 284.435 374.919 284.43 375.322 284.623C381.962 287.119 388.019 290.623 393.386 294.839C394.703 295.918 394.931 297.715 393.852 299.032C392.773 300.349 390.976 300.578 389.659 299.498C384.798 295.675 379.348 292.561 373.211 290.258C371.701 289.681 370.873 287.894 371.449 286.385C371.93 285.177 373.019 284.46 374.219 284.441ZM317.308 290.542C318.208 290.528 319.214 290.912 319.829 291.803C320.751 293.188 320.479 294.993 319.195 296.013C314.153 299.693 309.623 304.166 305.804 309.327C304.825 310.642 302.93 310.972 301.614 309.993C300.299 309.014 299.968 307.119 300.948 305.803C305.159 300.136 310.08 295.157 315.618 291.169C316.111 290.761 316.71 290.652 317.31 290.642L317.308 290.542ZM404.412 309.066C405.512 309.049 406.522 309.633 407.036 310.525C410.121 315.877 412.114 321.746 413.01 327.833C413.124 328.731 413.239 329.629 413.353 330.527C413.48 332.226 412.302 333.644 410.604 333.771C409.006 333.897 407.487 332.721 407.36 331.022C407.347 330.222 407.235 329.424 407.022 328.627C406.238 323.339 404.456 318.167 401.781 313.408C400.957 311.921 401.428 310.114 402.916 309.29C403.411 308.982 403.909 308.874 404.309 308.868L404.412 309.066ZM293.902 321.917C294.302 321.91 294.702 321.904 295.005 322.099C296.514 322.675 297.342 324.462 296.766 325.972C294.458 331.809 292.957 338.033 292.06 344.548C291.885 346.151 290.304 347.377 288.7 347.102C287.097 346.927 285.872 345.346 286.146 343.742C287.037 336.827 288.731 330.099 291.132 323.861C291.613 322.653 292.702 321.936 293.902 321.917ZM760.815 338.03C762.415 338.005 763.835 339.283 763.861 340.883C763.888 342.582 762.608 343.903 761.01 344.028C754.813 344.226 748.221 344.83 741.432 345.538C739.835 345.763 738.316 344.587 738.089 342.891C737.864 341.294 739.04 339.775 740.737 339.548C747.625 338.739 754.418 338.232 760.814 337.93L760.815 338.03ZM780.721 338.215C780.721 338.215 780.821 338.214 780.921 338.212C787.828 338.603 794.641 339.395 800.959 340.495C802.564 340.77 803.689 342.352 803.414 343.957C803.14 345.562 801.557 346.687 799.953 346.412C793.735 345.31 787.223 344.613 780.616 344.218C778.914 344.145 777.691 342.664 777.765 341.063C777.84 339.461 779.121 338.241 780.721 338.215ZM999.833 337.248C1001.43 337.223 1002.85 338.5 1002.88 340.2C1002.91 341.9 1001.63 343.22 999.928 343.247C993.329 343.352 986.733 343.656 980.137 343.961C978.537 343.986 977.116 342.708 976.991 341.11C976.964 339.41 978.243 338.09 979.842 337.965C986.438 337.66 993.135 337.454 999.733 337.25L999.833 337.248ZM1019.63 337.035C1026.23 337.03 1032.93 337.124 1039.54 337.32C1041.24 337.293 1042.46 338.774 1042.49 340.374C1042.51 342.073 1041.03 343.297 1039.43 343.322C1032.93 343.125 1026.23 343.031 1019.63 343.036C1017.93 343.063 1016.61 341.683 1016.68 339.982C1016.65 338.382 1018.03 337.06 1019.63 337.035ZM721.38 342.455C722.78 342.433 724.097 343.512 724.42 344.907C724.745 346.502 723.57 348.121 721.974 348.346C718.582 348.9 715.092 349.555 711.603 350.311C708.613 350.958 705.621 351.505 702.633 352.253C701.038 352.578 699.422 351.603 699.097 350.008C698.772 348.413 699.746 346.798 701.341 346.472C704.431 345.823 707.422 345.176 710.412 344.529C714 343.772 717.49 343.117 720.882 342.563C721.082 342.56 721.182 342.558 721.382 342.555L721.38 342.455ZM408.523 347.606C408.822 347.601 409.122 347.597 409.324 347.693C410.932 348.168 411.857 349.754 411.382 351.361C409.584 357.791 406.786 364.236 402.981 370.297C402.103 371.711 400.21 372.141 398.796 371.263C397.382 370.385 396.952 368.492 397.829 367.078C401.342 361.521 403.95 355.679 405.556 349.753C405.936 348.447 407.121 347.528 408.421 347.508L408.523 347.606ZM960.057 339.078C961.657 339.052 962.975 340.232 963.101 341.83C963.128 343.53 961.95 344.948 960.352 345.074C953.759 345.578 947.166 346.083 940.575 346.687C938.877 346.814 937.458 345.636 937.331 343.938C937.204 342.24 938.382 340.821 940.08 340.694C946.671 340.09 953.362 339.484 959.957 339.079C959.957 339.079 960.057 339.078 960.157 339.076L960.057 339.078ZM920.511 342.804C922.011 342.78 923.328 343.86 923.553 345.456C923.778 347.053 922.602 348.572 920.906 348.799C916.414 349.37 911.823 349.942 907.331 350.514C905.334 350.745 903.24 351.078 901.245 351.41C899.648 351.635 898.031 350.561 897.804 348.864C897.578 347.267 898.653 345.65 900.35 345.423C902.445 345.09 904.441 344.859 906.536 344.525C911.028 343.954 915.618 343.281 920.211 342.809C920.311 342.807 920.411 342.806 920.511 342.804ZM819.736 345.199C820.036 345.194 820.336 345.189 820.739 345.383C823.956 346.432 827.175 347.581 830.295 348.832C833.415 350.083 836.538 351.534 839.565 353.186C841.077 353.962 841.606 355.754 840.83 357.267C840.053 358.779 838.262 359.307 836.749 358.531C833.926 357.076 830.902 355.623 827.984 354.47C825.064 353.216 821.947 352.165 818.829 351.114C817.222 350.639 816.395 348.952 816.87 347.344C817.251 346.138 818.438 345.319 819.638 345.3L819.736 345.199ZM682.61 350.969C684.01 350.947 685.224 351.828 685.546 353.223C685.972 354.817 684.997 356.432 683.404 356.858C677.028 358.459 670.656 360.26 664.385 362.159C662.793 362.684 661.077 361.711 660.652 360.118C660.127 358.526 661.1 356.811 662.693 356.385C669.064 354.484 675.536 352.682 681.91 350.98C682.11 350.977 682.41 350.973 682.61 350.969ZM881.303 348.925C882.703 348.903 884.018 349.882 884.24 351.279C884.566 352.874 883.491 354.491 881.896 354.816C875.017 356.225 868.74 357.725 862.766 359.42C861.173 359.845 859.559 358.97 859.034 357.379C858.608 355.785 859.483 354.171 861.075 353.646C867.247 351.848 873.624 350.347 880.603 348.936C880.803 348.933 881.003 348.93 881.203 348.927L881.303 348.925ZM288.62 361.005C290.119 360.981 291.538 362.159 291.664 363.757C292.266 370.249 293.666 376.527 295.661 382.496C296.186 384.088 295.413 385.801 293.821 386.326C292.229 386.851 290.517 386.078 289.991 384.486C287.79 378.12 286.383 371.342 285.674 364.452C285.547 362.754 286.725 361.335 288.423 361.208L288.623 361.205L288.62 361.005ZM644.488 362.474C645.787 362.453 646.9 363.236 647.42 364.528C647.946 366.12 647.173 367.832 645.581 368.358C639.313 370.457 633.149 372.755 626.986 375.153C625.395 375.778 623.683 375.005 623.058 373.415C622.433 371.824 623.206 370.112 624.796 369.487C630.959 367.089 637.323 364.788 643.591 362.688C643.889 362.584 644.189 362.579 644.489 362.574L644.488 362.474ZM843.174 360.03C844.374 360.011 845.484 360.693 846.003 361.885C846.627 363.376 845.856 365.188 844.365 365.812C838.104 368.311 832.249 371.204 826.897 374.289C825.51 375.111 823.602 374.641 822.78 373.254C821.958 371.867 822.428 369.959 823.815 369.137C829.364 365.849 835.517 362.851 842.077 360.247C842.475 360.141 842.774 360.036 843.174 360.03ZM854.731 363.547C855.431 363.536 856.034 363.727 856.642 364.217C862.009 368.433 867.084 373.153 871.564 378.183C872.685 379.465 872.515 381.368 871.331 382.387C870.048 383.508 868.246 383.336 867.127 382.154C862.851 377.421 858.179 372.894 853.016 368.975C851.701 367.996 851.471 366.099 852.45 364.784C853.039 364.074 853.932 363.66 854.732 363.647L854.731 363.547ZM607.409 376.763C608.609 376.744 609.72 377.426 610.239 378.618C610.862 380.108 610.291 381.918 608.701 382.543C606.415 383.479 604.231 384.514 601.946 385.45C598.271 387.109 594.597 388.767 590.626 390.63C589.138 391.354 587.327 390.682 586.603 389.193C585.879 387.705 586.551 385.894 588.04 385.17C592.011 383.307 595.783 381.547 599.457 379.889C601.741 378.853 604.027 377.916 606.211 376.882C606.608 376.675 607.007 376.669 607.307 376.664L607.409 376.763ZM387.949 381.036C388.749 381.023 389.554 381.31 390.165 382.001C391.283 383.183 391.214 385.085 390.031 386.204C387.076 389.051 383.916 391.601 380.653 393.953C378.377 395.489 376.101 397.025 373.623 398.465C372.236 399.287 370.328 398.817 369.506 397.43C368.684 396.042 369.154 394.135 370.541 393.313C372.82 391.976 375.098 390.54 377.174 389.007C380.24 386.859 383.202 384.411 385.862 381.869C386.454 381.359 387.149 381.048 387.849 381.037L387.949 381.036ZM809.087 380.072C809.986 380.058 810.793 380.445 811.404 381.135C812.524 382.418 812.354 384.321 811.07 385.341C808.012 387.99 805.056 390.837 802.303 393.781C800.73 395.506 799.258 397.329 797.889 399.251C796.909 400.567 795.014 400.897 793.699 399.918C792.383 398.938 792.053 397.043 793.032 395.728C794.6 393.703 796.169 391.678 797.94 389.849C800.79 386.704 803.944 383.754 807.199 380.902C807.791 380.392 808.388 380.183 809.088 380.172L809.087 380.072ZM571.473 393.733C572.573 393.716 573.682 394.298 574.2 395.39C574.923 396.879 574.252 398.69 572.863 399.412C567.405 402.099 561.948 404.885 556.592 407.671L555.203 408.393C553.714 409.116 551.905 408.545 551.181 407.056C550.458 405.567 551.029 403.758 552.518 403.034L553.906 402.312C559.363 399.526 564.821 396.839 570.278 394.052C570.675 393.846 571.173 393.738 571.573 393.732L571.473 393.733ZM59.5371 401.835C59.8371 401.83 60.0369 401.827 60.3384 401.922C66.6645 403.522 73.1892 405.019 79.6137 406.518C81.2198 406.892 82.245 408.477 81.8704 410.083C81.4957 411.689 79.9116 412.714 78.3055 412.339C71.7826 410.942 65.2566 409.345 58.8305 407.747C57.2244 407.372 56.2975 405.687 56.6721 404.081C57.0515 402.774 58.2373 401.856 59.5371 401.835ZM301.51 398.206C302.51 398.19 303.518 398.674 304.132 399.564C306.899 403.821 309.965 407.973 313.527 411.817C314.127 411.808 314.724 411.598 315.422 411.487C317.017 411.162 318.634 412.237 318.861 413.933C319.085 415.43 318.307 416.842 316.913 417.264C316.823 417.866 316.531 418.371 316.039 418.878C314.856 419.997 312.957 420.027 311.838 418.845C311.635 418.648 311.533 418.55 311.33 418.353C311.03 418.358 310.73 418.362 310.432 418.467C305.843 419.24 301.253 419.912 296.663 420.585C295.067 420.81 293.548 419.634 293.223 418.039C292.997 416.443 294.174 414.924 295.769 414.599C299.36 414.042 302.953 413.585 306.543 412.928C303.791 409.671 301.337 406.209 299.082 402.745C298.159 401.359 298.629 399.451 300.017 398.629C300.512 398.322 301.01 398.214 301.61 398.204L301.51 398.206ZM354.168 401.473C355.368 401.454 356.581 402.235 356.999 403.428C357.625 405.019 356.852 406.731 355.26 407.256C349.295 409.551 343.026 411.55 335.953 413.263C334.359 413.688 332.743 412.713 332.318 411.12C331.893 409.526 332.867 407.911 334.461 407.485C341.335 405.776 347.406 403.88 353.072 401.69C353.37 401.585 353.768 401.479 354.068 401.474L354.168 401.473ZM880.902 393.137C881.902 393.121 883.01 393.604 883.526 394.596C887.022 400.641 889.923 406.996 891.824 413.367C892.349 414.959 891.476 416.673 889.882 417.098C888.291 417.623 886.577 416.75 886.151 415.157C884.257 409.186 881.664 403.326 878.374 397.678C877.552 396.29 878.022 394.383 879.409 393.561C879.904 393.253 880.402 393.145 880.902 393.137ZM98.2761 410.323C98.4761 410.32 98.6762 410.317 98.8762 410.314C105.296 411.512 111.914 412.608 118.331 413.606C119.935 413.881 121.059 415.363 120.886 417.066C120.611 418.671 119.129 419.794 117.426 419.621C110.909 418.624 104.291 417.529 97.7713 416.332C96.1668 416.057 95.0415 414.475 95.4162 412.869C95.694 411.464 96.8779 410.445 98.2777 410.423L98.2761 410.323ZM137.577 416.402C137.677 416.4 137.877 416.397 137.977 416.396C144.491 417.193 151.102 417.888 157.611 418.385C159.214 418.56 160.436 419.941 160.363 421.642C160.188 423.245 158.809 424.567 157.106 424.394C150.496 423.799 143.784 423.105 137.271 422.308C135.668 422.133 134.444 420.652 134.617 418.949C134.793 417.446 136.076 416.326 137.576 416.302L137.577 416.402ZM535.951 411.598C537.051 411.58 538.16 412.163 538.678 413.255C539.401 414.743 538.73 416.554 537.341 417.276C530.693 420.582 524.836 423.375 519.376 425.962C517.888 426.685 516.077 426.014 515.353 424.525C514.629 423.036 515.301 421.226 516.79 420.502C522.151 418.017 528.006 415.124 534.656 411.918C535.053 411.712 535.551 411.604 535.951 411.598ZM276.406 417.105C277.906 417.082 279.224 418.261 279.448 419.757C279.673 421.354 278.397 422.875 276.801 423.1C270.211 423.804 263.52 424.41 256.927 424.915C255.229 425.041 253.808 423.764 253.683 422.165C253.656 420.466 254.834 419.047 256.432 418.922C263.025 418.417 269.616 417.813 276.106 417.11C276.106 417.11 276.306 417.107 276.406 417.105ZM177.236 419.775C177.236 419.775 177.336 419.773 177.436 419.772C184.043 420.167 190.647 420.363 197.15 420.56C198.85 420.533 200.074 422.014 200.099 423.613C200.126 425.313 198.745 426.535 197.045 426.562C190.443 426.467 183.738 426.173 177.131 425.777C175.429 425.704 174.207 424.323 174.28 422.622C174.355 421.021 175.636 419.8 177.236 419.775ZM236.749 420.133C238.349 420.108 239.769 421.386 239.794 422.985C239.821 424.685 238.542 426.006 236.944 426.131C230.348 426.435 223.65 426.641 216.949 426.647C215.25 426.674 213.928 425.295 213.902 423.695C213.875 421.995 215.255 420.673 216.855 420.648C223.454 420.544 230.053 420.439 236.649 420.135L236.749 420.133ZM785.785 411.744C786.185 411.738 786.585 411.732 786.988 411.925C788.497 412.502 789.226 414.29 788.649 415.8C786.243 421.738 784.641 427.965 783.741 434.28C783.466 435.884 781.984 437.008 780.381 436.833C778.777 436.558 777.653 435.076 777.828 433.473C778.82 426.656 780.615 420.027 783.115 413.687C783.598 412.579 784.686 411.862 785.886 411.843L785.785 411.744ZM328.962 426.575C329.562 426.565 330.165 426.756 330.771 427.146C335.929 430.765 341.582 434.076 347.429 436.984C348.94 437.66 349.57 439.55 348.792 440.963C348.116 442.474 346.326 443.102 344.813 442.326C338.665 439.323 332.709 435.817 327.248 432.003C325.932 431.023 325.602 429.128 326.581 427.813C327.169 427.003 328.062 426.589 328.962 426.575ZM499.91 428.27C501.11 428.251 502.221 428.934 502.74 430.126C503.364 431.616 502.692 433.427 501.102 434.052L499.413 434.779C493.65 437.17 487.984 439.36 482.515 441.347C480.923 441.872 479.211 441.099 478.686 439.507C478.16 437.915 478.933 436.203 480.525 435.678C485.895 433.692 491.562 431.603 497.225 429.213L498.914 428.486C499.312 428.38 499.611 428.275 500.011 428.268L499.91 428.27ZM892.399 430.76C893.999 430.735 895.419 432.012 895.445 433.612C895.456 434.312 895.467 435.012 895.476 435.612C895.524 438.611 895.373 441.714 895.02 444.72C894.669 447.826 894.12 451.035 893.169 454.151C892.695 455.758 891.109 456.683 889.501 456.209C887.894 455.734 886.968 454.149 887.443 452.541C888.199 449.729 888.754 446.92 889.108 444.014C889.364 441.209 889.52 438.406 889.475 435.607C889.431 432.807 889.456 434.407 889.445 433.707C889.418 432.007 890.698 430.687 892.296 430.561L892.399 430.76ZM462.516 441.563C463.816 441.543 465.03 442.424 465.451 443.717C465.876 445.311 465.001 446.925 463.409 447.45C456.739 449.356 450.163 450.96 443.882 452.16C442.287 452.485 440.669 451.41 440.344 449.815C440.019 448.22 441.093 446.603 442.688 446.278C448.87 445.08 455.346 443.477 461.718 441.676C462.018 441.671 462.216 441.568 462.516 441.563ZM364.541 443.914C364.841 443.909 365.141 443.905 365.443 444C371.573 445.903 377.998 447.402 384.413 448.3C386.017 448.575 387.141 450.057 386.968 451.76C386.693 453.365 385.211 454.488 383.508 454.315C376.791 453.321 370.167 451.826 363.735 449.828C362.127 449.353 361.3 447.666 361.775 446.058C362.154 444.752 363.341 443.933 364.641 443.912L364.541 443.914ZM423.532 449.181C425.032 449.158 426.45 450.335 426.576 451.933C426.703 453.632 425.525 455.05 423.927 455.176C419.034 455.653 414.138 455.931 409.438 456.005C407.538 456.035 405.638 456.065 403.839 456.094C402.139 456.121 400.817 454.741 400.89 453.04C400.863 451.34 402.244 450.118 403.944 450.091C405.743 450.063 407.543 450.034 409.443 450.004C414.042 449.932 418.739 449.657 423.432 449.183L423.632 449.18L423.532 449.181ZM780.201 450.738C781.701 450.714 783.02 451.893 783.243 453.39C783.948 459.98 785.544 466.055 788.032 471.616C788.756 473.105 788.085 474.916 786.494 475.541C785.006 476.265 783.195 475.593 782.57 474.003C779.873 467.945 778.066 461.173 777.252 453.985C777.027 452.388 778.303 450.868 779.9 450.642C779.9 450.642 780.1 450.639 780.2 450.638L780.201 450.738ZM882.094 468.428C882.694 468.418 883.297 468.609 883.801 468.901C885.215 469.778 885.546 471.673 884.668 473.087C880.857 478.748 876.238 483.922 870.91 488.507C869.628 489.628 867.725 489.458 866.704 488.174C865.684 486.89 865.754 484.988 867.038 483.968C871.972 479.789 876.197 475.022 879.716 469.865C880.303 469.056 881.195 468.542 882.195 468.526L882.094 468.428ZM796.562 486.083C797.362 486.071 798.067 486.359 798.676 486.95C801.013 489.213 803.644 491.172 806.472 492.927C808.997 494.487 811.617 495.746 814.433 496.702C816.042 497.276 816.869 498.963 816.293 500.473C815.718 502.082 814.031 502.909 812.522 502.333C809.405 501.282 806.281 499.831 803.453 498.076C800.322 496.125 797.286 493.873 794.645 491.314C793.426 490.133 793.396 488.234 794.578 487.115C795.169 486.505 795.964 486.193 796.664 486.182L796.562 486.083ZM852.092 493.806C853.291 493.787 854.402 494.469 854.92 495.561C855.543 497.051 854.972 498.861 853.382 499.486C846.727 502.391 839.954 504.199 833.263 504.805C831.665 504.93 830.146 503.754 830.019 502.056C829.892 500.358 831.07 498.939 832.768 498.812C838.761 498.317 844.937 496.719 850.895 494.024C851.292 493.818 851.692 493.812 852.092 493.806Z" fill="#4E64EE"/>
</svg>
