<svg width="39" height="38" viewBox="0 0 39 38" fill="none" xmlns="http://www.w3.org/2000/svg">
<path d="M36.0457 27.4197L37.3061 26.1596C38.0993 25.366 38.0993 24.0751 37.3061 23.2815C36.9216 22.8973 36.4107 22.6856 35.8669 22.6856C35.4589 22.6856 35.069 22.8049 34.7376 23.0271L34.4721 22.1357L35.8363 20.7711C36.6299 19.9776 36.6299 18.6866 35.8363 17.8934C35.106 17.1627 33.9545 17.1065 33.1569 17.7213L31.5402 12.2938C32.1859 11.672 32.8043 11.067 33.3871 10.4842C35.0666 8.80437 36.4322 7.02671 37.2325 5.47793C38.5847 2.86033 38.0187 1.46111 37.3058 0.74823C36.5932 0.0353476 35.194 -0.53032 32.5761 0.821838C31.0276 1.62177 29.2496 2.98737 27.5701 4.66724C26.9873 5.25004 26.382 5.86815 25.7605 6.51381L20.3327 4.89713C20.9475 4.09989 20.8913 2.94839 20.161 2.21769C19.3674 1.42448 18.0764 1.42414 17.2832 2.21769L15.9186 3.58228L15.0269 3.31676C15.2491 2.98502 15.3684 2.59514 15.3684 2.1871C15.3684 1.64362 15.1567 1.1324 14.7725 0.74823C13.9793 -0.045318 12.688 -0.045318 11.8948 0.74823L10.6347 2.00829L4.21203 0.0951747C3.98314 0.0272811 3.73577 0.089797 3.56738 0.258523L1.91407 1.91183C1.63645 2.18912 1.67308 2.66337 1.98969 2.89494L18.1947 14.7565C14.5409 18.8762 11.0212 23.0009 8.53638 25.9478L3.76972 24.1144C3.53007 24.0223 3.25883 24.0798 3.07734 24.2613L1.11783 26.2208C0.864409 26.4745 0.864409 26.8856 1.11783 27.139L10.915 36.9362C11.1651 37.1866 11.5832 37.1866 11.8336 36.9362L13.7928 34.977C13.9743 34.7955 14.0321 34.5239 13.9396 34.2843L12.1065 29.518C15.0535 27.0331 19.1779 23.5134 23.2979 19.8593L24.5851 21.6184C24.8137 21.9307 25.2772 21.971 25.5575 21.7048C25.7911 21.483 25.8234 21.1109 25.6335 20.8514L24.2726 18.9921C26.427 17.0692 28.5546 15.1292 30.4848 13.3011L36.6037 33.8423L35.7597 34.6859L27.35 23.1965C27.1382 22.9071 26.7319 22.8442 26.4425 23.056C26.1528 23.2681 26.0899 23.6744 26.302 23.9638L35.1594 36.0647C35.391 36.3813 35.8652 36.4179 36.1425 36.1403L37.7958 34.487C37.9646 34.3186 38.0271 34.0709 37.9592 33.8423L36.0457 27.4197ZM18.2018 3.13627C18.4855 2.85259 18.9591 2.85259 19.2427 3.13627C19.5298 3.4233 19.5298 3.89016 19.2427 4.17719L18.9382 4.4817L17.334 4.00376L18.2018 3.13627ZM12.8133 1.66681C13.1 1.37977 13.5672 1.37977 13.8543 1.66681C14.1413 1.95385 14.1413 2.4207 13.8543 2.70773L13.6539 2.90772L12.05 2.43011L12.8133 1.66681ZM3.36807 2.29432L4.21203 1.45069L24.7532 7.56918C22.9251 9.49978 20.9851 11.6273 19.0619 13.7818L3.36807 2.29432ZM3.69745 25.4783L7.65175 26.9992C6.6599 28.1803 5.89929 29.0941 5.45059 29.6349L2.49554 26.6799L3.69745 25.4783ZM6.3732 30.5575C8.63722 27.826 20.6043 13.4699 28.4887 5.58548C30.0529 4.0209 31.7604 2.70538 33.1723 1.97603C34.2324 1.42817 35.6508 0.930064 36.3875 1.66681C37.1243 2.40356 36.6258 3.82193 36.0783 4.88201C35.349 6.29399 34.0331 8.00108 32.4685 9.56566C24.5848 17.4494 10.2283 29.4168 7.49681 31.6811L6.3732 30.5575ZM12.5761 34.3569L11.3745 35.5585L8.41942 32.6034C8.95988 32.1551 9.87409 31.3945 11.0552 30.4026L12.5761 34.3569ZM35.3466 24.2001C35.6337 23.913 36.1005 23.913 36.3875 24.2001C36.6746 24.4871 36.6746 24.954 36.3875 25.241L35.6242 26.0043L35.1463 24.4004L35.3466 24.2001ZM33.8772 18.8116C34.1639 18.5246 34.631 18.5249 34.9181 18.8116C35.2018 19.0953 35.2018 19.5689 34.9181 19.8525L34.0503 20.7204L33.5723 19.1161L33.8772 18.8116Z" fill="white"/>
</svg>
