<svg width="46" height="47" viewBox="0 0 46 47" fill="none" xmlns="http://www.w3.org/2000/svg">
<path d="M22.7847 45.0312H3.34033C3.12079 45.0309 2.91032 44.9436 2.75507 44.7884C2.59983 44.6331 2.51249 44.4226 2.51221 44.2031V7.7078C2.51638 7.48947 2.60497 7.28125 2.75938 7.12684C2.91379 6.97244 3.12201 6.88385 3.34033 6.87967H28.9791C29.1986 6.87996 29.4091 6.9673 29.5643 7.12254C29.7196 7.27778 29.8069 7.48825 29.8072 7.7078V18.4484C29.8072 18.668 29.8945 18.8786 30.0498 19.0339C30.2051 19.1892 30.4157 19.2765 30.6353 19.2765C30.855 19.2765 31.0656 19.1892 31.2209 19.0339C31.3762 18.8786 31.4635 18.668 31.4635 18.4484V7.7078C31.4627 7.04912 31.2008 6.41763 30.735 5.95187C30.2693 5.48612 29.6378 5.22414 28.9791 5.22342H27.8359V2.94729C27.8364 2.55409 27.7482 2.16584 27.5779 1.81141C27.4077 1.45698 27.1597 1.14547 26.8525 0.90003C26.543 0.649705 26.1809 0.472525 25.7933 0.381712C25.4057 0.290899 25.0026 0.2888 24.614 0.37557L3.08361 5.24485C2.4734 5.30682 1.90722 5.59325 1.49583 6.04817C1.08444 6.50309 0.856442 7.09445 0.855957 7.7078V44.2031C0.856676 44.8618 1.11865 45.4933 1.58441 45.959C2.05016 46.4248 2.68166 46.6868 3.34033 46.6875H22.7847C23.0043 46.6875 23.215 46.6002 23.3703 46.4449C23.5256 46.2896 23.6128 46.079 23.6128 45.8594C23.6128 45.6397 23.5256 45.4291 23.3703 45.2738C23.215 45.1185 23.0043 45.0312 22.7847 45.0312ZM24.9739 1.9926C25.1198 1.96022 25.2711 1.96118 25.4166 1.99541C25.5621 2.02965 25.698 2.09628 25.8141 2.19033C25.928 2.28098 26.02 2.39609 26.0832 2.52713C26.1465 2.65817 26.1795 2.80177 26.1797 2.94729V5.22342H10.6884L24.9739 1.9926Z" fill="white"/>
<path d="M6.22217 21.6222C6.22217 23.5876 6.80499 25.509 7.89694 27.1432C8.98889 28.7774 10.5409 30.0511 12.3568 30.8032C14.1726 31.5554 16.1707 31.7522 18.0984 31.3687C20.0261 30.9853 21.7968 30.0388 23.1865 28.6491C24.5763 27.2593 25.5228 25.4886 25.9062 23.5609C26.2897 21.6332 26.0929 19.6351 25.3407 17.8193C24.5886 16.0034 23.3149 14.4514 21.6806 13.3595C20.0464 12.2675 18.1251 11.6847 16.1597 11.6847C13.525 11.6877 10.9991 12.7357 9.13612 14.5986C7.27313 16.4616 6.22518 18.9875 6.22217 21.6222ZM12.1483 14.3828C11.0316 16.3387 10.4205 18.5424 10.3703 20.7941H7.92036C8.05593 19.4637 8.51122 18.1859 9.2474 17.0695C9.98359 15.9531 10.9788 15.0313 12.1483 14.3828ZM7.92037 22.4503H10.3703C10.4205 24.702 11.0316 26.9057 12.1483 28.8616C10.9789 28.213 9.9836 27.2913 9.24741 26.1749C8.51122 25.0585 8.05594 23.7807 7.92037 22.4503ZM15.3315 29.7288C13.5921 28.9957 12.2121 26.0164 12.0247 22.4503H15.3315V29.7288ZM15.3315 20.7941H12.0247C12.2121 17.228 13.5921 14.2487 15.3315 13.5156L15.3315 20.7941ZM20.171 28.8616C21.2877 26.9057 21.8988 24.702 21.949 22.4503H24.399C24.2634 23.7807 23.8081 25.0585 23.0719 26.1749C22.3357 27.2913 21.3405 28.213 20.171 28.8616ZM24.399 20.7941H21.949C21.8988 18.5424 21.2877 16.3387 20.171 14.3828C21.3405 15.0313 22.3357 15.9531 23.0719 17.0695C23.8081 18.1859 24.2634 19.4637 24.399 20.7941ZM16.9878 13.5156C18.7272 14.2487 20.1073 17.228 20.2946 20.7941H16.9878V13.5156ZM16.9878 22.4503H20.2946C20.1073 26.0164 18.7272 28.9957 16.9878 29.7288V22.4503Z" fill="white"/>
<path d="M22.7847 35.9219H9.53467C9.31504 35.9219 9.1044 36.0091 8.9491 36.1644C8.79379 36.3197 8.70654 36.5304 8.70654 36.75C8.70654 36.9696 8.79379 37.1803 8.9491 37.3356C9.1044 37.4909 9.31504 37.5781 9.53467 37.5781H22.7847C23.0043 37.5781 23.2149 37.4909 23.3702 37.3356C23.5255 37.1803 23.6128 36.9696 23.6128 36.75C23.6128 36.5304 23.5255 36.3197 23.3702 36.1644C23.2149 36.0091 23.0043 35.9219 22.7847 35.9219Z" fill="white"/>
<path d="M22.7847 39.2344H6.22217C6.00254 39.2344 5.7919 39.3216 5.6366 39.4769C5.48129 39.6322 5.39404 39.8429 5.39404 40.0625C5.39404 40.2821 5.48129 40.4928 5.6366 40.6481C5.7919 40.8034 6.00254 40.8906 6.22217 40.8906H22.7847C23.0043 40.8906 23.2149 40.8034 23.3702 40.6481C23.5255 40.4928 23.6128 40.2821 23.6128 40.0625C23.6128 39.8429 23.5255 39.6322 23.3702 39.4769C23.2149 39.3216 23.0043 39.2344 22.7847 39.2344Z" fill="white"/>
<path d="M43.4878 38.4063H39.3472V36.7501C39.3467 36.3109 39.1721 35.8899 38.8616 35.5794C38.5511 35.2689 38.13 35.0942 37.6909 35.0938V29.0321C37.6971 28.9041 37.734 28.7794 37.7985 28.6687C37.8631 28.558 37.9534 28.4645 38.0617 28.396C38.9274 27.7883 39.5766 26.9203 39.9148 25.9181C40.253 24.916 40.2626 23.832 39.9423 22.824C39.6219 21.816 38.9882 20.9366 38.1335 20.3136C37.2787 19.6906 36.2475 19.3566 35.1898 19.3603C34.1321 19.3639 33.1032 19.7049 32.2527 20.3337C31.4022 20.9625 30.7746 21.8463 30.4611 22.8564C30.1476 23.8666 30.1647 24.9504 30.5097 25.9502C30.8548 26.95 31.5099 27.8137 32.3797 28.4154C32.4822 28.482 32.567 28.5725 32.6267 28.6791C32.6864 28.7858 32.7192 28.9054 32.7222 29.0276V35.0938C32.283 35.0942 31.862 35.2689 31.5515 35.5794C31.241 35.8899 31.0664 36.3109 31.0659 36.7501V38.4063H26.9253C26.4862 38.4067 26.0651 38.5814 25.7546 38.8919C25.4441 39.2024 25.2695 39.6234 25.269 40.0626V42.5469C25.269 42.7666 25.3563 42.9772 25.5116 43.1325C25.6669 43.2878 25.8775 43.3751 26.0972 43.3751H26.9253V45.0313C26.9257 45.4704 27.1004 45.8915 27.4109 46.202C27.7214 46.5125 28.1424 46.6871 28.5815 46.6876H41.8315C42.2707 46.6871 42.6917 46.5125 43.0022 46.202C43.3127 45.8915 43.4874 45.4704 43.4878 45.0313V43.3751H44.3159C44.5356 43.3751 44.7462 43.2878 44.9015 43.1325C45.0568 42.9772 45.144 42.7666 45.144 42.5469V40.0626C45.1436 39.6234 44.969 39.2024 44.6585 38.8919C44.3479 38.5814 43.9269 38.4067 43.4878 38.4063ZM33.1193 21.7568C33.4648 21.4761 33.8633 21.268 34.2911 21.1447C34.7188 21.0215 35.167 20.9857 35.6089 21.0396C36.0508 21.0934 36.4773 21.2358 36.8629 21.4581C37.2486 21.6805 37.5854 21.9783 37.8534 22.3338C38.1214 22.6892 38.315 23.0951 38.4226 23.527C38.5302 23.959 38.5497 24.4082 38.4798 24.8478C38.41 25.2874 38.2522 25.7085 38.016 26.0858C37.7798 26.4631 37.4699 26.7889 37.105 27.0438C36.7791 27.2639 36.5114 27.5598 36.325 27.9061C36.1385 28.2525 36.0389 28.6388 36.0347 29.0321V35.0938H34.3784V29.0276C34.3746 28.6389 34.277 28.2567 34.094 27.9137C33.911 27.5707 33.6479 27.2769 33.3271 27.0572C32.9069 26.7623 32.5605 26.3744 32.3148 25.9236C32.0691 25.4728 31.9308 24.9714 31.9107 24.4585C31.8906 23.9455 31.9892 23.4348 32.1988 22.9662C32.4085 22.4976 32.7235 22.0837 33.1193 21.7568ZM32.7222 36.7501H37.6909V38.4063H32.7222V36.7501ZM41.8315 45.0313H28.5815V43.3751H41.8315V45.0313ZM43.4878 41.7188H26.9253V40.0626H43.4878V41.7188Z" fill="white"/>
</svg>
