<svg width="45" height="44" viewBox="0 0 45 44" fill="none" xmlns="http://www.w3.org/2000/svg">
<rect x="0.5" width="44" height="44" rx="22" fill="#4E64EE" fill-opacity="0.2"/>
<path d="M22.5161 11.6494L13.1851 20.9512C12.6083 21.5264 12.6068 22.4675 13.1851 23.0532L22.5161 32.3506L23.0464 31.8232C25.7757 29.1045 27.4456 27.4394 28.4326 26.4531L29.4492 25.4351C29.507 25.3781 29.5715 25.3122 29.6353 25.2402C29.6623 25.214 29.6834 25.1951 29.6939 25.1846L29.6895 25.1787C29.7052 25.1592 29.7206 25.1404 29.7363 25.1201C30.4346 24.4226 31.3876 23.4718 31.8091 23.0518C32.0934 22.7713 32.25 22.3982 32.25 22C32.25 21.6025 32.0941 21.2302 31.8106 20.9497C30.5633 19.7047 29.1257 18.2627 27.6797 16.813C26.0597 15.1885 24.4294 13.5538 23.0464 12.1768L22.5161 11.6494ZM22.5161 13.7676C23.7761 15.0246 25.2009 16.4523 26.6177 17.8721C28.0599 19.3181 29.494 20.7558 30.7398 21.9985C29.7243 23.011 29.0088 23.7252 28.5191 24.2412C28.4261 24.326 28.3309 24.4191 28.2334 24.5151C28.0654 24.6801 27.901 24.8395 27.8643 24.874L27.8775 24.8887C26.9482 25.8172 25.1726 27.5872 22.5176 30.2324L14.2442 22.0117L22.5161 13.7676ZM22.5161 18.1943L18.6958 22L22.5161 25.8057L26.3379 22L22.5161 18.1943ZM22.5161 20.311L24.2124 22L22.5161 23.689L20.8213 22L22.5161 20.311Z" fill="black"/>
</svg>
