<svg width="45" height="44" viewBox="0 0 45 44" fill="none" xmlns="http://www.w3.org/2000/svg">
<rect x="0.5" width="44" height="44" rx="22" fill="#4E64EE" fill-opacity="0.2"/>
<path d="M14.4375 12.0625L14.0156 12.4609L12.9609 13.5156L12.5625 13.9375L12.8672 14.4297L14.4375 17.0547L14.6484 17.4297H16.8516L19.8516 20.4062C17.1709 23.0986 13.7607 26.5205 13.6406 26.6406C12.4658 27.8154 12.4629 29.7402 13.6641 30.8594C14.8359 32.0166 16.7461 32.0459 17.8594 30.8594C17.8682 30.8506 17.874 30.8447 17.8828 30.8359L22.5 26.1953L27.1406 30.8594L27.2109 30.9062C28.3887 32.0166 30.2607 32.0312 31.3594 30.8594V30.8359H31.3828C32.5312 29.6611 32.543 27.751 31.3594 26.6406L31.3359 26.6172L27.4219 22.7266C30.0557 22.4805 32.1182 20.2568 32.1562 17.5703H32.1797C32.1826 17.5557 32.1797 17.5381 32.1797 17.5234C32.1797 17.5146 32.1797 17.5088 32.1797 17.5C32.2529 16.6328 32.0654 15.8037 31.6172 15.0859L31.1016 14.2891L27.6094 17.7812L26.5547 16.6797L30.1172 13.1172L29.0859 12.6953C28.4824 12.4375 27.7852 12.25 27 12.25C24.1172 12.25 21.75 14.6172 21.75 17.5C21.75 17.8135 21.8174 18.0859 21.8672 18.3672C21.5391 18.6953 21.293 18.9648 20.9062 19.3516L17.9297 16.375V14.1484L17.5547 13.9375L14.9297 12.3672L14.4375 12.0625ZM27 13.75C27.1055 13.75 27.1787 13.8115 27.2812 13.8203L24.4453 16.6562L24.9609 17.1953L27.0703 19.375L27.5859 19.9141L30.5625 16.9375C30.5771 17.1104 30.7002 17.2363 30.6797 17.4297V17.5C30.6797 19.5654 28.9951 21.25 26.9297 21.25C26.6543 21.25 26.3203 21.1855 25.9453 21.1094L25.5469 21.0391L25.2656 21.3203L16.8047 29.8047H16.7812V29.8281C16.248 30.4111 15.3164 30.4258 14.6953 29.8047V29.7812H14.6719C14.0889 29.248 14.0742 28.3164 14.6953 27.6953C14.9795 27.4111 20.4844 21.8594 23.1797 19.1641L23.4844 18.8594L23.3672 18.4375C23.3057 18.1943 23.25 17.7754 23.25 17.5C23.25 15.4346 24.9346 13.75 27 13.75ZM14.6719 13.9375L16.4297 15.0156V15.7656L16.2656 15.9297H15.5156L14.4375 14.1719L14.6719 13.9375ZM25.6406 23.0547L30.3047 27.6953V27.7187H30.3281C30.9111 28.252 30.9258 29.1836 30.3047 29.8047H30.2812V29.8281C29.748 30.4111 28.8164 30.4258 28.1953 29.8047L23.5547 25.1406L25.6406 23.0547Z" fill="black"/>
</svg>
