<svg width="45" height="44" viewBox="0 0 45 44" fill="none" xmlns="http://www.w3.org/2000/svg">
<rect x="0.5" width="44" height="44" rx="22" fill="#4E64EE" fill-opacity="0.2"/>
<path d="M12 15.25V28H33V15.25H12ZM15 16.75H30C30 17.5788 30.6712 18.25 31.5 18.25V25C30.6712 25 30 25.6713 30 26.5H15C15 25.6713 14.3288 25 13.5 25V18.25C14.3288 18.25 15 17.5788 15 16.75ZM22.5 18.25C20.8418 18.25 19.5 19.762 19.5 21.625C19.5 23.488 20.8418 25 22.5 25C24.1582 25 25.5 23.488 25.5 21.625C25.5 19.762 24.1582 18.25 22.5 18.25ZM22.5 19.75C23.3265 19.75 24 20.5908 24 21.625C24 22.6592 23.3265 23.5 22.5 23.5C21.6735 23.5 21 22.6592 21 21.625C21 20.5908 21.6735 19.75 22.5 19.75ZM16.875 20.5C16.254 20.5 15.75 21.004 15.75 21.625C15.75 22.246 16.254 22.75 16.875 22.75C17.496 22.75 18 22.246 18 21.625C18 21.004 17.496 20.5 16.875 20.5ZM28.125 20.5C27.504 20.5 27 21.004 27 21.625C27 22.246 27.504 22.75 28.125 22.75C28.746 22.75 29.25 22.246 29.25 21.625C29.25 21.004 28.746 20.5 28.125 20.5Z" fill="black"/>
</svg>
