<svg width="1277" height="379" viewBox="0 0 1277 379" fill="none" xmlns="http://www.w3.org/2000/svg">
<path d="M1241.05 161.931C1236.31 162.006 1231.98 164.64 1229.67 168.763L1206.11 210.949C1204.45 213.921 1201.44 215.679 1198.11 215.827L1179.69 216.309C1175.14 216.381 1170.59 217.593 1166.54 219.653L1163.9 221.025C1161.83 222.103 1161.88 225.143 1163.99 226.155L1166.67 227.443C1170.78 229.374 1175.36 230.442 1179.92 230.369L1198.34 230.268C1201.67 230.215 1204.83 231.971 1206.49 234.89L1231.37 276.309C1233.81 280.357 1238.22 282.853 1242.97 282.778C1232.8 264.788 1226.84 242.076 1224.6 232.703C1224.29 231.378 1225.32 230.221 1226.56 230.201L1227.66 234.08C1228.17 235.973 1230.08 237.083 1231.98 236.768L1237.09 235.736C1237.76 235.631 1238.41 235.24 1238.88 234.663C1239.35 234.085 1240 233.695 1240.76 233.587L1242.66 233.272L1240.56 232.926C1239.9 232.841 1239.32 232.565 1238.84 232.097L1236.81 230.134L1240.71 230.072C1243.18 230.033 1245.74 229.803 1248.1 229.1L1260.3 225.866L1265.45 238.993C1266.54 241.827 1269.42 243.492 1272.45 243.064L1277 242.422L1269.58 223.438L1272.98 222.529C1273.55 222.425 1273.54 221.57 1272.96 221.484L1269.53 220.683L1276.35 201.474L1271.78 200.977C1268.83 200.643 1266.01 202.398 1264.92 205.266L1260.09 218.552L1247.89 215.704C1245.41 215.173 1242.94 214.927 1240.47 214.966L1236.57 215.028L1238.54 213.001C1239 212.519 1239.57 212.225 1240.23 212.119L1242.32 211.706L1240.41 211.451C1239.65 211.368 1238.98 210.999 1238.5 210.436C1238.01 209.874 1237.34 209.599 1236.68 209.42L1231.53 208.551C1229.63 208.201 1227.75 209.466 1227.3 211.374L1226.32 215.285C1224.99 215.307 1224.02 214.087 1224.29 212.847C1226.22 203.313 1231.47 180.518 1241.06 162.216L1241.05 161.931Z" fill="#4E64EE"/>
<path d="M1118.4 220.605C1118.4 220.605 1118.49 220.604 1118.59 220.602C1121.72 220.743 1124.96 220.977 1128.09 221.212C1129.71 221.282 1130.87 222.689 1130.71 224.212C1130.64 225.828 1129.23 226.991 1127.71 226.825C1124.57 226.59 1121.43 226.449 1118.3 226.309C1116.68 226.239 1115.52 224.927 1115.59 223.311C1115.66 221.789 1116.88 220.63 1118.4 220.605Z" fill="#4E64EE"/>
<path d="M444.207 165.329C445.917 165.302 447.721 165.273 449.529 165.434C451.145 165.504 452.307 166.911 452.141 168.434C452.072 170.051 450.665 171.213 449.143 171.047C443.057 170.668 436.986 171.24 431.404 172.659C429.891 173.063 428.356 172.137 427.952 170.623C427.548 169.108 428.474 167.573 429.988 167.169C434.528 165.957 439.363 165.31 444.301 165.232L444.207 165.329ZM467.642 169.519C468.022 169.513 468.307 169.508 468.69 169.692C474.997 172.063 480.749 175.393 485.847 179.399C487.098 180.424 487.315 182.131 486.29 183.383C485.265 184.635 483.559 184.852 482.308 183.826C477.69 180.193 472.514 177.234 466.685 175.046C465.251 174.498 464.464 172.8 465.012 171.366C465.468 170.219 466.503 169.537 467.642 169.519ZM413.588 175.316C414.442 175.303 415.398 175.668 415.981 176.514C416.857 177.83 416.599 179.545 415.38 180.515C410.59 184.011 406.288 188.261 402.661 193.165C401.731 194.415 399.931 194.728 398.681 193.798C397.432 192.867 397.118 191.067 398.048 189.817C402.048 184.432 406.722 179.701 411.982 175.912C412.451 175.524 413.019 175.42 413.589 175.411L413.588 175.316ZM496.32 192.917C497.365 192.901 498.324 193.456 498.812 194.303C501.742 199.389 503.635 204.965 504.487 210.749C504.595 211.602 504.704 212.456 504.812 213.309C504.933 214.923 503.814 216.271 502.201 216.391C500.683 216.51 499.241 215.393 499.12 213.779C499.108 213.019 499.001 212.261 498.799 211.504C498.055 206.479 496.362 201.564 493.821 197.043C493.038 195.63 493.486 193.912 494.899 193.13C495.369 192.837 495.842 192.735 496.222 192.729L496.32 192.917ZM391.356 205.127C391.736 205.121 392.116 205.115 392.404 205.301C393.837 205.848 394.624 207.546 394.077 208.98C391.884 214.527 390.458 220.441 389.606 226.632C389.44 228.155 387.939 229.319 386.415 229.058C384.892 228.892 383.729 227.39 383.989 225.865C384.835 219.295 386.444 212.902 388.725 206.975C389.182 205.827 390.216 205.145 391.356 205.127ZM834.837 220.438C836.357 220.414 837.706 221.628 837.73 223.148C837.756 224.763 836.54 226.018 835.022 226.137C829.136 226.325 822.875 226.899 816.426 227.572C814.91 227.786 813.467 226.668 813.252 225.056C813.038 223.539 814.155 222.096 815.766 221.88C822.309 221.112 828.761 220.629 834.836 220.343L834.837 220.438ZM853.744 220.614C853.744 220.614 853.839 220.612 853.934 220.611C860.494 220.982 866.966 221.735 872.967 222.78C874.491 223.041 875.559 224.545 875.299 226.07C875.038 227.594 873.535 228.663 872.011 228.402C866.105 227.355 859.919 226.693 853.644 226.317C852.028 226.248 850.866 224.841 850.937 223.319C851.008 221.798 852.224 220.638 853.744 220.614ZM1061.86 219.695C1063.38 219.671 1064.73 220.885 1064.75 222.5C1064.78 224.115 1063.56 225.37 1061.95 225.395C1055.68 225.495 1049.42 225.784 1043.15 226.073C1041.63 226.097 1040.28 224.883 1040.16 223.364C1040.14 221.749 1041.35 220.495 1042.87 220.376C1049.14 220.086 1055.5 219.891 1061.76 219.696L1061.86 219.695ZM1080.67 219.492C1086.93 219.488 1093.3 219.577 1099.57 219.763C1101.19 219.737 1102.35 221.145 1102.37 222.665C1102.4 224.28 1100.99 225.442 1099.47 225.466C1093.3 225.279 1086.93 225.19 1080.66 225.194C1079.05 225.22 1077.79 223.909 1077.86 222.293C1077.84 220.772 1079.15 219.516 1080.67 219.492ZM797.381 224.642C798.711 224.621 799.962 225.647 800.268 226.972C800.577 228.488 799.461 230.026 797.945 230.24C794.724 230.766 791.408 231.389 788.095 232.107C785.255 232.722 782.413 233.242 779.575 233.952C778.06 234.261 776.525 233.335 776.216 231.819C775.907 230.304 776.833 228.769 778.348 228.46C781.283 227.843 784.123 227.228 786.963 226.613C790.372 225.894 793.687 225.271 796.908 224.745C797.098 224.742 797.193 224.74 797.383 224.737L797.381 224.642ZM500.224 229.537C500.509 229.532 500.794 229.528 500.986 229.62C502.513 230.071 503.391 231.577 502.941 233.105C501.232 239.214 498.575 245.338 494.961 251.097C494.127 252.44 492.329 252.849 490.986 252.015C489.643 251.181 489.234 249.382 490.068 248.038C493.404 242.759 495.881 237.208 497.407 231.577C497.767 230.336 498.893 229.463 500.128 229.443L500.224 229.537ZM1024.08 221.433C1025.6 221.409 1026.85 222.53 1026.97 224.048C1027 225.664 1025.88 227.012 1024.36 227.131C1018.1 227.61 1011.84 228.089 1005.58 228.663C1003.96 228.784 1002.61 227.665 1002.49 226.051C1002.37 224.438 1003.49 223.09 1005.11 222.969C1011.37 222.395 1017.72 221.819 1023.98 221.435C1023.98 221.435 1024.08 221.433 1024.17 221.432L1024.08 221.433ZM986.518 224.974C987.943 224.951 989.194 225.977 989.408 227.494C989.622 229.011 988.505 230.454 986.894 230.67C982.628 231.212 978.266 231.757 974 232.299C972.104 232.519 970.114 232.836 968.219 233.151C966.703 233.365 965.167 232.344 964.951 230.732C964.737 229.215 965.758 227.678 967.369 227.463C969.359 227.146 971.255 226.926 973.245 226.61C977.511 226.067 981.871 225.428 986.234 224.979C986.328 224.977 986.424 224.976 986.518 224.974ZM890.801 227.25C891.086 227.245 891.371 227.241 891.754 227.425C894.809 228.422 897.866 229.513 900.83 230.702C903.794 231.89 906.76 233.269 909.635 234.839C911.072 235.576 911.573 237.279 910.836 238.716C910.099 240.153 908.397 240.655 906.961 239.918C904.279 238.535 901.407 237.155 898.635 236.058C895.861 234.867 892.901 233.868 889.94 232.87C888.413 232.419 887.628 230.816 888.079 229.288C888.44 228.142 889.568 227.364 890.708 227.346L890.801 227.25ZM760.557 232.732C761.886 232.711 763.04 233.549 763.346 234.874C763.75 236.388 762.824 237.923 761.31 238.327C755.255 239.849 749.202 241.56 743.246 243.365C741.734 243.864 740.105 242.939 739.701 241.425C739.202 239.913 740.126 238.283 741.64 237.879C747.691 236.072 753.838 234.359 759.892 232.743C760.082 232.74 760.367 232.736 760.557 232.732ZM949.278 230.79C950.608 230.769 951.857 231.7 952.068 233.027C952.377 234.542 951.357 236.079 949.842 236.388C943.308 237.727 937.346 239.152 931.672 240.762C930.159 241.166 928.626 240.335 928.127 238.822C927.723 237.308 928.553 235.775 930.065 235.276C935.928 233.567 941.985 232.141 948.613 230.801C948.803 230.798 948.993 230.795 949.183 230.792L949.278 230.79ZM386.339 242.268C387.763 242.246 389.111 243.365 389.23 244.883C389.802 251.051 391.132 257.017 393.026 262.688C393.525 264.201 392.791 265.828 391.279 266.327C389.767 266.826 388.141 266.092 387.642 264.579C385.551 258.531 384.214 252.09 383.541 245.543C383.42 243.93 384.539 242.582 386.152 242.461L386.342 242.458L386.339 242.268ZM724.347 243.664C725.582 243.644 726.639 244.388 727.133 245.615C727.632 247.128 726.898 248.755 725.386 249.254C719.433 251.249 713.578 253.432 707.724 255.711C706.214 256.305 704.587 255.57 703.993 254.059C703.399 252.548 704.134 250.921 705.644 250.327C711.498 248.049 717.543 245.862 723.496 243.868C723.779 243.768 724.064 243.763 724.349 243.759L724.347 243.664ZM913.063 241.342C914.202 241.324 915.257 241.972 915.75 243.104C916.343 244.521 915.61 246.243 914.194 246.835C908.247 249.21 902.686 251.959 897.603 254.89C896.285 255.671 894.473 255.225 893.693 253.907C892.912 252.589 893.358 250.776 894.676 249.995C899.946 246.871 905.79 244.022 912.021 241.548C912.399 241.447 912.683 241.348 913.063 241.342ZM924.04 244.684C924.704 244.673 925.277 244.854 925.855 245.32C930.953 249.326 935.773 253.811 940.029 258.59C941.093 259.809 940.931 261.617 939.807 262.585C938.589 263.649 936.876 263.486 935.814 262.363C931.753 257.866 927.315 253.565 922.411 249.841C921.162 248.911 920.943 247.109 921.873 245.858C922.433 245.184 923.281 244.791 924.041 244.779L924.04 244.684ZM689.13 257.241C690.269 257.223 691.325 257.871 691.817 259.003C692.41 260.419 691.867 262.139 690.356 262.733C688.186 263.622 686.111 264.606 683.94 265.495C680.451 267.071 676.961 268.647 673.189 270.417C671.775 271.104 670.055 270.466 669.368 269.052C668.681 267.637 669.318 265.917 670.732 265.229C674.504 263.459 678.087 261.787 681.577 260.211C683.746 259.226 685.917 258.337 687.992 257.354C688.368 257.158 688.748 257.151 689.033 257.147L689.13 257.241ZM480.683 261.301C481.443 261.289 482.207 261.562 482.788 262.218C483.85 263.341 483.784 265.148 482.661 266.211C479.854 268.916 476.852 271.339 473.753 273.574C471.591 275.034 469.429 276.494 467.076 277.861C465.759 278.642 463.947 278.196 463.166 276.878C462.385 275.56 462.831 273.747 464.149 272.966C466.314 271.696 468.477 270.332 470.449 268.875C473.361 266.833 476.174 264.508 478.701 262.092C479.263 261.608 479.923 261.313 480.588 261.302L480.683 261.301ZM880.686 260.385C881.541 260.371 882.307 260.739 882.887 261.395C883.951 262.614 883.79 264.422 882.57 265.391C879.665 267.908 876.858 270.613 874.243 273.411C872.749 275.05 871.351 276.783 870.05 278.609C869.12 279.859 867.32 280.172 866.07 279.242C864.821 278.311 864.507 276.511 865.437 275.261C866.927 273.336 868.416 271.412 870.099 269.675C872.806 266.686 875.802 263.883 878.894 261.173C879.456 260.689 880.023 260.49 880.688 260.48L880.686 260.385ZM654.997 273.366C656.042 273.349 657.095 273.903 657.587 274.94C658.274 276.355 657.636 278.075 656.317 278.761C651.133 281.314 645.95 283.962 640.863 286.608L639.544 287.294C638.13 287.982 636.411 287.439 635.724 286.025C635.036 284.61 635.579 282.891 636.993 282.203L638.312 281.517C643.495 278.869 648.679 276.317 653.862 273.669C654.239 273.473 654.712 273.37 655.092 273.364L654.997 273.366ZM168.753 281.064C169.038 281.059 169.227 281.056 169.514 281.147C175.522 282.667 181.72 284.089 187.822 285.513C189.347 285.869 190.321 287.374 189.965 288.9C189.609 290.426 188.105 291.401 186.579 291.045C180.384 289.717 174.185 288.2 168.082 286.681C166.556 286.325 165.676 284.723 166.031 283.197C166.392 281.956 167.518 281.083 168.753 281.064ZM398.582 277.615C399.532 277.6 400.489 278.06 401.072 278.906C403.701 282.951 406.613 286.896 409.996 290.548C410.566 290.539 411.133 290.34 411.796 290.235C413.311 289.926 414.847 290.947 415.062 292.559C415.275 293.981 414.536 295.323 413.213 295.724C413.127 296.296 412.849 296.775 412.382 297.258C411.259 298.321 409.454 298.349 408.392 297.226C408.199 297.039 408.102 296.945 407.909 296.758C407.625 296.763 407.339 296.767 407.056 296.867C402.698 297.601 398.338 298.24 393.979 298.879C392.462 299.094 391.02 297.976 390.711 296.46C390.497 294.943 391.614 293.5 393.129 293.191C396.54 292.662 399.953 292.228 403.363 291.604C400.749 288.509 398.418 285.22 396.276 281.928C395.4 280.611 395.846 278.799 397.164 278.018C397.634 277.725 398.107 277.623 398.677 277.614L398.582 277.615ZM448.598 280.72C449.737 280.701 450.889 281.443 451.287 282.578C451.881 284.089 451.147 285.716 449.635 286.215C443.969 288.395 438.015 290.295 431.296 291.922C429.783 292.326 428.248 291.4 427.844 289.886C427.44 288.372 428.366 286.837 429.879 286.432C436.408 284.809 442.174 283.007 447.556 280.926C447.84 280.827 448.218 280.726 448.503 280.721L448.598 280.72ZM948.898 272.799C949.847 272.784 950.9 273.242 951.39 274.185C954.71 279.929 957.465 285.967 959.271 292.021C959.77 293.533 958.941 295.162 957.427 295.566C955.915 296.065 954.287 295.236 953.883 293.721C952.084 288.048 949.621 282.481 946.496 277.113C945.715 275.795 946.162 273.983 947.479 273.202C947.95 272.909 948.423 272.807 948.898 272.799ZM205.548 289.129C205.738 289.126 205.928 289.123 206.117 289.12C212.215 290.259 218.501 291.299 224.596 292.248C226.12 292.509 227.187 293.918 227.022 295.536C226.762 297.06 225.354 298.128 223.736 297.964C217.547 297.016 211.261 295.975 205.068 294.838C203.544 294.577 202.475 293.074 202.831 291.548C203.095 290.213 204.219 289.245 205.549 289.224L205.548 289.129ZM242.876 294.905C242.971 294.903 243.161 294.9 243.256 294.899C249.443 295.656 255.723 296.317 261.905 296.789C263.427 296.955 264.588 298.267 264.519 299.884C264.353 301.407 263.043 302.663 261.425 302.499C255.147 301.933 248.772 301.273 242.585 300.516C241.063 300.35 239.9 298.943 240.065 297.325C240.232 295.897 241.45 294.832 242.875 294.81L242.876 294.905ZM621.258 290.34C622.303 290.323 623.356 290.877 623.848 291.914C624.535 293.329 623.897 295.049 622.578 295.736C616.263 298.876 610.701 301.53 605.515 303.988C604.101 304.676 602.381 304.038 601.694 302.623C601.006 301.209 601.644 299.488 603.058 298.8C608.15 296.439 613.711 293.69 620.028 290.644C620.405 290.448 620.878 290.346 621.258 290.34ZM374.738 295.573C376.162 295.551 377.415 296.671 377.627 298.093C377.841 299.61 376.629 301.055 375.113 301.269C368.854 301.938 362.499 302.514 356.237 302.993C354.624 303.114 353.274 301.9 353.155 300.381C353.13 298.766 354.248 297.418 355.766 297.299C362.028 296.82 368.289 296.245 374.453 295.578C374.453 295.578 374.643 295.575 374.738 295.573ZM280.544 298.11C280.544 298.11 280.639 298.108 280.734 298.107C287.01 298.482 293.282 298.668 299.46 298.855C301.074 298.83 302.237 300.237 302.261 301.757C302.286 303.372 300.975 304.533 299.36 304.559C293.089 304.468 286.72 304.189 280.445 303.813C278.829 303.743 277.668 302.431 277.737 300.815C277.808 299.293 279.025 298.134 280.544 298.11ZM337.071 298.45C338.59 298.426 339.94 299.64 339.964 301.16C339.989 302.775 338.774 304.03 337.256 304.149C330.991 304.438 324.63 304.634 318.265 304.64C316.651 304.665 315.395 303.355 315.371 301.835C315.346 300.219 316.656 298.963 318.175 298.939C324.443 298.84 330.711 298.741 336.976 298.452L337.071 298.45ZM858.554 290.479C858.934 290.473 859.314 290.467 859.696 290.651C861.13 291.199 861.822 292.898 861.275 294.332C858.989 299.975 857.468 305.891 856.613 311.892C856.352 313.416 854.944 314.484 853.421 314.318C851.897 314.057 850.83 312.648 850.996 311.125C851.938 304.648 853.644 298.349 856.018 292.325C856.476 291.272 857.51 290.591 858.65 290.573L858.554 290.479ZM424.657 304.571C425.227 304.562 425.799 304.743 426.375 305.114C431.274 308.552 436.644 311.698 442.197 314.461C443.632 315.104 444.23 316.9 443.492 318.242C442.849 319.677 441.149 320.275 439.712 319.537C433.873 316.684 428.215 313.352 423.028 309.728C421.779 308.798 421.465 306.997 422.395 305.747C422.953 304.978 423.802 304.584 424.657 304.571ZM587.026 306.181C588.166 306.163 589.221 306.812 589.714 307.944C590.306 309.361 589.668 311.081 588.158 311.675L586.554 312.366C581.08 314.638 575.698 316.719 570.504 318.607C568.992 319.106 567.365 318.371 566.866 316.859C566.367 315.346 567.102 313.719 568.614 313.22C573.713 311.334 579.097 309.348 584.475 307.077L586.079 306.387C586.458 306.286 586.741 306.186 587.121 306.18L587.026 306.181ZM959.818 308.547C961.337 308.523 962.686 309.737 962.71 311.257C962.721 311.922 962.731 312.587 962.74 313.157C962.785 316.007 962.642 318.956 962.307 321.812C961.974 324.763 961.452 327.812 960.549 330.772C960.098 332.3 958.592 333.179 957.065 332.728C955.538 332.277 954.659 330.771 955.11 329.243C955.828 326.571 956.356 323.902 956.692 321.14C956.935 318.476 957.083 315.813 957.041 313.152C956.999 310.492 957.023 312.012 957.012 311.347C956.987 309.732 958.202 308.478 959.72 308.359L959.818 308.547ZM551.508 318.812C552.743 318.793 553.896 319.63 554.295 320.859C554.699 322.373 553.869 323.907 552.357 324.406C546.021 326.217 539.775 327.741 533.809 328.881C532.294 329.19 530.758 328.169 530.449 326.653C530.14 325.138 531.16 323.601 532.675 323.292C538.547 322.154 544.698 320.631 550.75 318.92C551.035 318.915 551.223 318.817 551.508 318.812ZM458.45 321.046C458.735 321.041 459.02 321.037 459.306 321.127C465.13 322.936 471.232 324.36 477.325 325.213C478.849 325.474 479.916 326.883 479.751 328.501C479.491 330.026 478.083 331.093 476.465 330.929C470.086 329.984 463.794 328.564 457.684 326.665C456.157 326.214 455.372 324.611 455.823 323.083C456.183 321.842 457.31 321.064 458.545 321.044L458.45 321.046ZM514.48 326.051C515.905 326.028 517.253 327.147 517.372 328.666C517.492 330.279 516.373 331.627 514.855 331.746C510.208 332.2 505.558 332.464 501.094 332.535C499.29 332.563 497.485 332.592 495.776 332.619C494.161 332.644 492.906 331.334 492.975 329.717C492.949 328.102 494.261 326.941 495.875 326.915C497.585 326.888 499.294 326.861 501.099 326.833C505.467 326.764 509.928 326.503 514.385 326.052L514.575 326.049L514.48 326.051ZM853.25 327.53C854.675 327.507 855.927 328.628 856.14 330.05C856.809 336.311 858.325 342.084 860.689 347.368C861.376 348.783 860.738 350.503 859.228 351.097C857.814 351.785 856.094 351.147 855.5 349.636C852.939 343.879 851.222 337.445 850.449 330.615C850.235 329.098 851.447 327.653 852.964 327.439C852.964 327.439 853.154 327.436 853.249 327.435L853.25 327.53ZM950.029 344.338C950.599 344.329 951.172 344.51 951.651 344.788C952.995 345.621 953.308 347.422 952.474 348.766C948.855 354.145 944.468 359.061 939.407 363.417C938.189 364.482 936.382 364.32 935.412 363.1C934.443 361.88 934.509 360.073 935.729 359.104C940.416 355.133 944.429 350.604 947.771 345.704C948.329 344.935 949.176 344.447 950.126 344.432L950.029 344.338ZM868.79 361.114C869.55 361.102 870.22 361.376 870.798 361.937C873.017 364.088 875.517 365.949 878.203 367.617C880.601 369.099 883.09 370.295 885.764 371.203C887.292 371.749 888.078 373.352 887.531 374.786C886.985 376.316 885.382 377.101 883.949 376.554C880.988 375.555 878.022 374.177 875.335 372.509C872.361 370.655 869.478 368.515 866.969 366.084C865.812 364.962 865.783 363.157 866.906 362.094C867.467 361.515 868.222 361.218 868.887 361.207L868.79 361.114ZM921.533 368.451C922.673 368.433 923.728 369.082 924.219 370.119C924.812 371.535 924.269 373.255 922.758 373.849C916.437 376.61 910.005 378.327 903.65 378.903C902.132 379.022 900.689 377.904 900.568 376.291C900.448 374.677 901.566 373.329 903.179 373.208C908.872 372.738 914.737 371.22 920.396 368.659C920.773 368.463 921.153 368.457 921.533 368.451Z" fill="#4E64EE"/>
<path d="M130.296 48.6421C128.8 46.4234 126.555 44.8185 123.972 44.1217C121.389 43.4249 118.642 43.6828 116.233 44.8482L95.9532 54.5184C86.6792 58.9449 79.5416 66.8739 76.1089 76.5627C72.6763 86.2515 73.2295 96.9073 77.6471 106.188L177.364 315.469C181.789 324.753 189.716 331.901 199.404 335.344C209.092 338.787 219.751 338.244 229.039 333.833L249.319 324.163C251.74 323.026 253.671 321.053 254.756 318.607C255.842 316.161 256.01 313.406 255.229 310.846C253.541 305.206 253.926 299.149 256.312 293.768C258.698 288.387 262.93 284.037 268.242 281.504C273.554 278.971 279.596 278.422 285.277 279.956C290.959 281.491 295.904 285.007 299.221 289.869C300.717 292.088 302.962 293.693 305.545 294.389C308.128 295.086 310.875 294.828 313.283 293.663L333.563 283.993C342.837 279.552 349.971 271.612 353.398 261.915C356.825 252.218 356.267 241.557 351.844 232.272L252.128 22.9906C247.703 13.7132 239.777 6.57295 230.092 3.13908C220.407 -0.294805 209.755 0.258738 200.478 4.678L180.198 14.3481C177.776 15.4857 175.846 17.4584 174.76 19.9044C173.675 22.3505 173.507 25.1061 174.288 27.6658C175.975 33.3053 175.591 39.3626 173.205 44.7435C170.818 50.1244 166.587 54.4742 161.275 57.0071C155.963 59.54 149.921 60.089 144.239 58.555C138.558 57.021 133.613 53.5049 130.296 48.6421ZM195.958 123.27C199.923 122.229 204.128 122.618 207.835 124.368C211.542 126.118 214.515 129.119 216.231 132.843L224.995 151.235L277.82 167.793C279.504 168.309 281.063 169.168 282.4 170.316C283.736 171.464 284.821 172.876 285.586 174.463C286.252 175.866 286.654 177.379 286.771 178.928C287.003 181.539 286.434 184.159 285.14 186.439C283.846 188.719 281.888 190.549 279.527 191.687C277.738 192.547 275.777 192.987 273.793 192.975L244.816 192.835L255.825 215.94C256.422 217.184 257.449 218.168 258.717 218.711L272.463 224.479C274.39 225.292 275.951 226.785 276.85 228.674C277.329 229.676 277.606 230.763 277.664 231.873C277.723 232.982 277.562 234.092 277.191 235.139C276.82 236.186 276.246 237.15 275.502 237.974C274.759 238.799 273.86 239.469 272.857 239.946L233.065 258.92C231.587 259.623 229.939 259.883 228.317 259.668C226.696 259.454 225.171 258.775 223.927 257.712C222.683 256.65 221.774 255.25 221.308 253.682C220.842 252.114 220.84 250.444 221.302 248.874L225.479 234.56C225.856 233.233 225.738 231.814 225.149 230.568L214.139 207.462L195.898 230.117C194.699 231.654 193.154 232.886 191.39 233.713C189.049 234.83 186.426 235.212 183.865 234.811C181.303 234.41 178.922 233.244 177.035 231.465C175.148 229.686 173.842 227.378 173.289 224.844C172.736 222.31 172.962 219.668 173.937 217.264L194.318 165.862L185.286 146.907C184.218 144.684 183.652 142.253 183.628 139.787C183.604 137.321 184.124 134.88 185.149 132.637C186.164 130.385 187.656 128.38 189.523 126.763C191.389 125.145 193.585 123.954 195.958 123.27ZM244.487 64.8598C244.964 65.8475 245.137 66.9547 244.983 68.0407C244.83 69.1268 244.357 70.1427 243.625 70.9595C242.893 71.7762 241.935 72.357 240.873 72.628C239.811 72.8991 238.692 72.8481 237.658 72.4817C236.625 72.1153 235.723 71.4499 235.069 70.57C234.414 69.6901 234.036 68.6354 233.981 67.5399C233.927 66.4444 234.2 65.3575 234.764 64.4172C235.328 63.4769 236.16 62.7256 237.152 62.2587C238.471 61.6451 239.979 61.5738 241.351 62.0602C242.722 62.5465 243.849 63.5517 244.487 64.8598ZM213.708 79.5361C214.177 80.519 214.343 81.6188 214.186 82.6962C214.03 83.7737 213.558 84.7806 212.829 85.5895C212.1 86.3984 211.148 86.973 210.093 87.2407C209.038 87.5084 207.928 87.4571 206.902 87.0933C205.876 86.7295 204.981 86.0695 204.33 85.1969C203.679 84.3243 203.302 83.2782 203.245 82.1908C203.188 81.1035 203.455 80.0238 204.012 79.0882C204.569 78.1527 205.391 77.4033 206.373 76.9349C207.691 76.3115 209.203 76.2351 210.577 76.7224C211.951 77.2098 213.077 78.2213 213.708 79.5361ZM182.981 94.1879C183.457 95.1734 183.629 96.2779 183.478 97.3617C183.326 98.4455 182.856 99.4599 182.128 100.277C181.4 101.093 180.446 101.676 179.387 101.95C178.328 102.225 177.212 102.179 176.179 101.819C175.146 101.458 174.243 100.8 173.584 99.9261C172.925 99.0524 172.54 98.0029 172.478 96.9104C172.415 95.8178 172.678 94.7311 173.232 93.7879C173.787 92.8447 174.609 92.0872 175.594 91.6112C176.917 90.983 178.434 90.9011 179.816 91.3833C181.199 91.8655 182.335 92.8732 182.981 94.1879ZM152.202 108.864C152.679 109.852 152.852 110.959 152.698 112.045C152.545 113.131 152.072 114.147 151.34 114.964C150.608 115.78 149.65 116.361 148.588 116.632C147.526 116.903 146.407 116.852 145.373 116.486C144.34 116.119 143.439 115.454 142.784 114.574C142.129 113.694 141.751 112.64 141.696 111.544C141.642 110.449 141.915 109.362 142.479 108.421C143.044 107.481 143.875 106.73 144.867 106.263C146.186 105.649 147.694 105.578 149.066 106.064C150.438 106.551 151.564 107.556 152.202 108.864ZM121.424 123.54C121.892 124.523 122.059 125.623 121.902 126.7C121.746 127.778 121.273 128.785 120.545 129.594C119.816 130.403 118.864 130.977 117.809 131.245C116.754 131.513 115.644 131.461 114.618 131.098C113.592 130.734 112.697 130.074 112.046 129.202C111.395 128.329 111.017 127.283 110.96 126.195C110.904 125.108 111.17 124.028 111.727 123.093C112.284 122.157 113.105 121.408 114.088 120.939C115.406 120.316 116.918 120.239 118.292 120.726C119.667 121.214 120.792 122.225 121.424 123.54Z" fill="#4E64EE"/>
<path d="M273.905 181.605C274.162 181.618 274.417 181.561 274.644 181.441C274.925 181.303 275.157 181.082 275.308 180.808C275.458 180.533 275.52 180.219 275.485 179.908C275.462 179.607 275.347 179.32 275.156 179.085C274.966 178.85 274.709 178.679 274.419 178.593L231.634 165.17L239.397 181.461L273.905 181.605Z" fill="#4E64EE"/>
<path d="M200.958 179.797L184.439 221.499C184.335 221.77 184.311 222.064 184.368 222.349C184.426 222.633 184.563 222.895 184.764 223.104C184.977 223.343 185.262 223.507 185.576 223.572C185.89 223.638 186.216 223.601 186.508 223.467C186.707 223.387 186.883 223.26 187.022 223.096L208.72 196.089L200.958 179.797Z" fill="#4E64EE"/>
<path d="M215.716 345.97C210.239 346.37 204.736 345.802 199.456 344.293C192.993 342.453 186.995 339.257 181.861 334.919C176.727 330.581 172.576 325.2 169.682 319.132L69.9653 109.851C66.1845 101.903 64.6906 93.058 65.6509 84.3081C66.5191 77.0314 69.0096 70.0426 72.9386 63.8574L14.5538 110.684C10.5748 113.862 7.26176 117.793 4.80458 122.254C2.3474 126.715 0.794411 131.617 0.234602 136.679C-0.325195 141.741 0.119203 146.864 1.54234 151.754C2.96547 156.644 5.33934 161.205 8.5279 165.175L153.44 346.116C159.873 354.151 169.232 359.302 179.46 360.437C189.688 361.573 199.949 358.6 207.986 352.171L215.716 345.97Z" fill="#4E64EE"/>
<path d="M195.529 142.023L235.391 225.684C237.178 229.447 237.521 233.735 236.357 237.735L233.97 245.914L262.187 232.459L254.332 229.163C250.493 227.55 247.379 224.583 245.582 220.824L205.989 137.727C205.43 136.432 204.443 135.37 203.194 134.717C201.945 134.065 200.509 133.863 199.128 134.144C198.331 134.361 197.591 134.751 196.961 135.285C196.33 135.82 195.826 136.487 195.482 137.239C195.138 137.991 194.965 138.81 194.973 139.636C194.981 140.463 195.171 141.278 195.529 142.023Z" fill="#4E64EE"/>
</svg>
