<svg width="68" height="68" viewBox="0 0 68 68" fill="none" xmlns="http://www.w3.org/2000/svg">
<path d="M62.3333 4.53333H60.0667V3.4C60.0667 2.49826 59.7085 1.63346 59.0708 0.995837C58.4332 0.358213 57.5684 1.43299e-07 56.6667 1.43299e-07C55.7649 1.43299e-07 54.9001 0.358213 54.2625 0.995837C53.6249 1.63346 53.2667 2.49826 53.2667 3.4V4.53333H48.7333V3.4C48.7333 2.49826 48.3751 1.63346 47.7375 0.995837C47.0999 0.358213 46.2351 0 45.3333 0C44.4316 0 43.5668 0.358213 42.9292 0.995837C42.2915 1.63346 41.9333 2.49826 41.9333 3.4V4.53333H37.4V3.4C37.4 2.49826 37.0418 1.63346 36.4042 0.995837C35.7665 0.358213 34.9017 0 34 0C33.0983 0 32.2335 0.358213 31.5958 0.995837C30.9582 1.63346 30.6 2.49826 30.6 3.4V4.53333H26.0667V3.4C26.0667 2.49826 25.7085 1.63346 25.0708 0.995837C24.4332 0.358213 23.5684 0 22.6667 0C21.7649 0 20.9001 0.358213 20.2625 0.995837C19.6249 1.63346 19.2667 2.49826 19.2667 3.4V4.53333H14.7333V3.4C14.7333 2.49826 14.3751 1.63346 13.7375 0.995837C13.0999 0.358213 12.2351 0 11.3333 0C10.4316 0 9.56679 0.358213 8.92917 0.995837C8.29155 1.63346 7.93333 2.49826 7.93333 3.4V4.53333H5.66667C4.16433 4.53513 2.72403 5.13273 1.66172 6.19505C0.5994 7.25737 0.00179957 8.69766 0 10.2L0 53.2667C0.00179957 54.769 0.5994 56.2093 1.66172 57.2716C2.72403 58.3339 4.16433 58.9315 5.66667 58.9333H7.94467C6.74379 60.9364 6.00432 63.182 5.78 65.5067C5.7515 65.8238 5.78917 66.1434 5.89061 66.4452C5.99206 66.747 6.15507 67.0244 6.36933 67.2599C6.58196 67.4933 6.841 67.6797 7.12984 67.8071C7.41868 67.9346 7.73096 68.0003 8.04667 68H60.0667C60.3816 68.0001 60.6932 67.9345 60.9814 67.8075C61.2696 67.6804 61.5282 67.4947 61.7406 67.2622C61.9549 67.0265 62.118 66.7489 62.2195 66.4469C62.3209 66.1449 62.3585 65.8251 62.3299 65.5078C62.1052 63.1832 61.3658 60.9377 60.1653 58.9345H62.3333C63.8357 58.9327 65.276 58.3351 66.3383 57.2727C67.4006 56.2104 67.9982 54.7701 68 53.2678V10.2C67.9982 8.69766 67.4006 7.25737 66.3383 6.19505C65.276 5.13273 63.8357 4.53513 62.3333 4.53333ZM55.5333 3.4C55.5333 3.09942 55.6527 2.81115 55.8653 2.59861C56.0778 2.38607 56.3661 2.26667 56.6667 2.26667C56.9672 2.26667 57.2555 2.38607 57.4681 2.59861C57.6806 2.81115 57.8 3.09942 57.8 3.4V7.93333C57.8 8.23391 57.6806 8.52218 57.4681 8.73472C57.2555 8.94726 56.9672 9.06667 56.6667 9.06667C56.3661 9.06667 56.0778 8.94726 55.8653 8.73472C55.6527 8.52218 55.5333 8.23391 55.5333 7.93333V3.4ZM44.2 3.4C44.2 3.09942 44.3194 2.81115 44.5319 2.59861C44.7445 2.38607 45.0328 2.26667 45.3333 2.26667C45.6339 2.26667 45.9222 2.38607 46.1347 2.59861C46.3473 2.81115 46.4667 3.09942 46.4667 3.4V7.93333C46.4667 8.23391 46.3473 8.52218 46.1347 8.73472C45.9222 8.94726 45.6339 9.06667 45.3333 9.06667C45.0328 9.06667 44.7445 8.94726 44.5319 8.73472C44.3194 8.52218 44.2 8.23391 44.2 7.93333V3.4ZM32.8667 3.4C32.8667 3.09942 32.9861 2.81115 33.1986 2.59861C33.4112 2.38607 33.6994 2.26667 34 2.26667C34.3006 2.26667 34.5888 2.38607 34.8014 2.59861C35.0139 2.81115 35.1333 3.09942 35.1333 3.4V7.93333C35.1333 8.23391 35.0139 8.52218 34.8014 8.73472C34.5888 8.94726 34.3006 9.06667 34 9.06667C33.6994 9.06667 33.4112 8.94726 33.1986 8.73472C32.9861 8.52218 32.8667 8.23391 32.8667 7.93333V3.4ZM21.5333 3.4C21.5333 3.09942 21.6527 2.81115 21.8653 2.59861C22.0778 2.38607 22.3661 2.26667 22.6667 2.26667C22.9672 2.26667 23.2555 2.38607 23.4681 2.59861C23.6806 2.81115 23.8 3.09942 23.8 3.4V7.93333C23.8 8.23391 23.6806 8.52218 23.4681 8.73472C23.2555 8.94726 22.9672 9.06667 22.6667 9.06667C22.3661 9.06667 22.0778 8.94726 21.8653 8.73472C21.6527 8.52218 21.5333 8.23391 21.5333 7.93333V3.4ZM10.2 3.4C10.2 3.09942 10.3194 2.81115 10.5319 2.59861C10.7445 2.38607 11.0328 2.26667 11.3333 2.26667C11.6339 2.26667 11.9222 2.38607 12.1347 2.59861C12.3473 2.81115 12.4667 3.09942 12.4667 3.4V7.93333C12.4667 8.23391 12.3473 8.52218 12.1347 8.73472C11.9222 8.94726 11.6339 9.06667 11.3333 9.06667C11.0328 9.06667 10.7445 8.94726 10.5319 8.73472C10.3194 8.52218 10.2 8.23391 10.2 7.93333V3.4ZM5.66667 6.8H7.93333V7.93333C7.93333 8.83507 8.29155 9.69987 8.92917 10.3375C9.56679 10.9751 10.4316 11.3333 11.3333 11.3333C12.2351 11.3333 13.0999 10.9751 13.7375 10.3375C14.3751 9.69987 14.7333 8.83507 14.7333 7.93333V6.8H19.2667V7.93333C19.2667 8.83507 19.6249 9.69987 20.2625 10.3375C20.9001 10.9751 21.7649 11.3333 22.6667 11.3333C23.5684 11.3333 24.4332 10.9751 25.0708 10.3375C25.7085 9.69987 26.0667 8.83507 26.0667 7.93333V6.8H30.6V7.93333C30.6 8.83507 30.9582 9.69987 31.5958 10.3375C32.2335 10.9751 33.0983 11.3333 34 11.3333C34.9017 11.3333 35.7665 10.9751 36.4042 10.3375C37.0418 9.69987 37.4 8.83507 37.4 7.93333V6.8H41.9333V7.93333C41.9333 8.83507 42.2915 9.69987 42.9292 10.3375C43.5668 10.9751 44.4316 11.3333 45.3333 11.3333C46.2351 11.3333 47.0999 10.9751 47.7375 10.3375C48.3751 9.69987 48.7333 8.83507 48.7333 7.93333V6.8H53.2667V7.93333C53.2667 8.83507 53.6249 9.69987 54.2625 10.3375C54.9001 10.9751 55.7649 11.3333 56.6667 11.3333C57.5684 11.3333 58.4332 10.9751 59.0708 10.3375C59.7085 9.69987 60.0667 8.83507 60.0667 7.93333V6.8H62.3333C63.2351 6.8 64.0999 7.15821 64.7375 7.79584C65.3751 8.43346 65.7333 9.29826 65.7333 10.2V13.6H2.26667V10.2C2.26667 9.29826 2.62488 8.43346 3.2625 7.79584C3.90013 7.15821 4.76493 6.8 5.66667 6.8ZM8.04667 65.7333L8.041 65.7129C8.81167 57.2209 17.9928 50.3857 29.7047 49.0042L30.9706 51.9203C31.0589 52.1226 31.2044 52.2948 31.3893 52.4156C31.5741 52.5364 31.7902 52.6006 32.011 52.6003C32.167 52.6009 32.3214 52.5688 32.4643 52.5062C32.7397 52.3863 32.9562 52.1619 33.0663 51.8825C33.1763 51.6031 33.171 51.2914 33.0514 51.0159L32.0892 48.7991C32.7409 48.7651 33.3937 48.7322 34.0578 48.7322C38.8623 48.699 43.6211 49.6658 48.0318 51.5712L47.0107 53.2667H36.924C36.5508 53.2667 36.1834 53.3589 35.8545 53.5351C35.5255 53.7113 35.2451 53.9659 35.0381 54.2765L33.1115 57.171C33.0289 57.2948 32.9715 57.4337 32.9425 57.5797C32.9136 57.7257 32.9137 57.876 32.9429 58.022C32.972 58.168 33.0296 58.3067 33.1124 58.4304C33.1952 58.5541 33.3016 58.6603 33.4254 58.7429C33.5492 58.8255 33.6881 58.8829 33.8341 58.9119C33.9801 58.9408 34.1304 58.9407 34.2764 58.9115C34.4224 58.8824 34.5611 58.8248 34.6848 58.742C34.8085 58.6592 34.9147 58.5528 34.9973 58.429L36.9251 55.5333H47.0458L48.9725 58.429C49.0551 58.5528 49.1613 58.6592 49.285 58.742C49.4086 58.8248 49.5474 58.8824 49.6934 58.9115C49.8394 58.9407 49.9897 58.9408 50.1357 58.9119C50.2817 58.8829 50.4206 58.8255 50.5444 58.7429C50.6682 58.6603 50.7746 58.5541 50.8574 58.4304C50.9402 58.3067 50.9978 58.168 51.0269 58.022C51.0561 57.876 51.0562 57.7257 51.0273 57.5797C50.9983 57.4337 50.9409 57.2948 50.8583 57.171L48.9895 54.3683L50.065 52.5753C55.76 55.6682 59.5782 60.3715 60.0667 65.7333H8.04667ZM62.3333 56.6667H58.5797C56.5393 54.206 54.0395 52.1659 51.2199 50.66L52.0234 49.3204C52.1782 49.0627 52.2243 48.754 52.1515 48.4623C52.0787 48.1705 51.893 47.9197 51.6352 47.7649C51.3775 47.6101 51.0688 47.564 50.7771 47.6368C50.4854 47.7096 50.2345 47.8953 50.0797 48.1531L49.1867 49.64C44.4253 47.5168 39.2654 46.4349 34.0521 46.4667C33.0616 46.4667 32.0835 46.5063 31.1179 46.58L27.2 37.5462C28.5095 37.0775 29.8892 36.8349 31.28 36.8288C31.4745 36.8437 31.6694 36.8061 31.8444 36.72C32.0195 36.6339 32.1682 36.5024 32.2751 36.3392C33.1368 35.2768 34.2417 34.4375 35.4963 33.8922C36.7509 33.347 38.1184 33.1118 39.4831 33.2067C39.71 33.2389 39.9414 33.202 40.1472 33.101C40.3529 32.9999 40.5235 32.8393 40.6368 32.64C40.7493 32.4404 40.7988 32.2114 40.7785 31.9832C40.7583 31.755 40.6694 31.5383 40.5235 31.3616C36.2315 26.1483 28.4591 24.5854 21.6206 27.5559C14.7821 30.5263 10.6273 37.2753 11.4977 43.9688C11.5273 44.1961 11.6251 44.4092 11.7783 44.5797C11.9314 44.7503 12.1327 44.8704 12.3556 44.9242C12.4429 44.9444 12.5323 44.9547 12.6219 44.9548C12.8058 44.9547 12.9869 44.9099 13.1496 44.8242C13.3123 44.7385 13.4517 44.6145 13.5558 44.4629C14.4184 43.4 15.5242 42.5604 16.7798 42.0151C18.0354 41.4699 19.4039 41.235 20.7695 41.3304C20.9609 41.358 21.1562 41.3366 21.3372 41.2682C21.5181 41.1998 21.6788 41.0867 21.8042 40.9394C22.7598 39.9282 23.879 39.0853 25.1147 38.4461L28.7538 46.8248C20.5802 47.9502 13.6 51.6188 9.52 56.6667H5.66667C4.76493 56.6667 3.90013 56.3085 3.2625 55.6708C2.62488 55.0332 2.26667 54.1684 2.26667 53.2667V15.8667H65.7333V53.2667C65.7333 54.1684 65.3751 55.0332 64.7375 55.6708C64.0999 56.3085 63.2351 56.6667 62.3333 56.6667ZM21.3951 38.2239C20.2175 34.6539 20.6301 31.6982 22.5658 29.7319C25.3017 29.6627 27.761 31.3763 29.5698 34.6732C26.5668 35.0703 23.735 36.3003 21.3951 38.2239ZM31.6279 33.7223C30.5415 31.5331 28.84 29.7083 26.7319 28.4716C28.5328 28.1995 30.3698 28.29 32.1352 28.7376C33.9006 29.1852 35.5588 29.981 37.0124 31.0783C35.0057 31.4375 33.1401 32.3528 31.6279 33.7201V33.7223ZM19.2961 39.0773C17.2655 39.2502 15.324 39.9887 13.6918 41.2091C13.881 39.3997 14.4296 37.6462 15.3053 36.0516C16.1811 34.4569 17.3664 33.0531 18.7918 31.9226C18.2608 34.3058 18.4361 36.7922 19.2961 39.0773Z" fill="white"/>
</svg>
