<svg width="71" height="68" viewBox="0 0 71 68" fill="none" xmlns="http://www.w3.org/2000/svg">
<path d="M70.0293 28.5646H59.0188C58.4826 28.5646 58.0478 28.9955 58.0478 29.527V36.6106H54.6903L50.0677 31.8012C48.9496 30.6371 47.4762 30.0219 45.8069 30.0219H37.9727C36.4338 30.0219 35.0919 30.5316 33.9835 31.5371L33.1674 32.2779H12.9565V29.527C12.9565 28.9955 12.5217 28.5646 11.9855 28.5646H0.970996C0.434743 28.5646 0 28.9955 0 29.527V64.1739C0 64.7054 0.434743 65.1364 0.970996 65.1364H11.9855C12.5217 65.1364 12.9565 64.7054 12.9565 64.1739V58.2087H15.987L19.7861 65.3511C20.6764 67.0265 22.4843 68 24.3556 68C25.1058 68 25.8667 67.8433 26.5823 67.5127C27.7707 66.9637 28.665 66.0219 29.1179 64.8483C30.6185 66.1116 32.8495 66.4682 34.7624 65.5841C35.921 65.0487 36.7995 64.1417 37.2628 63.011C38.7631 64.4289 41.1189 64.8681 43.1203 63.9434C44.2513 63.4195 45.0427 62.6521 45.4901 61.6495C46.9008 63.5586 49.6331 64.2686 51.9075 63.2157C52.9352 62.743 53.742 61.9772 54.2351 61.0219H58.0476V64.174C58.0476 64.7056 58.4823 65.1365 59.0186 65.1365H70.029C70.5653 65.1365 71 64.7056 71 64.174V29.5269C71.0003 28.9953 70.5655 28.5646 70.0293 28.5646ZM11.0145 63.2113H1.94199V30.4894H11.0145V63.2113ZM51.0881 61.4705C49.5409 62.187 47.5931 61.5867 46.8347 60.1595C46.507 59.5438 46.2759 59.0892 46.1231 58.7884C46.0132 58.572 45.9405 58.429 45.8821 58.3233C45.8333 58.2354 45.7821 58.1594 45.7292 58.0934L41.1989 48.4883C40.9719 48.007 40.3944 47.799 39.9082 48.024C39.4224 48.249 39.2126 48.8219 39.4397 49.3034L43.9619 58.8916C43.963 58.9188 43.9645 58.9463 43.9665 58.9745C44.0466 60.0791 43.9294 61.4439 42.299 62.1989C40.7257 62.9258 38.8156 62.3358 38.0418 60.8854C37.7522 60.3394 37.246 59.3937 36.8113 58.5845C36.5939 58.1798 36.394 57.809 36.2481 57.5394C36.1747 57.4035 36.1091 57.2825 36.0457 57.1763C36.0381 57.1614 36.0335 57.1523 36.0308 57.147C36.0345 57.1543 36.0381 57.1616 36.0414 57.1688C36.0282 57.1471 36.0153 57.1258 36.0023 57.1052C35.9923 57.0795 35.9812 57.0541 35.9689 57.0288L33.2606 51.488C33.0266 51.0094 32.446 50.8096 31.9634 51.0416C31.4808 51.2733 31.279 51.849 31.513 52.3274L34.2213 57.8681C34.2442 57.915 34.2704 57.9591 34.2995 58.0005C34.3096 58.0235 34.3203 58.0471 34.3317 58.071C34.3268 58.063 34.3221 58.0552 34.3174 58.0471C34.3215 58.0545 34.3278 58.0656 34.336 58.0802C34.3903 58.1944 34.4561 58.3191 34.53 58.4593C34.6982 58.7776 34.9637 59.2784 35.353 60.0101C35.703 60.6664 35.7647 61.4151 35.5263 62.1184C35.2702 62.8741 34.7075 63.4852 33.9417 63.8392C32.389 64.5564 30.4401 63.957 29.685 62.5305L25.7501 55.0961C25.5008 54.6255 24.9138 54.444 24.4392 54.6911C23.9644 54.9379 23.7815 55.5196 24.0305 55.9904L27.1748 61.9318C27.5244 62.5934 27.5841 63.3465 27.3432 64.0527C27.0861 64.8063 26.5245 65.4156 25.7618 65.768C24.2122 66.4834 22.263 65.8818 21.5039 64.4535L17.4315 56.7972C17.2634 56.4813 16.9328 56.2836 16.5727 56.2836H12.9565V34.2028H31.0472L22.3011 42.1428C20.9255 43.3905 20.3686 44.9774 20.7332 46.6114C21.1311 48.3954 22.5886 49.9239 24.4461 50.5051C26.257 51.0718 28.1367 50.6332 29.603 49.3018L35.2067 44.2148C35.9604 43.5341 36.8354 43.2034 37.8821 43.2034H42.2063C43.784 43.2034 45.0939 44 45.7107 45.3348L52.536 60.0814C52.2423 60.6837 51.7403 61.1705 51.0881 61.4705ZM54.217 59.0968L47.476 44.5327C46.5486 42.5253 44.5295 41.2785 42.2064 41.2785H37.8823C36.3512 41.2785 35.011 41.7877 33.8972 42.7936L28.2916 47.8824C27.0034 49.0524 25.6959 48.8777 25.0309 48.6696C23.8415 48.2975 22.8764 47.3035 22.6292 46.1958C22.4179 45.2482 22.7578 44.3377 23.6124 43.5626L35.2948 32.9568C36.044 32.2773 36.92 31.9468 37.9728 31.9468H45.8071C46.9478 31.9468 47.9081 32.3445 48.6617 33.1288L53.5713 38.237C53.7545 38.4278 54.0085 38.5357 54.2742 38.5357H58.0478V59.0969H54.217V59.0968ZM69.0583 63.2113H59.9897V30.4894H69.0583V63.2113ZM18.102 23.3748H25.2523V27.536C25.2523 28.0675 25.687 28.4984 26.2233 28.4984H44.7772C45.3134 28.4984 45.7481 28.0675 45.7481 27.536V23.3748H52.8986C53.4349 23.3748 53.8696 22.9438 53.8696 22.4123V14.9234C53.8696 11.9481 51.4708 9.51914 48.4885 9.42979C49.3825 8.42801 49.927 7.11282 49.927 5.67324C49.927 2.54501 47.3576 0.000137512 44.1994 0.000137512C41.4329 0.000137512 39.1188 1.95601 38.5899 4.54596C37.6852 4.01043 36.6287 3.7017 35.5004 3.7017C34.3736 3.7017 33.3182 4.00974 32.4144 4.54404C31.8841 1.95491 29.5689 0 26.8011 0C23.6452 0 21.0778 2.54501 21.0778 5.6731C21.0778 7.11255 21.6216 8.42773 22.515 9.42951C19.5313 9.51735 17.1311 11.9469 17.1311 14.9232V22.4123C17.131 22.9438 17.5657 23.3748 18.102 23.3748ZM43.8062 26.5735H27.1941V19.5522C27.1941 17.4144 28.9486 15.6753 31.1053 15.6753H39.8949C42.0515 15.6753 43.806 17.4144 43.806 19.5522V26.5735H43.8062ZM51.9275 14.9232V21.4497H45.748V19.5521C45.748 16.3653 43.1422 13.7711 39.932 13.7511C40.5627 13.076 41.0379 12.2571 41.3031 11.3502H48.3189C50.3086 11.3503 51.9275 12.9531 51.9275 14.9232ZM44.1992 1.92494C46.2866 1.92494 47.9847 3.60631 47.9847 5.67324C47.9847 7.74237 46.2866 9.42553 44.1992 9.42553C43.0889 9.42553 42.0537 8.95034 41.3294 8.11584C41.1471 7.4522 40.8523 6.83434 40.4661 6.28314C40.4342 6.08204 40.4177 5.87764 40.4177 5.6731C40.4178 3.60631 42.1141 1.92494 44.1992 1.92494ZM35.5001 5.62651C37.7609 5.62651 39.6 7.4478 39.6 9.68656C39.6 11.9274 37.7608 13.7503 35.5001 13.7503C33.4491 13.7503 31.7453 12.2497 31.4468 10.298C31.4457 10.2864 31.4439 10.275 31.4424 10.2635C31.4152 10.0749 31.4004 9.88243 31.4004 9.68642C31.4004 7.44781 33.2395 5.62651 35.5001 5.62651ZM26.8011 1.92494C28.8884 1.92494 30.5865 3.60631 30.5865 5.67324C30.5865 5.86994 30.5689 6.0742 30.5348 6.28272C30.1483 6.8342 29.8532 7.45262 29.6708 8.11681C28.95 8.95062 27.9149 9.42553 26.8013 9.42553C24.7161 9.42553 23.0198 7.74237 23.0198 5.67324C23.0196 3.60631 24.7159 1.92494 26.8011 1.92494ZM19.0729 14.9232C19.0729 12.9531 20.6917 11.3503 22.6814 11.3503H29.6973C29.9625 12.2573 30.4377 13.0761 31.0684 13.7513C27.8581 13.7712 25.2523 16.3654 25.2523 19.5522V21.4498H19.0729V14.9232ZM4.38293 12.7529H10.0134L12.28 15.2034C12.4674 15.4058 12.7283 15.5155 12.9958 15.5155C13.1028 15.5155 13.2105 15.4979 13.3151 15.4619C13.6812 15.3355 13.9363 15.0054 13.9642 14.6221L14.1 12.7529H15.0635C15.8807 12.7529 16.5455 12.0922 16.5455 11.2801V3.13662C16.5455 2.32453 15.8807 1.66377 15.0635 1.66377H4.38293C3.56365 1.66377 2.89704 2.32453 2.89704 3.13662V11.2801C2.89718 12.0923 3.56365 12.7529 4.38293 12.7529ZM4.83903 3.58871H14.6032V10.828H13.1961C12.6869 10.828 12.2642 11.218 12.2277 11.7215L12.1889 12.2566L11.1563 11.1402C10.9724 10.9414 10.7127 10.828 10.4406 10.828H4.83903V3.58871ZM10.2007 7.00176C10.2007 6.47021 10.6355 6.03929 11.1717 6.03929H11.1993C11.7356 6.03929 12.1703 6.47021 12.1703 7.00176C12.1703 7.5333 11.7356 7.96423 11.1993 7.96423H11.1717C10.6353 7.96423 10.2007 7.53344 10.2007 7.00176ZM9.24568 6.96671C9.24568 7.49825 8.81093 7.92918 8.27468 7.92918H8.24722C7.71097 7.92918 7.27623 7.49825 7.27623 6.96671C7.27623 6.43516 7.71097 6.00424 8.24722 6.00424H8.27468C8.81093 6.00437 9.24568 6.43516 9.24568 6.96671ZM55.9408 12.7529H56.9005L57.0362 14.6221C57.0639 15.0053 57.319 15.3353 57.6849 15.4618C57.7896 15.4979 57.8975 15.5155 58.0046 15.5155C58.2718 15.5155 58.5328 15.406 58.7199 15.2039L60.9904 12.7529H66.6212C67.4384 12.7529 68.1034 12.0922 68.1034 11.2801V3.13662C68.1034 2.32453 67.4384 1.66377 66.6212 1.66377H55.9408C55.1215 1.66377 54.4549 2.32453 54.4549 3.13662V11.2801C54.4551 12.0923 55.1215 12.7529 55.9408 12.7529ZM56.3969 3.58871H66.1612V10.828H60.5637C60.2917 10.828 60.0324 10.941 59.8485 11.1396L58.8115 12.2591L58.7726 11.7216C58.7359 11.2181 58.3133 10.8281 57.8042 10.8281H56.3969V3.58871ZM58.8341 7.00176C58.8341 6.47021 59.2689 6.03929 59.8051 6.03929H59.8287C60.3649 6.03929 60.7997 6.47021 60.7997 7.00176C60.7997 7.5333 60.3649 7.96423 59.8287 7.96423H59.8051C59.2687 7.96423 58.8341 7.53344 58.8341 7.00176ZM61.7586 6.96671C61.7586 6.43516 62.1934 6.00424 62.7296 6.00424H62.7571C63.2933 6.00424 63.7281 6.43516 63.7281 6.96671C63.7281 7.49825 63.2933 7.92918 62.7571 7.92918H62.7296C62.1934 7.92918 61.7586 7.49839 61.7586 6.96671Z" fill="white"/>
</svg>
