<svg width="70" height="67" viewBox="0 0 70 67" fill="none" xmlns="http://www.w3.org/2000/svg">
<path d="M64.8957 29.0209C64.6278 21.3879 61.5368 14.2502 56.1092 8.82261C50.4202 3.13258 42.8594 0 34.8208 0C18.5849 0 5.31876 12.9228 4.74692 29.0209C2.26928 30.122 0.535156 32.6018 0.535156 35.484V43.4242C0.535156 47.3233 3.7071 50.4963 7.60724 50.4963C10.1308 50.4963 12.1831 48.444 12.1831 45.9204V32.9867C12.1831 30.6173 10.3659 28.6852 8.05553 28.4556C8.90838 14.4306 20.5837 3.28019 34.8208 3.28019C41.9847 3.28019 48.7211 6.07272 53.7912 11.1428C58.4468 15.7985 61.1716 21.8668 61.5816 28.4567C59.2735 28.6885 57.4595 30.6195 57.4595 32.9867V45.9193C57.4595 48.3084 59.3052 50.2525 61.6428 50.4547V53.7229C61.6428 57.4033 58.648 60.397 54.9677 60.397H50.0244C49.7817 59.7038 49.4012 59.063 48.8676 58.5317C47.9328 57.5924 46.6863 57.0753 45.3589 57.0753H40.2637C39.5322 57.0753 38.8302 57.2305 38.1873 57.5301C36.4335 58.3359 35.3008 60.105 35.3008 62.0371C35.3008 63.3645 35.8179 64.6109 36.755 65.5436C37.692 66.4828 38.9385 67 40.2637 67H45.3589C47.4713 67 49.3334 65.6343 50.0277 63.6772H54.9677C60.4576 63.6772 64.923 59.2117 64.923 53.7229V49.8709C67.3854 48.7633 69.1064 46.2922 69.1064 43.422V35.4818C69.1064 32.6018 67.3722 30.122 64.8957 29.0209ZM8.90182 32.9867V45.9193C8.90182 46.6333 8.32123 47.215 7.60615 47.215C5.51557 47.215 3.81425 45.5137 3.81425 43.4231V35.4829C3.81425 33.3912 5.51557 31.691 7.60615 31.691C8.32123 31.691 8.90182 32.2727 8.90182 32.9867ZM47.0045 62.3892C46.8416 63.1611 46.1483 63.722 45.3578 63.722H40.2626C39.8143 63.722 39.3933 63.5471 39.0719 63.2256C38.7548 62.9096 38.5799 62.4876 38.5799 62.0393C38.5799 61.3843 38.9636 60.7862 39.565 60.5096C39.7793 60.409 40.0144 60.3576 40.2626 60.3576H45.3578C45.8061 60.3576 46.2271 60.5315 46.5474 60.8529C46.8645 61.1689 47.0395 61.591 47.0395 62.0393C47.0406 62.1595 47.0274 62.2798 47.0045 62.3892ZM65.8262 43.4231C65.8262 45.5137 64.1249 47.215 62.0343 47.215C61.3203 47.215 60.7386 46.6344 60.7386 45.9193V32.9867C60.7386 32.2727 61.3192 31.691 62.0343 31.691C64.1249 31.691 65.8262 33.3923 65.8262 35.4829V43.4231Z" fill="white"/>
<path d="M45.4409 43.9885C49.2733 43.9885 52.3905 40.8702 52.3905 37.0389V22.8783C52.3905 21.0261 51.6667 19.2811 50.3524 17.9668C49.0382 16.6525 47.2942 15.9287 45.4409 15.9287H24.2006C20.3682 15.9287 17.251 19.046 17.251 22.8783V37.0389C17.251 40.8712 20.3682 43.9885 24.2006 43.9885H24.3307V47.658C24.3307 49.0575 25.165 50.2996 26.4552 50.8233C26.8718 50.9906 27.3047 51.0737 27.7334 51.0737C28.6267 51.0737 29.497 50.7195 30.1345 50.0601L36.2389 43.9885H45.4409ZM34.4074 41.1851L27.8011 47.7553C27.7716 47.7859 27.7498 47.8088 27.6874 47.7815C27.612 47.7509 27.612 47.7017 27.612 47.658V42.3484C27.612 41.4431 26.8783 40.7083 25.9719 40.7083H24.2017C22.1778 40.7083 20.5323 39.0617 20.5323 37.0389V22.8783C20.5323 20.8545 22.1778 19.2089 24.2017 19.2089H45.442C46.4195 19.2089 47.339 19.5916 48.0344 20.2859C48.7298 20.9813 49.1114 21.9019 49.1114 22.8783V37.0389C49.1114 39.0628 47.4648 40.7083 45.442 40.7083H35.5643C35.1302 40.7083 34.7147 40.88 34.4074 41.1851Z" fill="white"/>
<path d="M26.8532 27.8005C25.5192 27.8005 24.4335 28.8874 24.4335 30.2202C24.4335 31.5531 25.5203 32.6399 26.8532 32.6399C28.1882 32.6399 29.275 31.5531 29.275 30.2202C29.275 28.8874 28.1893 27.8005 26.8532 27.8005Z" fill="white"/>
<path d="M34.8197 27.8005C33.4858 27.8005 32.4 28.8874 32.4 30.2202C32.4 31.5531 33.4869 32.6399 34.8197 32.6399C36.1558 32.6399 37.2416 31.5531 37.2416 30.2202C37.2416 28.8874 36.1558 27.8005 34.8197 27.8005Z" fill="white"/>
<path d="M42.7861 27.8005C41.4522 27.8005 40.3665 28.8874 40.3665 30.2202C40.3665 31.5531 41.4533 32.6399 42.7861 32.6399C44.1212 32.6399 45.208 31.5531 45.208 30.2202C45.208 28.8874 44.1212 27.8005 42.7861 27.8005Z" fill="white"/>
</svg>
