<svg width="69" height="68" viewBox="0 0 69 68" fill="none" xmlns="http://www.w3.org/2000/svg">
<path d="M22.0222 49.7634V48.7261C23.1158 48.4143 24.1652 47.9845 25.1554 47.4429L25.8953 48.1757C26.6836 48.9565 27.9663 48.9568 28.7545 48.1757L31.9094 45.051C32.6978 44.2704 32.6978 42.9999 31.9094 42.2191L31.169 41.4859C31.7159 40.5036 32.1498 39.4643 32.4647 38.3833H33.5125C34.6294 38.3833 35.5382 37.4833 35.5382 36.3771V31.9611C35.5382 30.8569 34.6294 29.9586 33.5125 29.9586H32.4651C32.1504 28.8755 31.7164 27.8361 31.1695 26.8554L31.9119 26.1201C32.6933 25.3397 32.6934 24.07 31.9092 23.2866L28.7571 20.1687C28.3763 19.7882 27.8677 19.5787 27.3251 19.5787C26.7824 19.5787 26.2737 19.7882 25.8954 20.1662L25.1555 20.8989C24.1675 20.3585 23.1182 19.9279 22.0224 19.6134V18.5747C22.0224 17.4705 21.1135 16.5722 19.9966 16.5722H15.538C14.4231 16.5722 13.5161 17.4705 13.5161 18.5747V19.6121C12.4277 19.923 11.3781 20.3532 10.3828 20.8965L9.64312 20.1662C9.26063 19.7874 8.75219 19.5787 8.21145 19.5787C7.67071 19.5787 7.16228 19.7874 6.77993 20.1662L3.62871 23.287C2.8395 24.0689 2.8395 25.3409 3.62871 26.1227L4.3685 26.8553C3.81886 27.8395 3.38367 28.879 3.06935 29.9586H2.02182C0.906938 29.9586 0 30.8569 0 31.9611V36.3771C0 37.4833 0.906938 38.3833 2.02182 38.3833H3.0736C3.38846 39.4643 3.82242 40.5036 4.36932 41.4859L3.63118 42.2169C3.24704 42.594 3.03554 43.0978 3.03554 43.6353C3.03554 44.1727 3.24704 44.6764 3.6283 45.0508L6.78212 48.178C7.57023 48.9522 8.85254 48.9521 9.6427 48.1756L10.3826 47.4427C11.3727 47.9844 12.4222 48.4142 13.5158 48.7259V49.7633C13.5158 50.8695 14.4229 51.7695 15.5377 51.7695H19.9963C21.1132 51.7695 22.0221 50.8695 22.0221 49.7633L22.0222 49.7634ZM20.3767 48.0992V49.7634C20.3767 49.971 20.2062 50.1399 19.9964 50.1399H15.5379C15.3302 50.1399 15.1614 49.971 15.1614 49.7634V48.0992C15.1614 47.7233 14.9016 47.396 14.5325 47.3074C13.1648 46.9789 11.8675 46.4476 10.6771 45.7282C10.5444 45.648 10.3962 45.6088 10.2489 45.6088C10.0361 45.6088 9.82546 45.6905 9.66693 45.8476L8.48196 47.0212C8.33274 47.1676 8.09016 47.1679 7.94355 47.0239L4.78973 43.8967C4.69513 43.8037 4.68103 43.693 4.68103 43.6354C4.68103 43.5778 4.69513 43.467 4.79219 43.3718L5.97977 42.1958C6.24809 41.93 6.29805 41.517 6.10092 41.196C5.374 40.013 4.83737 38.7278 4.50567 37.3762C4.416 37.0111 4.08581 36.7538 3.70619 36.7538H2.02196C1.81442 36.7538 1.64563 36.5849 1.64563 36.3773V31.9614C1.64563 31.7593 1.81798 31.5886 2.02196 31.5886H3.70222C4.08184 31.5886 4.41231 31.3313 4.5017 30.9658C4.83176 29.6178 5.36962 28.333 6.10037 27.1473C6.29819 26.8262 6.24836 26.4126 5.97977 26.1466L4.79219 24.9706C4.64448 24.8242 4.64448 24.5859 4.79219 24.4394L7.94341 21.3187C8.04006 21.2228 8.15286 21.2086 8.21145 21.2086C8.27004 21.2086 8.38285 21.2228 8.48059 21.3196L9.66803 22.4919C9.93621 22.7567 10.3524 22.8059 10.6757 22.6113C11.8766 21.8891 13.1742 21.3573 14.5328 21.031C14.9016 20.9424 15.1615 20.6153 15.1615 20.2392V18.5751C15.1615 18.373 15.3339 18.2023 15.538 18.2023H19.9966C20.2063 18.2023 20.3769 18.3695 20.3769 18.5751V20.2392C20.3769 20.6145 20.6358 20.9411 21.0036 21.0304C22.3765 21.3641 23.6743 21.897 24.8611 22.6143C25.1854 22.8101 25.6028 22.7609 25.8714 22.4949L27.0613 21.3165C27.1552 21.2228 27.2667 21.2087 27.3251 21.2087C27.3834 21.2087 27.4948 21.2228 27.5915 21.3192L30.7435 24.4371C30.8915 24.5849 30.8915 24.8253 30.7461 24.9706L29.5585 26.1467C29.2899 26.4127 29.2401 26.8264 29.4379 27.1474C30.1644 28.3262 30.7009 29.611 31.0326 30.9659C31.122 31.3313 31.4523 31.5888 31.8321 31.5888H33.5124C33.722 31.5888 33.8925 31.7559 33.8925 31.9615V36.3775C33.8925 36.585 33.722 36.754 33.5124 36.754H31.8321C31.4526 36.754 31.1223 37.0111 31.0326 37.3763C30.7009 38.728 30.1642 40.0132 29.4374 41.1961C29.2402 41.5172 29.2902 41.9302 29.5585 42.1959L30.7461 43.3718C30.8403 43.4651 30.8544 43.5771 30.8544 43.6355C30.8544 43.694 30.8401 43.8058 30.7461 43.8991L27.5912 47.0238C27.497 47.1171 27.3839 47.131 27.3251 47.131C27.2662 47.131 27.153 47.1169 27.0588 47.0238L25.8714 45.8477C25.6028 45.5817 25.1854 45.5326 24.8612 45.7283C23.6709 46.4477 22.3737 46.979 21.0058 47.3076C20.6368 47.3961 20.3769 47.7233 20.3769 48.0994L20.3767 48.0992ZM24.5673 27.4379C20.8186 23.7252 14.7192 23.7252 10.9707 27.4379C7.22224 31.1506 7.2221 37.1915 10.971 40.9045C12.8453 42.7586 15.3071 43.6857 17.7689 43.6857C20.2307 43.6857 22.693 42.7585 24.5673 40.9041C28.3159 37.1914 28.3159 31.1504 24.5673 27.4379ZM23.4042 39.7515C20.2969 42.8256 15.2411 42.8254 12.1341 39.7519C9.02708 36.6745 9.02708 31.6674 12.1341 28.5901C13.6877 27.0515 15.7283 26.2823 17.769 26.2823C19.8097 26.2823 21.8503 27.0516 23.4039 28.5901C26.5109 31.6674 26.5109 36.6745 23.4042 39.7515ZM67.3389 9.32384H66.7972C66.5969 8.68009 66.3354 8.05518 66.0154 7.45549L66.3992 7.07518C66.7125 6.76524 66.885 6.35238 66.885 5.91295C66.885 5.47353 66.7125 5.06081 66.3994 4.75073L64.203 2.57542C63.5558 1.93451 62.503 1.93451 61.8561 2.57542L61.4715 2.95614C60.8688 2.64131 60.2378 2.3833 59.5856 2.18494V1.64504C59.5856 0.738119 58.8405 0 57.9247 0H54.8203C53.9046 0 53.1593 0.737984 53.1593 1.64504V2.18304C52.5056 2.38343 51.8745 2.64199 51.2733 2.95614L50.8888 2.57542C50.2416 1.93451 49.1889 1.93438 48.5418 2.57542L46.3453 4.75086C45.6983 5.39177 45.6985 6.43441 46.3453 7.07518L46.7294 7.45577C46.4092 8.05545 46.1478 8.68036 45.9475 9.32398H45.4059C44.4902 9.32398 43.745 10.062 43.745 10.969V14.0437C43.745 14.9506 44.4901 15.6887 45.4059 15.6887H45.9475C46.1478 16.3322 46.4092 16.9571 46.7294 17.5568L46.3453 17.9374C45.6982 18.5783 45.6982 19.6209 46.3453 20.2618L48.5417 22.4371C48.8547 22.7472 49.2715 22.918 49.7151 22.918C50.1588 22.918 50.5757 22.7472 50.8885 22.4373L51.2717 22.0578C51.8735 22.3737 52.5048 22.6324 53.159 22.8315V23.3676C53.159 24.2746 53.9042 25.0127 54.82 25.0127H57.9244C58.8401 25.0127 59.5854 24.2747 59.5854 23.3676V22.8311C60.2351 22.6328 60.866 22.3738 61.4715 22.0568L61.8557 22.437C62.1686 22.7472 62.5854 22.918 63.0291 22.918C63.4728 22.918 63.8898 22.7472 64.2026 22.4371L66.3988 20.2619C66.7121 19.952 66.8845 19.5392 66.8845 19.0996C66.8845 18.66 66.7121 18.2473 66.3991 17.9375L66.0147 17.5568C66.3324 16.9598 66.5931 16.3349 66.7934 15.6888H67.3385C68.2542 15.6888 68.9995 14.9509 68.9995 14.0438V10.9692C68.9995 10.0622 68.2543 9.32411 67.3385 9.32411L67.3389 9.32384ZM67.3544 14.0435C67.3544 14.0508 67.3462 14.0588 67.3389 14.0588H66.1669C65.7876 14.0588 65.4571 14.3159 65.3676 14.6812C65.1427 15.597 64.7794 16.4688 64.2876 17.2722C64.0912 17.5931 64.1415 18.0053 64.4093 18.2706L65.236 19.0894C65.2407 19.094 65.2407 19.1045 65.236 19.1092L63.0395 21.2847C63.0346 21.2891 63.0242 21.2891 63.0195 21.2844L62.193 20.4659C61.9251 20.2007 61.5088 20.1509 61.185 20.3452C60.3664 20.8366 59.486 21.1977 58.5688 21.4188C58.2001 21.5074 57.9404 21.8346 57.9404 22.2104V23.3672C57.9404 23.3745 57.9322 23.3825 57.9249 23.3825H54.8206C54.8132 23.3825 54.8051 23.3744 54.8051 23.3672V22.2104C54.8051 21.8347 54.5455 21.5074 54.1767 21.4188C53.2494 21.1954 52.3698 20.8345 51.5626 20.3467C51.4299 20.2664 51.2815 20.2272 51.1342 20.2272C50.9215 20.2272 50.7109 20.3089 50.5523 20.4659L49.7255 21.2847C49.7206 21.2891 49.7102 21.289 49.7056 21.2847L47.5092 19.1093C47.5045 19.1047 47.5045 19.094 47.5092 19.0894L48.3358 18.2708C48.6037 18.0054 48.6539 17.5932 48.4576 17.2723C47.9615 16.4615 47.5968 15.5897 47.3739 14.6814C47.2843 14.3162 46.9541 14.059 46.5745 14.059H45.4065C45.3991 14.059 45.391 14.0508 45.391 14.0437V10.969C45.391 10.9614 45.3989 10.9537 45.4065 10.9537H46.5745C46.9539 10.9537 47.2843 10.6966 47.3739 10.3312C47.5968 9.42268 47.9615 8.55088 48.4576 7.74022C48.6541 7.41929 48.6037 7.00712 48.3358 6.74178L47.5092 5.92312C47.5045 5.91851 47.5047 5.9078 47.5092 5.90319L49.7054 3.72802C49.7102 3.72327 49.7209 3.72341 49.7257 3.72802L50.5523 4.54667C50.82 4.81215 51.2362 4.86218 51.5604 4.66735C52.3689 4.18195 53.2502 3.82062 54.1795 3.59325C54.5469 3.50349 54.8049 3.177 54.8049 2.80225V1.64545C54.8049 1.63786 54.8129 1.63013 54.8204 1.63013H57.9248C57.9322 1.63013 57.9403 1.63826 57.9403 1.64545V2.80618C57.9403 3.18202 58.1998 3.50919 58.5688 3.59799C59.493 3.82049 60.3732 4.18033 61.1847 4.66748C61.5089 4.86245 61.9251 4.81228 62.1928 4.54681L63.0194 3.72815C63.0242 3.72382 63.0347 3.72354 63.0395 3.72815L65.2359 5.90346C65.2406 5.90821 65.2407 5.91865 65.2359 5.9234L64.4095 6.74205C64.1417 7.00739 64.0914 7.41957 64.2878 7.74049C64.7837 8.55101 65.1483 9.42268 65.3716 10.3316C65.4611 10.6968 65.7914 10.954 66.1709 10.954H67.3389C67.3463 10.954 67.3544 10.9621 67.3544 10.9693V14.0439V14.0435ZM52.4535 8.62857C50.2959 10.7655 50.2956 14.2459 52.454 16.388C53.5343 17.4556 54.9531 17.9896 56.372 17.9896C57.7909 17.9896 59.211 17.4554 60.292 16.387C62.4494 14.2459 62.4491 10.7655 60.2913 8.62857C58.1308 6.48851 54.6145 6.48824 52.4535 8.62857ZM59.1285 15.2346C57.6087 16.7368 55.136 16.7366 53.6175 15.2358C52.1004 13.7303 52.1001 11.2832 53.6168 9.7809C54.3767 9.0284 55.3744 8.65243 56.3724 8.65243C57.3704 8.65243 58.3684 9.02868 59.128 9.7809C60.6447 11.2832 60.6445 13.7302 59.1285 15.2346ZM67.3389 52.3152H66.7978C66.5976 51.67 66.3361 51.0448 66.0159 50.4465L66.3992 50.0667C66.7125 49.7568 66.885 49.3439 66.885 48.9043C66.885 48.4648 66.7125 48.0521 66.3994 47.7423L64.2032 45.5671C63.8902 45.2569 63.4734 45.086 63.0295 45.086C62.5857 45.086 62.169 45.2569 61.8562 45.5668L61.4729 45.9464C60.8711 45.6304 60.2397 45.3717 59.5858 45.1725V44.6326C59.5858 43.7277 58.8407 42.9915 57.9248 42.9915H54.8204C53.9047 42.9915 53.1595 43.7279 53.1595 44.6326V45.1725C52.5055 45.3717 51.874 45.6304 51.2722 45.9464L50.889 45.5671C50.5761 45.2569 50.1592 45.086 49.7156 45.086C49.2719 45.086 48.8552 45.2569 48.5421 45.5669L46.3457 47.7423C45.6986 48.3832 45.6986 49.4258 46.3457 50.0667L46.7292 50.4466C46.409 51.0451 46.1475 51.6703 45.9473 52.3154H45.4063C44.4906 52.3154 43.7454 53.0517 43.7454 53.9565V57.0349C43.7454 57.9398 44.4905 58.676 45.4063 58.676H45.9473C46.1475 59.3211 46.4092 59.9473 46.7298 60.5482L46.3457 60.9287C46.0313 61.2401 45.8589 61.6544 45.8603 62.0953C45.8616 62.5345 46.0352 62.9456 46.3457 63.2493L48.5422 65.4247C49.1893 66.0656 50.2422 66.0655 50.889 65.4247L51.2723 65.0452C51.8743 65.3613 52.5055 65.62 53.1596 65.819V66.3589C53.1596 67.2638 53.9047 68 54.8206 68H57.9249C58.8406 68 59.5859 67.2636 59.5859 66.3589V65.819C60.2399 65.62 60.8712 65.3613 61.473 65.0452L61.8563 65.4247C62.1693 65.7348 62.586 65.9055 63.0297 65.9055C63.4734 65.9055 63.8902 65.7348 64.2032 65.4247L66.396 63.2529C66.7101 62.9457 66.8837 62.5346 66.8851 62.0954C66.8865 61.6544 66.714 61.2399 66.3997 60.9289L66.0153 60.548C66.3335 59.9501 66.5942 59.324 66.7943 58.6762H67.339C68.2547 58.6762 69 57.9398 69 57.035V53.9566C69 53.0517 68.2549 52.3155 67.339 52.3155L67.3389 52.3152ZM67.3544 57.0349C67.3544 57.0397 67.3489 57.0464 67.3389 57.0464H66.1669C65.7872 57.0464 65.4567 57.3039 65.3673 57.6694C65.143 58.5869 64.7798 59.4597 64.2876 60.2638C64.0912 60.5848 64.1415 60.9969 64.4093 61.2623L65.236 62.0811C65.2414 62.0864 65.2389 62.0945 65.236 62.0971L63.0397 64.2724C63.0347 64.2769 63.0242 64.2767 63.0195 64.2724L62.193 63.4537C61.9244 63.1877 61.5067 63.1385 61.1827 63.3344C60.3751 63.8227 59.4956 64.1833 58.5688 64.4063C58.2 64.4951 57.9403 64.8222 57.9403 65.1982V66.3589C57.9403 66.3636 57.9348 66.3704 57.9248 66.3704H54.8204C54.8103 66.3704 54.8049 66.3638 54.8049 66.3589V65.1982C54.8049 64.8223 54.5454 64.4951 54.1765 64.4063C53.2495 64.1832 52.3701 63.8225 51.5624 63.3344C51.4298 63.2542 51.2814 63.215 51.1341 63.215C50.9213 63.215 50.7107 63.2966 50.5521 63.4537L49.7255 64.2724C49.7206 64.2769 49.7101 64.2767 49.7054 64.2724L47.5062 62.0946C47.5062 62.0946 47.5037 62.0862 47.5091 62.0808L48.3356 61.2621C48.6035 60.9968 48.6538 60.5846 48.4575 60.2637C47.961 59.4524 47.5964 58.5795 47.3739 57.6694C47.2845 57.3039 46.9542 57.0463 46.5743 57.0463H45.4063C45.3962 57.0463 45.3909 57.0397 45.3909 57.0348V53.9557C45.3909 53.9557 45.3963 53.9448 45.4063 53.9448H46.5743C46.9541 53.9448 47.2845 53.6873 47.3739 53.3217C47.5967 52.4103 47.9609 51.5393 48.4566 50.7327C48.6539 50.4116 48.604 49.9986 48.3356 49.7329L47.5091 48.9142C47.5044 48.9096 47.5044 48.8989 47.5091 48.8943L49.7054 46.719C49.7102 46.7147 49.7208 46.7141 49.7255 46.719L50.5521 47.5375C50.8207 47.8034 51.2381 47.8526 51.5624 47.6568C52.37 47.1686 53.2495 46.8079 54.1766 46.5846C54.5453 46.496 54.8049 46.1689 54.8049 45.793V44.6317C54.8049 44.6317 54.8104 44.6208 54.8204 44.6208H57.9248C57.9348 44.6208 57.9403 44.6317 57.9403 44.6324V45.7931C57.9403 46.1689 58.1998 46.4961 58.5686 46.5848C59.4956 46.8079 60.375 47.1689 61.1827 47.657C61.507 47.8528 61.9244 47.8035 62.193 47.5377L63.0197 46.7189C63.0246 46.7143 63.0349 46.7143 63.0397 46.7189L65.2362 48.8943C65.2408 48.8989 65.2408 48.9094 65.2359 48.9141L64.4095 49.7328C64.1413 49.9985 64.0913 50.4115 64.2886 50.7326C64.784 51.5386 65.1483 52.4097 65.3713 53.3217C65.4607 53.6871 65.791 53.9447 66.1709 53.9447H67.3389C67.3489 53.9447 67.3544 53.9555 67.3544 53.9562V57.0346V57.0349ZM60.2913 51.6163C59.2446 50.5795 57.8529 50.0084 56.3724 50.0084C54.8919 50.0084 53.5003 50.5795 52.4528 51.6168C50.2979 53.7555 50.2979 57.2357 52.4535 59.3752C53.534 60.4454 54.9529 60.9803 56.3723 60.9803C57.7916 60.9803 59.2112 60.4451 60.292 59.3747C62.447 57.2358 62.447 53.7557 60.292 51.6168C60.2918 51.6168 60.2916 51.6164 60.2913 51.6163ZM59.128 58.223C57.6086 59.728 55.1364 59.7277 53.6175 58.2236C52.1021 56.7194 52.1021 54.272 53.6168 52.7686C54.3531 52.0396 55.3316 51.6381 56.3724 51.6381C57.4132 51.6381 58.3915 52.0395 59.1274 52.7682C60.6426 54.2723 60.6428 56.7197 59.128 58.223ZM41.9433 56.6855C42.0696 57.1178 41.8181 57.5697 41.3817 57.6947C39.1194 58.3432 36.8005 58.6629 34.4951 58.6629C30.8061 58.6629 27.149 57.8452 23.7987 56.25L24.6716 57.7215C24.9017 58.1094 24.7708 58.6088 24.3789 58.8368C24.248 58.913 24.1046 58.9492 23.963 58.9492C23.6807 58.9492 23.4063 58.8052 23.2528 58.5469L20.8429 54.4846C20.8415 54.4823 20.8406 54.4797 20.8393 54.4774C20.8228 54.4486 20.8076 54.4194 20.7946 54.389C20.793 54.3855 20.792 54.3818 20.7904 54.3783C20.7798 54.3521 20.7706 54.3254 20.7627 54.2984C20.7598 54.2888 20.7573 54.2793 20.755 54.2697C20.749 54.2459 20.7442 54.222 20.7403 54.1978C20.7391 54.1901 20.7375 54.1824 20.7364 54.1746C20.7324 54.1433 20.7301 54.1116 20.7298 54.08C20.7298 54.0736 20.7302 54.0674 20.7304 54.061C20.7306 54.0347 20.7323 54.0084 20.7353 53.9822C20.7362 53.9738 20.7373 53.9654 20.7384 53.9569C20.7424 53.9295 20.7476 53.9021 20.7544 53.875C20.7557 53.8704 20.7564 53.8658 20.7576 53.8612C20.7661 53.8297 20.7766 53.7985 20.7892 53.7679C20.792 53.761 20.7954 53.7545 20.7984 53.7477C20.8085 53.7246 20.8197 53.702 20.8322 53.6796C20.8349 53.6747 20.8369 53.6694 20.8396 53.6647C20.8423 53.66 20.8459 53.6558 20.8488 53.651C20.853 53.6441 20.8564 53.6369 20.8609 53.6301C20.8698 53.6164 20.8798 53.604 20.8894 53.5909C20.8946 53.5839 20.8994 53.5766 20.9048 53.5698C20.9252 53.5439 20.9468 53.5195 20.9698 53.4967C20.9728 53.4937 20.9761 53.491 20.9792 53.488C20.9999 53.4681 21.0215 53.4495 21.044 53.432C21.0503 53.4272 21.0567 53.4224 21.0631 53.4177C21.0846 53.4019 21.1067 53.3873 21.1294 53.3739C21.135 53.3705 21.1405 53.367 21.1461 53.3637C21.1744 53.3478 21.2036 53.3333 21.2334 53.321C21.2381 53.3191 21.2429 53.3176 21.2475 53.3158C21.2726 53.3059 21.2981 53.2974 21.3241 53.2899C21.3337 53.2872 21.3434 53.2847 21.3531 53.2824C21.3773 53.2764 21.4017 53.2715 21.4263 53.2678C21.4339 53.2666 21.4414 53.265 21.4491 53.264C21.4811 53.26 21.5134 53.2579 21.5458 53.2577C21.5479 53.2577 21.5499 53.2573 21.5521 53.2573H21.5582L26.3157 53.2918C26.7701 53.2951 27.1356 53.6627 27.1324 54.1127C27.1292 54.5606 26.7613 54.9214 26.3098 54.9216H26.3037L24.7881 54.9104C29.8045 57.2178 35.5321 57.6754 40.9238 56.1298C41.3599 56.0046 41.8165 56.2537 41.9427 56.6859L41.9433 56.6855ZM41.9734 11.3759C41.975 11.4022 41.9753 11.4286 41.9743 11.4552C41.9741 11.4623 41.9742 11.4693 41.9737 11.4764C41.9716 11.5093 41.9678 11.5424 41.9615 11.5755C41.9615 11.5763 41.9615 11.577 41.9612 11.5778C41.9605 11.5813 41.9591 11.5847 41.9585 11.5884C41.9541 11.6097 41.9496 11.6309 41.9433 11.6522C41.9413 11.6587 41.9387 11.6647 41.9367 11.6711C41.9337 11.6807 41.9301 11.6902 41.9267 11.6997C41.9182 11.7231 41.9089 11.7458 41.8986 11.768C41.8951 11.7755 41.8919 11.7831 41.8882 11.7904C41.8582 11.8499 41.8214 11.9047 41.779 11.9539C41.7745 11.9591 41.7698 11.9641 41.7652 11.9692C41.7471 11.9892 41.7282 12.008 41.7085 12.026C41.7031 12.0309 41.6981 12.0358 41.6926 12.0405C41.6677 12.062 41.6418 12.0823 41.6146 12.1005C41.6129 12.1017 41.611 12.1026 41.6092 12.1037C41.5836 12.1207 41.5571 12.1357 41.5298 12.1497C41.5224 12.1535 41.515 12.157 41.5075 12.1605C41.4814 12.1729 41.4548 12.184 41.4274 12.1936C41.4243 12.1947 41.4215 12.1963 41.4184 12.1974L41.4084 12.2008C41.4069 12.2013 41.4054 12.2019 41.4038 12.2023L36.913 13.7192C36.825 13.749 36.7355 13.763 36.6474 13.763C36.3052 13.763 35.9855 13.5499 35.8689 13.211C35.7223 12.7852 35.9519 12.3221 36.382 12.1769L38.1154 11.5913C32.5341 10.7163 26.7928 11.8896 21.9983 14.9548C21.8603 15.0429 21.7057 15.0851 21.553 15.0851C21.2829 15.0851 21.0184 14.9536 20.8609 14.7121C20.6145 14.3341 20.7242 13.8297 21.106 13.5857C26.1681 10.3491 32.2154 9.07938 38.1121 9.94048L36.9923 8.9998C36.6458 8.70883 36.6031 8.1947 36.897 7.8514C37.1908 7.50824 37.7099 7.46593 38.0565 7.75703L41.67 10.7924L41.6723 10.7944L41.6848 10.8048C41.6877 10.8071 41.6899 10.81 41.6926 10.8124C41.7141 10.831 41.7346 10.8507 41.7539 10.8714C41.7594 10.8772 41.7649 10.8829 41.7701 10.8888C41.7913 10.9128 41.8116 10.9376 41.8298 10.9637C41.8302 10.9643 41.8307 10.9648 41.8311 10.9655C41.8494 10.9918 41.8654 11.0193 41.8803 11.0475C41.8847 11.0558 41.8886 11.0641 41.8926 11.0725C41.9033 11.0943 41.9129 11.1165 41.9215 11.1392C41.9245 11.147 41.9277 11.1548 41.9305 11.1628C41.9411 11.1933 41.9501 11.2242 41.9571 11.2558C41.9575 11.2575 41.9576 11.2593 41.9579 11.2611C41.9642 11.2909 41.9684 11.3213 41.9712 11.3519C41.9719 11.3599 41.9724 11.3678 41.9728 11.3758L41.9734 11.3759ZM57.3564 37.3459C57.8064 34.1608 57.5798 30.911 56.6726 27.8062C56.5463 27.374 56.7977 26.9221 57.2342 26.7971C57.6713 26.6721 58.1269 26.921 58.2531 27.3533C59.2138 30.6414 59.4631 34.0812 59.0029 37.4556L59.9921 36.291C60.2846 35.9464 60.8036 35.9022 61.1512 36.192C61.4989 36.4816 61.5437 36.9956 61.2511 37.34L58.1894 40.945C58.1822 40.9536 58.1741 40.9609 58.1666 40.969C58.1586 40.9776 58.1508 40.9861 58.1426 40.9942C58.1154 41.0214 58.087 41.047 58.0566 41.0698C58.0542 41.0715 58.0516 41.073 58.0491 41.0748C58.0197 41.0963 57.9889 41.1153 57.957 41.1327C57.9482 41.1374 57.9396 41.142 57.9307 41.1465C57.8963 41.1637 57.8613 41.1793 57.825 41.1915C57.8235 41.1921 57.822 41.1925 57.8205 41.193C57.7846 41.2049 57.7478 41.2135 57.7104 41.2204C57.6995 41.2224 57.6887 41.2242 57.6776 41.2257C57.6408 41.231 57.6037 41.2345 57.5663 41.2348C57.5644 41.2348 57.5625 41.2352 57.5604 41.2352C57.516 41.2352 57.4711 41.2303 57.4264 41.2228C57.4209 41.2219 57.4156 41.2223 57.4101 41.2213C57.3984 41.2192 57.3875 41.2154 57.3761 41.2128C57.3653 41.2104 57.3545 41.2093 57.3437 41.2063C57.3355 41.2041 57.3279 41.201 57.3199 41.1986C57.3091 41.1953 57.2985 41.1919 57.288 41.1883C57.264 41.18 57.2409 41.1706 57.2182 41.1605C57.2114 41.1573 57.2045 41.1548 57.1978 41.1515C57.1676 41.1369 57.1386 41.1207 57.111 41.103C57.1082 41.1012 57.1056 41.0992 57.1029 41.0973C57.0782 41.0809 57.0547 41.0632 57.0321 41.0445C57.0261 41.0395 57.0203 41.0345 57.0145 41.0294C56.9939 41.0113 56.9745 40.9925 56.956 40.9725C56.9519 40.9682 56.9476 40.9641 56.9438 40.9598C56.9222 40.9355 56.9021 40.91 56.8834 40.8835C56.8799 40.8783 56.8769 40.873 56.8734 40.8679C56.8587 40.8456 56.8451 40.8229 56.8327 40.7994C56.8285 40.7917 56.8244 40.7839 56.8206 40.7761C56.8068 40.7479 56.7942 40.7193 56.7836 40.6896C56.7834 40.6886 56.7828 40.6878 56.7826 40.6869L56.782 40.6854C56.7813 40.6836 56.7808 40.6817 56.7801 40.68L55.2265 36.2325C55.0778 35.8072 55.3054 35.3432 55.7349 35.1961C56.1645 35.0483 56.6328 35.2744 56.7813 35.6997L57.3566 37.3461L57.3564 37.3459ZM22.5338 30.6318C22.8551 30.95 22.8551 31.4658 22.5338 31.784L16.5501 37.7104C16.3948 37.8643 16.1851 37.9492 15.9684 37.9492C15.9327 37.9492 15.8968 37.9467 15.8608 37.9421C15.6071 37.9089 15.3836 37.7608 15.2557 37.5413L12.873 33.4482C12.6461 33.0582 12.7812 32.56 13.1748 32.3353C13.5689 32.1106 14.0717 32.2445 14.2984 32.6341L16.1453 35.8068L21.3705 30.6318C21.6916 30.3135 22.2127 30.3135 22.5338 30.6318Z" fill="white"/>
</svg>
